<?xml version="1.0" encoding="UTF-8" standalone="no"?>
<!-- Created with Inkscape (http://www.inkscape.org/) -->

<svg
   xmlns:ns0="http://www.iki.fi/pav/software/textext/"
   xmlns:dc="http://purl.org/dc/elements/1.1/"
   xmlns:cc="http://creativecommons.org/ns#"
   xmlns:rdf="http://www.w3.org/1999/02/22-rdf-syntax-ns#"
   xmlns:svg="http://www.w3.org/2000/svg"
   xmlns="http://www.w3.org/2000/svg"
   xmlns:xlink="http://www.w3.org/1999/xlink"
   xmlns:sodipodi="http://sodipodi.sourceforge.net/DTD/sodipodi-0.dtd"
   xmlns:inkscape="http://www.inkscape.org/namespaces/inkscape"
   width="744.09448819"
   height="1052.3622047"
   id="svg2"
   version="1.1"
   inkscape:version="0.48.0 r9654"
   sodipodi:docname="C.svg">
  <sodipodi:namedview
     id="base"
     pagecolor="#ffffff"
     bordercolor="#666666"
     borderopacity="1.0"
     inkscape:pageopacity="0.0"
     inkscape:pageshadow="2"
     inkscape:zoom="1.4"
     inkscape:cx="77.267296"
     inkscape:cy="627.76116"
     inkscape:document-units="px"
     inkscape:current-layer="layer1"
     showgrid="false"
     inkscape:window-width="1272"
     inkscape:window-height="1050"
     inkscape:window-x="0"
     inkscape:window-y="25"
     inkscape:window-maximized="0"
     inkscape:snap-bbox="true">
    <inkscape:grid
       type="xygrid"
       id="grid2992" />
  </sodipodi:namedview>
  <defs
     id="defs4">
    <marker
       inkscape:stockid="TriangleOutM"
       orient="auto"
       refY="0.0"
       refX="0.0"
       id="TriangleOutM"
       style="overflow:visible">
      <path
         id="path4503"
         d="M 5.77,0.0 L -2.88,5.0 L -2.88,-5.0 L 5.77,0.0 z "
         style="fill-rule:evenodd;stroke:#000000;stroke-width:1.0pt;marker-start:none"
         transform="scale(0.4)" />
    </marker>
    <marker
       inkscape:stockid="Arrow2Mend"
       orient="auto"
       refY="0.0"
       refX="0.0"
       id="Arrow2Mend"
       style="overflow:visible;">
      <path
         id="path3836"
         style="font-size:12.0;fill-rule:evenodd;stroke-width:0.62500000;stroke-linejoin:round;"
         d="M 8.7185878,4.0337352 L -2.2072895,0.016013256 L 8.7185884,-4.0017078 C 6.9730900,-1.6296469 6.9831476,1.6157441 8.7185878,4.0337352 z "
         transform="scale(0.6) rotate(180) translate(0,0)" />
    </marker>
    <marker
       inkscape:stockid="Arrow1Send"
       orient="auto"
       refY="0.0"
       refX="0.0"
       id="Arrow1Send"
       style="overflow:visible;">
      <path
         id="path3824"
         d="M 0.0,0.0 L 5.0,-5.0 L -12.5,0.0 L 5.0,5.0 L 0.0,0.0 z "
         style="fill-rule:evenodd;stroke:#000000;stroke-width:1.0pt;marker-start:none;"
         transform="scale(0.2) rotate(180) translate(6,0)" />
    </marker>
    <marker
       inkscape:stockid="Arrow2Lend"
       orient="auto"
       refY="0.0"
       refX="0.0"
       id="Arrow2Lend"
       style="overflow:visible;">
      <path
         id="path3830"
         style="font-size:12.0;fill-rule:evenodd;stroke-width:0.62500000;stroke-linejoin:round;"
         d="M 8.7185878,4.0337352 L -2.2072895,0.016013256 L 8.7185884,-4.0017078 C 6.9730900,-1.6296469 6.9831476,1.6157441 8.7185878,4.0337352 z "
         transform="scale(1.1) rotate(180) translate(1,0)" />
    </marker>
    <marker
       inkscape:stockid="TriangleOutM"
       orient="auto"
       refY="0"
       refX="0"
       id="TriangleOutM-5"
       style="overflow:visible">
      <path
         inkscape:connector-curvature="0"
         id="path4503-5"
         d="m 5.77,0 -8.65,5 0,-10 8.65,5 z"
         style="fill-rule:evenodd;stroke:#000000;stroke-width:1pt;marker-start:none"
         transform="scale(0.4,0.4)" />
    </marker>
    <clipPath
       id="clipPath6769"
       clipPathUnits="userSpaceOnUse">
      <rect
         y="52.265076"
         x="117.57426"
         height="164.82654"
         width="228.16084"
         id="rect6771"
         style="fill:none;stroke:#000000;stroke-width:0.77102631;stroke-miterlimit:4;stroke-opacity:1;stroke-dasharray:none;stroke-dashoffset:0" />
    </clipPath>
    <clipPath
       id="clipPath6773"
       clipPathUnits="userSpaceOnUse">
      <rect
         y="35.743084"
         x="44.405445"
         height="164.82654"
         width="228.16084"
         id="rect6775"
         style="fill:none;stroke:#000000;stroke-width:0.77102631;stroke-miterlimit:4;stroke-opacity:1;stroke-dasharray:none;stroke-dashoffset:0" />
    </clipPath>
    <clipPath
       id="clipPath6777"
       clipPathUnits="userSpaceOnUse">
      <rect
         y="6.0235815"
         x="105.69111"
         height="164.82654"
         width="228.16084"
         id="rect6779"
         style="fill:none;stroke:#000000;stroke-width:0.77102631;stroke-miterlimit:4;stroke-opacity:1;stroke-dasharray:none;stroke-dashoffset:0" />
    </clipPath>
    <clipPath
       id="clipPath6781"
       clipPathUnits="userSpaceOnUse">
      <rect
         y="23.154894"
         x="176.97476"
         height="164.82654"
         width="228.16084"
         id="rect6783"
         style="fill:none;stroke:#000000;stroke-width:0.77102631;stroke-miterlimit:4;stroke-opacity:1;stroke-dasharray:none;stroke-dashoffset:0" />
    </clipPath>
    <clipPath
       id="clipPath6785"
       clipPathUnits="userSpaceOnUse">
      <rect
         y="89.090363"
         x="97.539307"
         height="125.93761"
         width="174.3289"
         id="rect6787"
         style="fill:none;stroke:#000000;stroke-width:0.58911145;stroke-miterlimit:4;stroke-opacity:1;stroke-dasharray:none;stroke-dashoffset:0" />
    </clipPath>
    <clipPath
       id="clipPath6789"
       clipPathUnits="userSpaceOnUse">
      <rect
         y="123.77581"
         x="97.494156"
         height="125.93761"
         width="174.3289"
         id="rect6791"
         style="fill:none;stroke:#000000;stroke-width:0.58911145;stroke-miterlimit:4;stroke-opacity:1;stroke-dasharray:none;stroke-dashoffset:0" />
    </clipPath>
    <clipPath
       id="clipPath6793"
       clipPathUnits="userSpaceOnUse">
      <rect
         y="286.64789"
         x="30"
         height="299.28571"
         width="414.28571"
         id="rect6795"
         style="fill:none;stroke:#000000;stroke-width:1.39999998;stroke-miterlimit:4;stroke-opacity:1;stroke-dasharray:none;stroke-dashoffset:0" />
    </clipPath>
    <clipPath
       id="clipPath6797"
       clipPathUnits="userSpaceOnUse">
      <rect
         y="85.436874"
         x="176.66025"
         height="105.91908"
         width="146.6183"
         id="rect6799"
         style="fill:none;stroke:#000000;stroke-width:0.49546874;stroke-miterlimit:4;stroke-opacity:1;stroke-dasharray:none;stroke-dashoffset:0" />
    </clipPath>
    <clipPath
       id="clipPath6801"
       clipPathUnits="userSpaceOnUse">
      <rect
         y="286.64789"
         x="30"
         height="299.28571"
         width="414.28571"
         id="rect6803"
         style="fill:none;stroke:#000000;stroke-width:1.39999998;stroke-miterlimit:4;stroke-opacity:1;stroke-dasharray:none;stroke-dashoffset:0" />
    </clipPath>
    <clipPath
       id="clipPath6805"
       clipPathUnits="userSpaceOnUse">
      <rect
         y="47.353111"
         x="213.69112"
         height="100.13862"
         width="138.6167"
         id="rect6807"
         style="fill:none;stroke:#000000;stroke-width:0.46842885;stroke-miterlimit:4;stroke-opacity:1;stroke-dasharray:none;stroke-dashoffset:0" />
    </clipPath>
    <clipPath
       id="clipPath6809"
       clipPathUnits="userSpaceOnUse">
      <rect
         y="94.336624"
         x="213.69112"
         height="100.13862"
         width="138.6167"
         id="rect6811"
         style="fill:none;stroke:#000000;stroke-width:0.46842885;stroke-miterlimit:4;stroke-opacity:1;stroke-dasharray:none;stroke-dashoffset:0" />
    </clipPath>
    <clipPath
       id="clipPath6813"
       clipPathUnits="userSpaceOnUse">
      <rect
         y="286.64789"
         x="30"
         height="299.28571"
         width="414.28571"
         id="rect6815"
         style="fill:none;stroke:#000000;stroke-width:1.39999998;stroke-miterlimit:4;stroke-opacity:1;stroke-dasharray:none;stroke-dashoffset:0" />
    </clipPath>
    <clipPath
       id="clipPath6817"
       clipPathUnits="userSpaceOnUse">
      <rect
         y="286.64789"
         x="30"
         height="299.28571"
         width="414.28571"
         id="rect6819"
         style="fill:none;stroke:#000000;stroke-width:1.39999998;stroke-miterlimit:4;stroke-opacity:1;stroke-dasharray:none;stroke-dashoffset:0" />
    </clipPath>
    <clipPath
       id="clipPath6821"
       clipPathUnits="userSpaceOnUse">
      <rect
         y="286.64789"
         x="30"
         height="299.28571"
         width="414.28571"
         id="rect6823"
         style="fill:none;stroke:#000000;stroke-width:1.39999998;stroke-miterlimit:4;stroke-opacity:1;stroke-dasharray:none;stroke-dashoffset:0" />
    </clipPath>
    <clipPath
       id="clipPath6825"
       clipPathUnits="userSpaceOnUse">
      <rect
         y="286.64789"
         x="30"
         height="299.28571"
         width="414.28571"
         id="rect6827"
         style="fill:none;stroke:#000000;stroke-width:1.39999998;stroke-miterlimit:4;stroke-opacity:1;stroke-dasharray:none;stroke-dashoffset:0" />
    </clipPath>
    <clipPath
       id="clipPath6829"
       clipPathUnits="userSpaceOnUse">
      <rect
         y="286.64789"
         x="30"
         height="299.28571"
         width="414.28571"
         id="rect6831"
         style="fill:none;stroke:#000000;stroke-width:1.39999998;stroke-miterlimit:4;stroke-opacity:1;stroke-dasharray:none;stroke-dashoffset:0" />
    </clipPath>
    <clipPath
       id="clipPath6833"
       clipPathUnits="userSpaceOnUse">
      <rect
         y="286.64789"
         x="30"
         height="299.28571"
         width="414.28571"
         id="rect6835"
         style="fill:none;stroke:#000000;stroke-width:1.39999998;stroke-miterlimit:4;stroke-opacity:1;stroke-dasharray:none;stroke-dashoffset:0" />
    </clipPath>
    <clipPath
       id="clipPath6797-1"
       clipPathUnits="userSpaceOnUse">
      <rect
         y="85.436874"
         x="176.66025"
         height="105.91908"
         width="146.6183"
         id="rect6799-0"
         style="fill:none;stroke:#000000;stroke-width:0.49546874;stroke-miterlimit:4;stroke-opacity:1;stroke-dasharray:none;stroke-dashoffset:0" />
    </clipPath>
  </defs>
  <metadata
     id="metadata7">
    <rdf:RDF>
      <cc:Work
         rdf:about="">
        <dc:format>image/svg+xml</dc:format>
        <dc:type
           rdf:resource="http://purl.org/dc/dcmitype/StillImage" />
        <dc:title />
      </cc:Work>
    </rdf:RDF>
  </metadata>
  <g
     inkscape:label="Layer 1"
     inkscape:groupmode="layer"
     id="layer1">
    <rect
       clip-path="url(#clipPath6833)"
       style="opacity:0.18532817;fill:#74d6f5;fill-opacity:1;stroke:none"
       id="rect4383"
       width="390"
       height="180"
       x="40"
       y="472.36218" />
    <path
       clip-path="url(#clipPath6829)"
       style="fill:none;stroke:#000000;stroke-width:1.55801594;stroke-linecap:butt;stroke-linejoin:miter;stroke-miterlimit:5.19999981;stroke-opacity:1;stroke-dasharray:none"
       d="m 40,472.36218 390,0"
       id="path2994"
       inkscape:connector-curvature="0" />
    <rect
       clip-path="url(#clipPath6825)"
       style="opacity:0.08494209;fill:#74d6f5;fill-opacity:1;stroke:none"
       id="rect4383-3"
       width="390"
       height="180"
       x="40"
       y="292.36218" />
    <path
       clip-path="url(#clipPath6821)"
       style="fill:none;stroke:#000000;stroke-width:1.39999998;stroke-linecap:butt;stroke-linejoin:miter;stroke-miterlimit:4;stroke-opacity:1;stroke-dasharray:none;marker-end:url(#TriangleOutM)"
       d="m 240,482.36218 90,-80"
       id="path3802"
       inkscape:connector-curvature="0"
       sodipodi:nodetypes="cc" />
    <text
       clip-path="url(#clipPath6813)"
       xml:space="preserve"
       style="font-size:40px;font-style:normal;font-variant:normal;font-weight:normal;font-stretch:normal;line-height:125%;letter-spacing:0px;word-spacing:0px;fill:#000000;fill-opacity:1;stroke:none;font-family:Arial;-inkscape-font-specification:Arial"
       x="160.61424"
       y="339.69955"
       id="text4851"
       sodipodi:linespacing="125%"><tspan
         sodipodi:role="line"
         id="tspan4853"
         x="160.61424"
         y="339.69955" /></text>
    <g
       clip-path="url(#clipPath6809)"
       id="g3448"
       transform="matrix(2.9887142,0,0,2.9887142,-608.66169,4.7026785)"
       ns0:preamble=""
       ns0:text="$n_{0}$">
      <defs
         id="defs3450">
        <g
           id="g3452">
          <symbol
             id="textext-535ad805-0"
             overflow="visible"
             style="overflow:visible">
            <path
               id="path3455"
               d="m 0.875,-0.59375 c -0.03125,0.15625 -0.09375,0.390625 -0.09375,0.4375 0,0.171875 0.140625,0.265625 0.296875,0.265625 0.125,0 0.296875,-0.078125 0.375,-0.28125 0,-0.015625 0.125,-0.484375 0.1875,-0.734375 l 0.21875,-0.890625 C 1.90625,-2.03125 1.96875,-2.25 2.03125,-2.46875 c 0.03125,-0.171875 0.109375,-0.46875 0.125,-0.5 0.140625,-0.3125 0.671875,-1.21875 1.625,-1.21875 0.453125,0 0.53125,0.375 0.53125,0.703125 0,0.609375 -0.484375,1.890625 -0.640625,2.3125 C 3.578125,-0.9375 3.5625,-0.8125 3.5625,-0.703125 c 0,0.46875 0.359375,0.8125 0.828125,0.8125 0.9375,0 1.296875,-1.453125 1.296875,-1.53125 0,-0.109375 -0.078125,-0.109375 -0.109375,-0.109375 -0.109375,0 -0.109375,0.03125 -0.15625,0.1875 -0.203125,0.671875 -0.53125,1.234375 -1.015625,1.234375 -0.171875,0 -0.234375,-0.09375 -0.234375,-0.328125 0,-0.25 0.078125,-0.484375 0.171875,-0.703125 0.1875,-0.53125 0.609375,-1.625 0.609375,-2.203125 0,-0.65625 -0.421875,-1.0625 -1.140625,-1.0625 -0.90625,0 -1.390625,0.640625 -1.5625,0.875 -0.046875,-0.5625 -0.453125,-0.875 -0.921875,-0.875 -0.453125,0 -0.640625,0.390625 -0.734375,0.5625 C 0.421875,-3.5 0.296875,-2.90625 0.296875,-2.875 c 0,0.109375 0.09375,0.109375 0.109375,0.109375 0.109375,0 0.109375,-0.015625 0.171875,-0.234375 0.171875,-0.703125 0.375,-1.1875 0.734375,-1.1875 0.1875,0 0.296875,0.125 0.296875,0.453125 0,0.21875 -0.03125,0.328125 -0.15625,0.84375 z m 0,0"
               style="stroke:none"
               inkscape:connector-curvature="0" />
          </symbol>
          <symbol
             id="textext-535ad805-1"
             overflow="visible"
             style="overflow:visible">
            <path
               id="path3458"
               d="M 3.59375,-2.21875 C 3.59375,-2.984375 3.5,-3.546875 3.1875,-4.03125 2.96875,-4.34375 2.53125,-4.625 1.984375,-4.625 c -1.625,0 -1.625,1.90625 -1.625,2.40625 0,0.5 0,2.359375 1.625,2.359375 1.609375,0 1.609375,-1.859375 1.609375,-2.359375 z M 1.984375,-0.0625 c -0.328125,0 -0.75,-0.1875 -0.890625,-0.75 C 1,-1.21875 1,-1.796875 1,-2.3125 1,-2.828125 1,-3.359375 1.09375,-3.734375 1.25,-4.28125 1.6875,-4.4375 1.984375,-4.4375 c 0.375,0 0.734375,0.234375 0.859375,0.640625 0.109375,0.375 0.125,0.875 0.125,1.484375 0,0.515625 0,1.03125 -0.09375,1.46875 -0.140625,0.640625 -0.609375,0.78125 -0.890625,0.78125 z m 0,0"
               style="stroke:none"
               inkscape:connector-curvature="0" />
          </symbol>
        </g>
      </defs>
      <g
         id="textext-535ad805-2">
        <g
           id="g3461"
           style="fill:#000000;fill-opacity:1">
          <use
             id="use3463"
             y="134.765"
             x="223.43201"
             xlink:href="#textext-535ad805-0"
             width="744.09448"
             height="1052.3622" />
        </g>
        <g
           id="g3465"
           style="fill:#000000;fill-opacity:1">
          <use
             id="use3467"
             y="136.259"
             x="229.412"
             xlink:href="#textext-535ad805-1"
             width="744.09448"
             height="1052.3622" />
        </g>
      </g>
    </g>
    <g
       clip-path="url(#clipPath6805)"
       ns0:text="$n_{1}$"
       ns0:preamble=""
       transform="matrix(2.9887142,0,0,2.9887142,-608.66169,145.12297)"
       id="g3685">
      <defs
         id="defs3687">
        <g
           id="g3689">
          <symbol
             style="overflow:visible"
             overflow="visible"
             id="textext-11a7cd8d-0">
            <path
               inkscape:connector-curvature="0"
               style="stroke:none"
               d="m 0.875,-0.59375 c -0.03125,0.15625 -0.09375,0.390625 -0.09375,0.4375 0,0.171875 0.140625,0.265625 0.296875,0.265625 0.125,0 0.296875,-0.078125 0.375,-0.28125 0,-0.015625 0.125,-0.484375 0.1875,-0.734375 l 0.21875,-0.890625 C 1.90625,-2.03125 1.96875,-2.25 2.03125,-2.46875 c 0.03125,-0.171875 0.109375,-0.46875 0.125,-0.5 0.140625,-0.3125 0.671875,-1.21875 1.625,-1.21875 0.453125,0 0.53125,0.375 0.53125,0.703125 0,0.609375 -0.484375,1.890625 -0.640625,2.3125 C 3.578125,-0.9375 3.5625,-0.8125 3.5625,-0.703125 c 0,0.46875 0.359375,0.8125 0.828125,0.8125 0.9375,0 1.296875,-1.453125 1.296875,-1.53125 0,-0.109375 -0.078125,-0.109375 -0.109375,-0.109375 -0.109375,0 -0.109375,0.03125 -0.15625,0.1875 -0.203125,0.671875 -0.53125,1.234375 -1.015625,1.234375 -0.171875,0 -0.234375,-0.09375 -0.234375,-0.328125 0,-0.25 0.078125,-0.484375 0.171875,-0.703125 0.1875,-0.53125 0.609375,-1.625 0.609375,-2.203125 0,-0.65625 -0.421875,-1.0625 -1.140625,-1.0625 -0.90625,0 -1.390625,0.640625 -1.5625,0.875 -0.046875,-0.5625 -0.453125,-0.875 -0.921875,-0.875 -0.453125,0 -0.640625,0.390625 -0.734375,0.5625 C 0.421875,-3.5 0.296875,-2.90625 0.296875,-2.875 c 0,0.109375 0.09375,0.109375 0.109375,0.109375 0.109375,0 0.109375,-0.015625 0.171875,-0.234375 0.171875,-0.703125 0.375,-1.1875 0.734375,-1.1875 0.1875,0 0.296875,0.125 0.296875,0.453125 0,0.21875 -0.03125,0.328125 -0.15625,0.84375 z m 0,0"
               id="path3692" />
          </symbol>
          <symbol
             style="overflow:visible"
             overflow="visible"
             id="textext-11a7cd8d-1">
            <path
               inkscape:connector-curvature="0"
               style="stroke:none"
               d="m 2.328125,-4.4375 c 0,-0.1875 0,-0.1875 -0.203125,-0.1875 -0.453125,0.4375 -1.078125,0.4375 -1.359375,0.4375 l 0,0.25 c 0.15625,0 0.625,0 1,-0.1875 l 0,3.546875 c 0,0.234375 0,0.328125 -0.6875,0.328125 l -0.265625,0 0,0.25 c 0.125,0 0.984375,-0.03125 1.234375,-0.03125 0.21875,0 1.09375,0.03125 1.25,0.03125 l 0,-0.25 -0.265625,0 c -0.703125,0 -0.703125,-0.09375 -0.703125,-0.328125 z m 0,0"
               id="path3695" />
          </symbol>
        </g>
      </defs>
      <g
         id="textext-11a7cd8d-2">
        <g
           style="fill:#000000;fill-opacity:1"
           id="g3698">
          <use
             height="1052.3622"
             width="744.09448"
             xlink:href="#textext-11a7cd8d-0"
             x="223.43201"
             y="134.765"
             id="use3700" />
        </g>
        <g
           style="fill:#000000;fill-opacity:1"
           id="g3702">
          <use
             height="1052.3622"
             width="744.09448"
             xlink:href="#textext-11a7cd8d-1"
             x="229.412"
             y="136.259"
             id="use3704" />
        </g>
      </g>
    </g>
    <rect
       clip-path="url(#clipPath6801)"
       y="442.76636"
       x="130.42485"
       height="59.191658"
       width="219.55603"
       id="rect3082"
       style="fill:none;stroke:#000000;stroke-width:1.05;stroke-opacity:1;stroke-miterlimit:4;stroke-dasharray:4.2,1.05;stroke-dashoffset:0" />
    <g
       clip-path="url(#clipPath6797)"
       id="g3917"
       ns0:preamble=""
       ns0:text="$C$"
       transform="matrix(2.8256071,0,0,2.8256071,-469.17245,45.236858)">
      <defs
         id="defs3919">
        <g
           id="g3921">
          <symbol
             id="textext-985e667b-0"
             overflow="visible"
             style="overflow:visible">
            <path
               id="path3924"
               d="m 7.578125,-6.921875 c 0,-0.03125 -0.015625,-0.109375 -0.109375,-0.109375 -0.03125,0 -0.046875,0.015625 -0.15625,0.125 L 6.625,-6.140625 C 6.53125,-6.28125 6.078125,-7.03125 4.96875,-7.03125 2.734375,-7.03125 0.5,-4.828125 0.5,-2.515625 0.5,-0.875 1.671875,0.21875 3.203125,0.21875 c 0.859375,0 1.625,-0.390625 2.15625,-0.859375 0.921875,-0.8125 1.09375,-1.71875 1.09375,-1.75 C 6.453125,-2.5 6.34375,-2.5 6.328125,-2.5 c -0.0625,0 -0.109375,0.03125 -0.125,0.109375 -0.09375,0.28125 -0.328125,1 -1.015625,1.578125 -0.6875,0.546875 -1.3125,0.71875 -1.828125,0.71875 -0.890625,0 -1.953125,-0.515625 -1.953125,-2.0625 0,-0.578125 0.203125,-2.1875 1.203125,-3.359375 0.609375,-0.703125 1.546875,-1.203125 2.4375,-1.203125 1.015625,0 1.609375,0.765625 1.609375,1.921875 0,0.40625 -0.03125,0.40625 -0.03125,0.515625 0,0.09375 0.109375,0.09375 0.140625,0.09375 0.125,0 0.125,-0.015625 0.1875,-0.203125 z m 0,0"
               style="stroke:none"
               inkscape:connector-curvature="0" />
          </symbol>
        </g>
      </defs>
      <g
         id="textext-985e667b-1">
        <g
           id="g3927"
           style="fill:#000000;fill-opacity:1">
          <use
             id="use3929"
             y="134.765"
             x="223.43201"
             xlink:href="#textext-985e667b-0"
             width="744.09448"
             height="1052.3622" />
        </g>
      </g>
    </g>
    <path
       clip-path="url(#clipPath6793)"
       style="fill:none;stroke:#000000;stroke-width:1.39999998;stroke-linecap:butt;stroke-linejoin:miter;stroke-miterlimit:4;stroke-opacity:1;stroke-dasharray:none;marker-end:url(#TriangleOutM)"
       d="m 240,462.36218 90,-140"
       id="path3802-2"
       inkscape:connector-curvature="0"
       sodipodi:nodetypes="cc" />
    <g
       clip-path="url(#clipPath6789)"
       ns0:text="$\\mathbf{E}_{0}$"
       ns0:preamble=""
       transform="matrix(2.3764602,0,0,2.3764602,-201.69098,-7.5003897)"
       id="g4924">
      <defs
         id="defs4926">
        <g
           id="g4928">
          <symbol
             style="overflow:visible"
             overflow="visible"
             id="textext-a995c736-0">
            <path
               inkscape:connector-curvature="0"
               style="stroke:none"
               d="m 7.203125,-2.734375 -0.46875,0 c -0.21875,1.375 -0.5,2.265625 -2.34375,2.265625 l -1.515625,0 0,-2.8125 0.546875,0 c 0.96875,0 1.0625,0.4375 1.0625,1.171875 l 0.46875,0 0,-2.8125 -0.46875,0 c 0,0.75 -0.09375,1.171875 -1.0625,1.171875 l -0.546875,0 0,-2.5625 1.515625,0 c 1.609375,0 1.875,0.734375 2.03125,1.9375 l 0.46875,0 -0.3125,-2.40625 -6.1875,0 0,0.46875 1.078125,0 0,5.84375 -1.078125,0 0,0.46875 L 6.75,0 z m 0,0"
               id="path4931" />
          </symbol>
          <symbol
             style="overflow:visible"
             overflow="visible"
             id="textext-a995c736-1">
            <path
               inkscape:connector-curvature="0"
               style="stroke:none"
               d="M 3.59375,-2.21875 C 3.59375,-2.984375 3.5,-3.546875 3.1875,-4.03125 2.96875,-4.34375 2.53125,-4.625 1.984375,-4.625 c -1.625,0 -1.625,1.90625 -1.625,2.40625 0,0.5 0,2.359375 1.625,2.359375 1.609375,0 1.609375,-1.859375 1.609375,-2.359375 z M 1.984375,-0.0625 c -0.328125,0 -0.75,-0.1875 -0.890625,-0.75 C 1,-1.21875 1,-1.796875 1,-2.3125 1,-2.828125 1,-3.359375 1.09375,-3.734375 1.25,-4.28125 1.6875,-4.4375 1.984375,-4.4375 c 0.375,0 0.734375,0.234375 0.859375,0.640625 0.109375,0.375 0.125,0.875 0.125,1.484375 0,0.515625 0,1.03125 -0.09375,1.46875 -0.140625,0.640625 -0.609375,0.78125 -0.890625,0.78125 z m 0,0"
               id="path4934" />
          </symbol>
        </g>
      </defs>
      <g
         id="textext-a995c736-2">
        <g
           style="fill:#000000;fill-opacity:1"
           id="g4937">
          <use
             height="1052.3622"
             width="744.09448"
             xlink:href="#textext-a995c736-0"
             x="223.43201"
             y="134.765"
             id="use4939" />
        </g>
        <g
           style="fill:#000000;fill-opacity:1"
           id="g4941">
          <use
             height="1052.3622"
             width="744.09448"
             xlink:href="#textext-a995c736-1"
             x="230.959"
             y="136.259"
             id="use4943" />
        </g>
      </g>
    </g>
    <g
       clip-path="url(#clipPath6785)"
       id="g5132"
       transform="matrix(2.3764602,0,0,2.3764602,-201.79828,74.928182)"
       ns0:preamble=""
       ns0:text="$\\mathbf{E}_{1}$">
      <defs
         id="defs5134">
        <g
           id="g5136">
          <symbol
             id="textext-12220c6e-0"
             overflow="visible">
            <path
               id="path5139"
               d="M 7.203125 -2.734375 L 6.734375 -2.734375 C 6.515625 -1.359375 6.234375 -0.46875 4.390625 -0.46875 L 2.875 -0.46875 L 2.875 -3.28125 L 3.421875 -3.28125 C 4.390625 -3.28125 4.484375 -2.84375 4.484375 -2.109375 L 4.953125 -2.109375 L 4.953125 -4.921875 L 4.484375 -4.921875 C 4.484375 -4.171875 4.390625 -3.75 3.421875 -3.75 L 2.875 -3.75 L 2.875 -6.3125 L 4.390625 -6.3125 C 6 -6.3125 6.265625 -5.578125 6.421875 -4.375 L 6.890625 -4.375 L 6.578125 -6.78125 L 0.390625 -6.78125 L 0.390625 -6.3125 L 1.46875 -6.3125 L 1.46875 -0.46875 L 0.390625 -0.46875 L 0.390625 0 L 6.75 0 Z M 7.203125 -2.734375 "
               style="stroke:none;" />
          </symbol>
          <symbol
             id="textext-12220c6e-1"
             overflow="visible">
            <path
               id="path5142"
               d="M 2.328125 -4.4375 C 2.328125 -4.625 2.328125 -4.625 2.125 -4.625 C 1.671875 -4.1875 1.046875 -4.1875 0.765625 -4.1875 L 0.765625 -3.9375 C 0.921875 -3.9375 1.390625 -3.9375 1.765625 -4.125 L 1.765625 -0.578125 C 1.765625 -0.34375 1.765625 -0.25 1.078125 -0.25 L 0.8125 -0.25 L 0.8125 0 C 0.9375 0 1.796875 -0.03125 2.046875 -0.03125 C 2.265625 -0.03125 3.140625 0 3.296875 0 L 3.296875 -0.25 L 3.03125 -0.25 C 2.328125 -0.25 2.328125 -0.34375 2.328125 -0.578125 Z M 2.328125 -4.4375 "
               style="stroke:none;" />
          </symbol>
        </g>
      </defs>
      <g
         id="textext-12220c6e-2">
        <g
           id="g5145"
           style="fill:rgb(0%,0%,0%);fill-opacity:1;">
          <use
             id="use5147"
             y="134.765"
             x="223.432"
             xlink:href="#textext-12220c6e-0" />
        </g>
        <g
           id="g5149"
           style="fill:rgb(0%,0%,0%);fill-opacity:1;">
          <use
             id="use5151"
             y="136.259"
             x="230.959"
             xlink:href="#textext-12220c6e-1" />
        </g>
      </g>
    </g>
    <g
       id="g3290"
       transform="matrix(1.8157616,0,0,1.8157616,-183.48684,191.74697)"
       ns0:preamble="/home/andrerei/.config/inkscape/extensions/preamble.inc"
       ns0:text="$\\mathbf{l}_{3}$">
      <defs
         id="defs3292">
        <g
           id="g3294">
          <symbol
             id="textext-faa7613d-0"
             overflow="visible">
            <path
               id="path3297"
               d="M 2.234375 -6.921875 L 0.46875 -6.84375 L 0.46875 -6.375 C 1.09375 -6.375 1.15625 -6.375 1.15625 -5.984375 L 1.15625 -0.46875 L 0.46875 -0.46875 L 0.46875 0 C 0.78125 -0.015625 1.265625 -0.03125 1.6875 -0.03125 C 2.125 -0.03125 2.578125 -0.015625 2.921875 0 L 2.921875 -0.46875 L 2.234375 -0.46875 Z M 2.234375 -6.921875 "
               style="stroke:none;" />
          </symbol>
          <symbol
             id="textext-faa7613d-1"
             overflow="visible">
            <path
               id="path3300"
               d="M 1.90625 -2.328125 C 2.453125 -2.328125 2.84375 -1.953125 2.84375 -1.203125 C 2.84375 -0.34375 2.328125 -0.078125 1.9375 -0.078125 C 1.65625 -0.078125 1.03125 -0.15625 0.75 -0.578125 C 1.078125 -0.578125 1.15625 -0.8125 1.15625 -0.96875 C 1.15625 -1.1875 0.984375 -1.34375 0.765625 -1.34375 C 0.578125 -1.34375 0.375 -1.21875 0.375 -0.9375 C 0.375 -0.28125 1.09375 0.140625 1.9375 0.140625 C 2.90625 0.140625 3.578125 -0.515625 3.578125 -1.203125 C 3.578125 -1.75 3.140625 -2.296875 2.375 -2.453125 C 3.09375 -2.71875 3.359375 -3.234375 3.359375 -3.671875 C 3.359375 -4.21875 2.734375 -4.625 1.953125 -4.625 C 1.1875 -4.625 0.59375 -4.25 0.59375 -3.6875 C 0.59375 -3.453125 0.75 -3.328125 0.953125 -3.328125 C 1.171875 -3.328125 1.3125 -3.484375 1.3125 -3.671875 C 1.3125 -3.875 1.171875 -4.03125 0.953125 -4.046875 C 1.203125 -4.34375 1.671875 -4.421875 1.9375 -4.421875 C 2.25 -4.421875 2.6875 -4.265625 2.6875 -3.671875 C 2.6875 -3.375 2.59375 -3.046875 2.40625 -2.84375 C 2.1875 -2.578125 1.984375 -2.5625 1.640625 -2.53125 C 1.46875 -2.515625 1.453125 -2.515625 1.421875 -2.515625 C 1.40625 -2.515625 1.34375 -2.5 1.34375 -2.421875 C 1.34375 -2.328125 1.40625 -2.328125 1.53125 -2.328125 Z M 1.90625 -2.328125 "
               style="stroke:none;" />
          </symbol>
        </g>
      </defs>
      <g
         id="textext-faa7613d-2">
        <g
           id="g3303"
           style="fill:rgb(0%,0%,0%);fill-opacity:1;">
          <use
             id="use3305"
             y="134.765"
             x="223.432"
             xlink:href="#textext-faa7613d-0" />
        </g>
        <g
           id="g3307"
           style="fill:rgb(0%,0%,0%);fill-opacity:1;">
          <use
             id="use3309"
             y="136.259"
             x="226.615"
             xlink:href="#textext-faa7613d-1" />
        </g>
      </g>
    </g>
    <g
       ns0:text="$\\mathbf{l}_{2}$"
       ns0:preamble="/home/andrerei/.config/inkscape/extensions/preamble.inc"
       transform="matrix(1.8157616,0,0,1.8157616,-50.629703,221.74697)"
       id="g3621">
      <defs
         id="defs3623">
        <g
           id="g3625">
          <symbol
             overflow="visible"
             id="textext-baacc844-0">
            <path
               style="stroke:none;"
               d="M 2.234375 -6.921875 L 0.46875 -6.84375 L 0.46875 -6.375 C 1.09375 -6.375 1.15625 -6.375 1.15625 -5.984375 L 1.15625 -0.46875 L 0.46875 -0.46875 L 0.46875 0 C 0.78125 -0.015625 1.265625 -0.03125 1.6875 -0.03125 C 2.125 -0.03125 2.578125 -0.015625 2.921875 0 L 2.921875 -0.46875 L 2.234375 -0.46875 Z M 2.234375 -6.921875 "
               id="path3628" />
          </symbol>
          <symbol
             overflow="visible"
             id="textext-baacc844-1">
            <path
               style="stroke:none;"
               d="M 3.515625 -1.265625 L 3.28125 -1.265625 C 3.265625 -1.109375 3.1875 -0.703125 3.09375 -0.640625 C 3.046875 -0.59375 2.515625 -0.59375 2.40625 -0.59375 L 1.125 -0.59375 C 1.859375 -1.234375 2.109375 -1.4375 2.515625 -1.765625 C 3.03125 -2.171875 3.515625 -2.609375 3.515625 -3.265625 C 3.515625 -4.109375 2.78125 -4.625 1.890625 -4.625 C 1.03125 -4.625 0.4375 -4.015625 0.4375 -3.375 C 0.4375 -3.03125 0.734375 -2.984375 0.8125 -2.984375 C 0.96875 -2.984375 1.171875 -3.109375 1.171875 -3.359375 C 1.171875 -3.484375 1.125 -3.734375 0.765625 -3.734375 C 0.984375 -4.21875 1.453125 -4.375 1.78125 -4.375 C 2.484375 -4.375 2.84375 -3.828125 2.84375 -3.265625 C 2.84375 -2.65625 2.40625 -2.1875 2.1875 -1.9375 L 0.515625 -0.265625 C 0.4375 -0.203125 0.4375 -0.1875 0.4375 0 L 3.3125 0 Z M 3.515625 -1.265625 "
               id="path3631" />
          </symbol>
        </g>
      </defs>
      <g
         id="textext-baacc844-2">
        <g
           style="fill:rgb(0%,0%,0%);fill-opacity:1;"
           id="g3634">
          <use
             xlink:href="#textext-baacc844-0"
             x="223.432"
             y="134.765"
             id="use3636" />
        </g>
        <g
           style="fill:rgb(0%,0%,0%);fill-opacity:1;"
           id="g3638">
          <use
             xlink:href="#textext-baacc844-1"
             x="226.615"
             y="136.259"
             id="use3640" />
        </g>
      </g>
    </g>
    <g
       id="g3952"
       transform="matrix(1.8157616,0,0,1.8157616,-161.90985,275.7105)"
       ns0:preamble="/home/andrerei/.config/inkscape/extensions/preamble.inc"
       ns0:text="$\\mathbf{l}_{1}$">
      <defs
         id="defs3954">
        <g
           id="g3956">
          <symbol
             id="textext-f3a3ad5a-0"
             overflow="visible">
            <path
               id="path3959"
               d="M 2.234375 -6.921875 L 0.46875 -6.84375 L 0.46875 -6.375 C 1.09375 -6.375 1.15625 -6.375 1.15625 -5.984375 L 1.15625 -0.46875 L 0.46875 -0.46875 L 0.46875 0 C 0.78125 -0.015625 1.265625 -0.03125 1.6875 -0.03125 C 2.125 -0.03125 2.578125 -0.015625 2.921875 0 L 2.921875 -0.46875 L 2.234375 -0.46875 Z M 2.234375 -6.921875 "
               style="stroke:none;" />
          </symbol>
          <symbol
             id="textext-f3a3ad5a-1"
             overflow="visible">
            <path
               id="path3962"
               d="M 2.328125 -4.4375 C 2.328125 -4.625 2.328125 -4.625 2.125 -4.625 C 1.671875 -4.1875 1.046875 -4.1875 0.765625 -4.1875 L 0.765625 -3.9375 C 0.921875 -3.9375 1.390625 -3.9375 1.765625 -4.125 L 1.765625 -0.578125 C 1.765625 -0.34375 1.765625 -0.25 1.078125 -0.25 L 0.8125 -0.25 L 0.8125 0 C 0.9375 0 1.796875 -0.03125 2.046875 -0.03125 C 2.265625 -0.03125 3.140625 0 3.296875 0 L 3.296875 -0.25 L 3.03125 -0.25 C 2.328125 -0.25 2.328125 -0.34375 2.328125 -0.578125 Z M 2.328125 -4.4375 "
               style="stroke:none;" />
          </symbol>
        </g>
      </defs>
      <g
         id="textext-f3a3ad5a-2">
        <g
           id="g3965"
           style="fill:rgb(0%,0%,0%);fill-opacity:1;">
          <use
             id="use3967"
             y="134.765"
             x="223.432"
             xlink:href="#textext-f3a3ad5a-0" />
        </g>
        <g
           id="g3969"
           style="fill:rgb(0%,0%,0%);fill-opacity:1;">
          <use
             id="use3971"
             y="136.259"
             x="226.615"
             xlink:href="#textext-f3a3ad5a-1" />
        </g>
      </g>
    </g>
    <g
       ns0:text="$\\mathbf{l}_{0}$"
       ns0:preamble="/home/andrerei/.config/inkscape/extensions/preamble.inc"
       transform="matrix(1.8157616,0,0,1.8157616,-291.34399,244.60412)"
       id="g4283">
      <defs
         id="defs4285">
        <g
           id="g4287">
          <symbol
             overflow="visible"
             id="textext-311a91d2-0">
            <path
               style="stroke:none;"
               d="M 2.234375 -6.921875 L 0.46875 -6.84375 L 0.46875 -6.375 C 1.09375 -6.375 1.15625 -6.375 1.15625 -5.984375 L 1.15625 -0.46875 L 0.46875 -0.46875 L 0.46875 0 C 0.78125 -0.015625 1.265625 -0.03125 1.6875 -0.03125 C 2.125 -0.03125 2.578125 -0.015625 2.921875 0 L 2.921875 -0.46875 L 2.234375 -0.46875 Z M 2.234375 -6.921875 "
               id="path4290" />
          </symbol>
          <symbol
             overflow="visible"
             id="textext-311a91d2-1">
            <path
               style="stroke:none;"
               d="M 3.59375 -2.21875 C 3.59375 -2.984375 3.5 -3.546875 3.1875 -4.03125 C 2.96875 -4.34375 2.53125 -4.625 1.984375 -4.625 C 0.359375 -4.625 0.359375 -2.71875 0.359375 -2.21875 C 0.359375 -1.71875 0.359375 0.140625 1.984375 0.140625 C 3.59375 0.140625 3.59375 -1.71875 3.59375 -2.21875 Z M 1.984375 -0.0625 C 1.65625 -0.0625 1.234375 -0.25 1.09375 -0.8125 C 1 -1.21875 1 -1.796875 1 -2.3125 C 1 -2.828125 1 -3.359375 1.09375 -3.734375 C 1.25 -4.28125 1.6875 -4.4375 1.984375 -4.4375 C 2.359375 -4.4375 2.71875 -4.203125 2.84375 -3.796875 C 2.953125 -3.421875 2.96875 -2.921875 2.96875 -2.3125 C 2.96875 -1.796875 2.96875 -1.28125 2.875 -0.84375 C 2.734375 -0.203125 2.265625 -0.0625 1.984375 -0.0625 Z M 1.984375 -0.0625 "
               id="path4293" />
          </symbol>
        </g>
      </defs>
      <g
         id="textext-311a91d2-2">
        <g
           style="fill:rgb(0%,0%,0%);fill-opacity:1;"
           id="g4296">
          <use
             xlink:href="#textext-311a91d2-0"
             x="223.432"
             y="134.765"
             id="use4298" />
        </g>
        <g
           style="fill:rgb(0%,0%,0%);fill-opacity:1;"
           id="g4300">
          <use
             xlink:href="#textext-311a91d2-1"
             x="226.615"
             y="136.259"
             id="use4302" />
        </g>
      </g>
    </g>
    <rect
       style="opacity:0.9111969;fill:#ffffff;fill-opacity:1;stroke:none"
       id="rect3532"
       width="19.285715"
       height="22.142857"
       x="198.57143"
       y="461.64789" />
    <g
       id="g3348"
       transform="matrix(2.8256071,0,0,2.8256071,-433.45815,101.19397)"
       ns0:preamble="/home/andrerei/.config/inkscape/extensions/preamble.inc"
       ns0:text="$S$">
      <defs
         id="defs3350">
        <g
           id="g3352">
          <symbol
             id="textext-2f513bb0-0"
             overflow="visible"
             style="overflow:visible">
            <path
               id="path3355"
               d="m 6.4375,-6.921875 c 0,-0.03125 -0.03125,-0.109375 -0.125,-0.109375 -0.046875,0 -0.046875,0.015625 -0.171875,0.15625 L 5.65625,-6.3125 c -0.25,-0.46875 -0.765625,-0.71875 -1.421875,-0.71875 -1.265625,0 -2.453125,1.15625 -2.453125,2.359375 0,0.796875 0.515625,1.265625 1.03125,1.40625 l 1.0625,0.28125 c 0.375,0.09375 0.921875,0.25 0.921875,1.0625 0,0.890625 -0.8125,1.828125 -1.796875,1.828125 -0.640625,0 -1.75,-0.21875 -1.75,-1.453125 0,-0.234375 0.0625,-0.484375 0.0625,-0.53125 0.015625,-0.046875 0.015625,-0.0625 0.015625,-0.078125 0,-0.09375 -0.0625,-0.109375 -0.109375,-0.109375 -0.046875,0 -0.078125,0.015625 -0.109375,0.046875 -0.03125,0.03125 -0.59375,2.3125 -0.59375,2.34375 0,0.046875 0.046875,0.09375 0.109375,0.09375 0.046875,0 0.0625,-0.015625 0.1875,-0.15625 L 1.296875,-0.5 c 0.421875,0.578125 1.109375,0.71875 1.6875,0.71875 1.359375,0 2.53125,-1.328125 2.53125,-2.5625 0,-0.6875 -0.34375,-1.03125 -0.484375,-1.171875 C 4.796875,-3.734375 4.640625,-3.78125 3.765625,-4 3.53125,-4.0625 3.1875,-4.171875 3.09375,-4.1875 2.828125,-4.28125 2.484375,-4.5625 2.484375,-5.09375 c 0,-0.8125 0.796875,-1.65625 1.75,-1.65625 0.8125,0 1.421875,0.4375 1.421875,1.546875 0,0.3125 -0.03125,0.5 -0.03125,0.5625 0,0 0,0.09375 0.109375,0.09375 0.109375,0 0.125,-0.03125 0.15625,-0.203125 z m 0,0"
               style="stroke:none"
               inkscape:connector-curvature="0" />
          </symbol>
        </g>
      </defs>
      <g
         id="textext-2f513bb0-1">
        <g
           id="g3358"
           style="fill:#000000;fill-opacity:1">
          <use
             id="use3360"
             y="134.765"
             x="223.43201"
             xlink:href="#textext-2f513bb0-0"
             width="744.09448"
             height="1052.3622" />
        </g>
      </g>
    </g>
  </g>
</svg>
