<?xml version="1.0" encoding="UTF-8" standalone="no"?>
<!-- Created with Inkscape (http://www.inkscape.org/) -->

<svg
   xmlns:ns0="http://www.iki.fi/pav/software/textext/"
   xmlns:dc="http://purl.org/dc/elements/1.1/"
   xmlns:cc="http://creativecommons.org/ns#"
   xmlns:rdf="http://www.w3.org/1999/02/22-rdf-syntax-ns#"
   xmlns:svg="http://www.w3.org/2000/svg"
   xmlns="http://www.w3.org/2000/svg"
   xmlns:xlink="http://www.w3.org/1999/xlink"
   xmlns:sodipodi="http://sodipodi.sourceforge.net/DTD/sodipodi-0.dtd"
   xmlns:inkscape="http://www.inkscape.org/namespaces/inkscape"
   width="744.09448819"
   height="1052.3622047"
   id="svg2"
   version="1.1"
   inkscape:version="0.48.1 r9760"
   sodipodi:docname="fractal.pdf">
  <sodipodi:namedview
     id="base"
     pagecolor="#ffffff"
     bordercolor="#666666"
     borderopacity="1.0"
     inkscape:pageopacity="0.0"
     inkscape:pageshadow="2"
     inkscape:zoom="1.979899"
     inkscape:cx="298.78006"
     inkscape:cy="793.87961"
     inkscape:document-units="px"
     inkscape:current-layer="layer1"
     showgrid="false"
     inkscape:window-width="1920"
     inkscape:window-height="1125"
     inkscape:window-x="0"
     inkscape:window-y="25"
     inkscape:window-maximized="1">
    <inkscape:grid
       type="xygrid"
       id="grid2987" />
  </sodipodi:namedview>
  <defs
     id="defs4">
    <inkscape:path-effect
       effect="spiro"
       id="path-effect2999"
       is_visible="true" />
    <inkscape:path-effect
       effect="spiro"
       id="path-effect2995"
       is_visible="true" />
    <inkscape:path-effect
       effect="spiro"
       id="path-effect2991"
       is_visible="true" />
  </defs>
  <metadata
     id="metadata7">
    <rdf:RDF>
      <cc:Work
         rdf:about="">
        <dc:format>image/svg+xml</dc:format>
        <dc:type
           rdf:resource="http://purl.org/dc/dcmitype/StillImage" />
        <dc:title></dc:title>
      </cc:Work>
    </rdf:RDF>
  </metadata>
  <g
     inkscape:label="Layer 1"
     inkscape:groupmode="layer"
     id="layer1">
    <rect
       style="fill:#000000;fill-opacity:1;stroke:none"
       id="rect4944"
       width="448.32388"
       height="77.154114"
       x="56.86441"
       y="270.3562" />
    <rect
       style="fill:#ffffff;fill-opacity:1;stroke:none"
       id="rect2985-1-3-9"
       width="220"
       height="35"
       x="283.14282"
       y="310.22437" />
    <rect
       style="fill:#ffffff;fill-opacity:1;stroke:none"
       id="rect2985-6"
       width="220"
       height="35"
       x="59.714283"
       y="310.22437" />
    <rect
       style="fill:#ffffff;fill-opacity:1;stroke:none"
       id="rect2985-1-85"
       width="220"
       height="35"
       x="59.714283"
       y="272.35712" />
    <rect
       style="fill:#ffffff;fill-opacity:1;stroke:none"
       id="rect2985-1-8-3"
       width="220"
       height="35"
       x="283.14282"
       y="272.36725" />
    <rect
       style="fill:#c1dcff;fill-opacity:0.28235294;stroke:none"
       id="rect2985-1-3"
       width="220"
       height="35"
       x="283.42853"
       y="310.2193" />
    <rect
       style="fill:#c1dcff;fill-opacity:0.28235294;stroke:none"
       id="rect2985"
       width="220"
       height="35"
       x="60"
       y="310.2193" />
    <rect
       style="fill:#c1dcff;fill-opacity:0.28235295;stroke:none"
       id="rect2985-1"
       width="220"
       height="35"
       x="60"
       y="272.35205" />
    <rect
       style="fill:#c1dcff;fill-opacity:0.28235294;stroke:none"
       id="rect2985-1-8"
       width="220"
       height="35"
       x="283.42853"
       y="272.36218" />
    <path
       style="fill:#241c1c;fill-opacity:0.28235294000000000;stroke:none"
       d="m 115.68182,285.99965 c -7.51775,1.86021 -15.01551,5.09437 -22.949398,3.67759 -10.735201,-1.88855 -21.885993,-5.30374 -32.735256,-2.09922 -0.69825,6.29078 -0.100563,13.01814 -0.299889,19.477 3.32939,0.94675 7.396407,0.1127 11.001192,0.39459 69.700531,0 139.401051,0 209.101581,0 0.91234,-3.2779 0.17617,-7.27133 0.36302,-10.82757 -0.12653,-1.57953 0.40871,-4.82657 -2.22549,-4.18267 -7.15259,-0.66544 -13.79021,-3.43745 -20.77126,-4.78244 -11.17942,-0.40137 -21.8488,4.54465 -33.05093,4.30894 -6.19208,0.30681 -12.16932,-1.05172 -17.91443,-3.20408 -6.43576,-2.29444 -12.62657,1.17755 -18.90879,1.84668 -6.95029,0.89322 -12.99279,-4.61379 -20.01365,-2.91997 -7.19321,1.37841 -13.98034,4.7043 -21.48152,4.19845 -9.09563,0.71945 -18.15865,-1.18479 -26.30833,-5.04498 -1.23004,-0.37205 -2.49313,-0.98986 -3.80685,-0.84232 z"
       id="path3935"
       inkscape:connector-curvature="0" />
    <path
       style="fill:#241c1c;fill-opacity:0.28235294000000000;stroke:none"
       d="m 290.8692,290.27702 c -2.33987,1.47027 -7.28333,0.8993 -7.78133,3.86699 0.26575,4.3796 -0.52871,9.19836 0.39459,13.3056 73.23606,0 146.47212,0 219.70818,0 0.85796,-2.9208 0.28962,-6.56461 0.25254,-9.75429 -0.47727,-2.34153 -3.00895,0.57555 -4.41942,-0.56821 -3.80104,-1.83072 -6.67837,-5.60717 -10.59082,-7.10263 -1.45793,0.64324 -1.24688,4.17907 -3.46565,2.33878 -3.01091,-0.93395 -5.97717,-2.33685 -9.0192,-2.98591 -4.51494,2.63243 -8.81394,6.01608 -13.46344,8.19171 -3.28529,-0.40817 -7.17789,0.83312 -10.06554,-0.65505 -1.81813,-1.06753 -3.30338,-3.69971 -5.48134,-3.78016 -1.96654,1.46728 -2.80652,4.35225 -4.79823,5.57163 -3.83456,-2.92875 -7.62673,-6.45978 -11.77459,-8.91776 -4.01922,1.40509 -7.17149,4.68846 -11.55362,5.31909 -4.61056,1.06117 -9.36984,2.75845 -14.00081,3.26704 -3.68966,-0.97208 -7.23064,-3.41962 -11.01763,-3.44433 -4.58115,0.39155 -9.20518,2.33542 -13.79351,1.78722 -1.67501,-1.10306 -1.84415,-4.25079 -3.94591,-4.65617 -3.62351,1.83286 -6.60146,5.05916 -10.36985,6.50285 -9.65245,-2.2258 -18.71321,-7.03683 -28.33162,-9.29656 -1.91362,2.07727 -2.9795,5.35831 -6.3089,5.5241 -3.66694,0.90338 -7.50834,2.72088 -11.18785,0.81174 -7.33192,-2.098 -14.46816,-4.84441 -21.45726,-7.78793 -2.50959,0.82075 -5.01919,1.6415 -7.52879,2.46225 z"
       id="path3937"
       inkscape:connector-curvature="0" />
    <path
       style="fill:#241c1c;fill-opacity:0.28235294000000000;stroke:none"
       d="m 115.98171,315.31359 c -4.43054,1.80874 -6.29218,7.04791 -9.51753,10.25937 -2.80333,3.89152 -7.882704,7.44291 -12.690038,5.20859 -7.714982,-4.44284 -12.807545,-14.02635 -22.381193,-15.10493 -4.841054,-0.3207 -8.733137,3.26502 -11.695672,6.5502 0,7.5288 0,15.05759 0,22.58638 3.32939,0.94675 7.396407,0.11271 11.001192,0.3946 69.700531,0 139.401051,0 209.101581,0 1.59272,-2.57135 -0.97516,-5.26784 -3.42505,-6.06092 -6.29238,-2.24818 -10.15384,-7.46465 -13.8896,-12.72161 -2.24034,-2.3762 -4.50592,-6.98646 -8.42846,-6.06091 -9.92138,4.88523 -16.64599,15.02355 -27.30569,18.52998 -5.08555,1.54152 -10.65808,-0.29045 -13.77911,-4.57725 -3.80143,-3.88319 -5.983,-9.69702 -10.92227,-12.37437 -3.56817,-0.85586 -5.41204,3.4394 -7.68663,5.398 -2.65548,3.08854 -6.30671,8.00917 -11.00119,6.01357 -5.44507,-3.06735 -6.31219,-10.97266 -12.16919,-13.65285 -4.34989,0.30991 -6.93237,4.76666 -9.81696,7.54727 -4.14582,4.37525 -7.70609,10.8485 -14.09524,11.94552 -6.46377,0.31264 -13.6253,-0.86508 -17.89864,-6.21875 -4.81,-4.99623 -7.16773,-11.93195 -11.77459,-17.09368 -0.47377,-0.31772 -1.02631,-0.67774 -1.62572,-0.56821 z"
       id="path3943"
       inkscape:connector-curvature="0" />
    <path
       style="fill:#241c1c;fill-opacity:0.28235294000000000;stroke:none"
       d="m 291.29536,321.26402 c -2.41938,2.12639 -5.4666,3.74419 -7.76555,5.90308 -0.90565,5.8074 -0.22764,11.77865 -0.44194,17.6461 3.32939,0.94675 7.39641,0.11271 11.00119,0.3946 69.70053,0 139.40105,0 209.10158,0 0.9486,-2.83933 0.10283,-6.42192 0.39459,-9.53332 -1.43835,-0.8425 -2.80895,2.15941 -4.5299,2.46225 -3.44082,-5.76368 -6.51217,-11.77355 -10.27515,-17.33043 -1.68619,0.0432 -1.09854,3.04509 -1.65728,4.23001 -0.0935,1.92618 -0.5966,3.17702 -2.17377,1.34106 -3.01492,-2.05817 -5.58474,-5.0489 -8.98526,-6.4076 -5.01143,5.6563 -8.67737,12.86949 -14.00008,18.16696 -2.92639,-0.72138 -6.56969,0.34712 -9.07682,-0.7296 -1.98508,-3.1057 -3.15987,-7.0688 -5.74401,-9.65603 -1.85833,2.01951 -2.01143,5.46592 -3.14095,8.0023 -0.55604,1.41706 -1.00408,3.48197 -1.78355,4.46677 -4.28395,-6.43598 -7.57855,-13.54595 -11.97978,-19.8716 -2.20552,0.94553 -3.09171,4.03948 -4.67417,5.83189 -1.47077,3.11249 -3.90306,5.19405 -7.05349,6.50562 -4.39995,2.28483 -8.83297,5.33767 -13.28939,7.04479 -3.79586,-2.31692 -6.94288,-6.10893 -10.98541,-7.92338 -4.89024,1.514 -9.56514,3.66065 -14.41046,5.31908 -1.13568,-3.73788 -1.54579,-7.89557 -3.26721,-11.36421 -2.23444,0.63654 -2.9417,3.7378 -4.45099,5.36643 -2.08949,2.96421 -3.72377,6.73214 -6.3608,9.04403 -10.18379,-5.64686 -18.20906,-14.6165 -28.01595,-20.85018 -1.75932,0.96172 -1.4495,4.10328 -2.39911,5.83994 -0.49276,3.21715 -1.68963,5.88195 -4.99885,6.89751 -2.41037,1.03689 -4.86848,3.50902 -7.25884,3.64946 -8.9546,-5.6336 -17.29465,-11.90066 -24.61288,-19.52786 -2.56023,0.91646 -4.77625,3.56437 -7.16577,5.08233 z"
       id="path3945"
       inkscape:connector-curvature="0" />
    <g
       transform="matrix(1.3606293,0,0,1.3606293,-241.8307,119.40219)"
       ns0:text="$\\sigma_0$, $h_0$"
       ns0:preamble="/home/andrerei/.config/inkscape/extensions/preamble.inc"
       id="g3968">
      <defs
         id="defs3970">
        <g
           id="g3972">
          <symbol
             style="overflow:visible"
             overflow="visible"
             id="textext-918e102e-0">
            <path
               inkscape:connector-curvature="0"
               style="stroke:none"
               d="m 5.15625,-3.71875 c 0.140625,0 0.5,0 0.5,-0.34375 0,-0.234375 -0.21875,-0.234375 -0.390625,-0.234375 l -2.28125,0 c -1.5,0 -2.609375,1.640625 -2.609375,2.828125 0,0.875 0.59375,1.578125 1.5,1.578125 1.171875,0 2.5,-1.203125 2.5,-2.734375 0,-0.171875 0,-0.65625 -0.3125,-1.09375 z M 1.890625,-0.109375 C 1.390625,-0.109375 1,-0.46875 1,-1.1875 c 0,-0.296875 0.109375,-1.109375 0.46875,-1.703125 0.421875,-0.6875 1.015625,-0.828125 1.359375,-0.828125 0.828125,0 0.90625,0.65625 0.90625,0.96875 0,0.46875 -0.203125,1.28125 -0.53125,1.796875 -0.390625,0.578125 -0.9375,0.84375 -1.3125,0.84375 z m 0,0"
               id="path3975" />
          </symbol>
          <symbol
             style="overflow:visible"
             overflow="visible"
             id="textext-918e102e-1">
            <path
               inkscape:connector-curvature="0"
               style="stroke:none"
               d="m 2.859375,-6.8125 c 0,0 0,-0.109375 -0.125,-0.109375 -0.234375,0 -0.953125,0.078125 -1.21875,0.109375 -0.078125,0 -0.1875,0.015625 -0.1875,0.1875 0,0.125 0.09375,0.125 0.234375,0.125 0.484375,0 0.5,0.0625 0.5,0.171875 L 2.03125,-6.125 0.59375,-0.390625 c -0.046875,0.140625 -0.046875,0.15625 -0.046875,0.21875 0,0.234375 0.203125,0.28125 0.296875,0.28125 0.15625,0 0.3125,-0.125 0.359375,-0.265625 l 0.1875,-0.75 0.21875,-0.890625 C 1.671875,-2.03125 1.734375,-2.25 1.78125,-2.46875 1.796875,-2.53125 1.890625,-2.859375 1.890625,-2.921875 1.921875,-3.015625 2.234375,-3.5625 2.578125,-3.84375 2.796875,-4 3.09375,-4.1875 3.53125,-4.1875 c 0.421875,0 0.53125,0.34375 0.53125,0.703125 0,0.53125 -0.375,1.625 -0.609375,2.234375 C 3.375,-1.03125 3.3125,-0.90625 3.3125,-0.703125 c 0,0.46875 0.359375,0.8125 0.828125,0.8125 0.9375,0 1.296875,-1.453125 1.296875,-1.53125 0,-0.109375 -0.078125,-0.109375 -0.109375,-0.109375 -0.109375,0 -0.109375,0.03125 -0.15625,0.1875 -0.140625,0.53125 -0.46875,1.234375 -1.015625,1.234375 -0.171875,0 -0.234375,-0.09375 -0.234375,-0.328125 0,-0.25 0.078125,-0.484375 0.171875,-0.703125 0.15625,-0.4375 0.609375,-1.625 0.609375,-2.203125 0,-0.640625 -0.390625,-1.0625 -1.140625,-1.0625 -0.625,0 -1.109375,0.3125 -1.484375,0.765625 z m 0,0"
               id="path3978" />
          </symbol>
          <symbol
             style="overflow:visible"
             overflow="visible"
             id="textext-918e102e-2">
            <path
               inkscape:connector-curvature="0"
               style="stroke:none"
               d="M 3.59375,-2.21875 C 3.59375,-2.984375 3.5,-3.546875 3.1875,-4.03125 2.96875,-4.34375 2.53125,-4.625 1.984375,-4.625 c -1.625,0 -1.625,1.90625 -1.625,2.40625 0,0.5 0,2.359375 1.625,2.359375 1.609375,0 1.609375,-1.859375 1.609375,-2.359375 z M 1.984375,-0.0625 c -0.328125,0 -0.75,-0.1875 -0.890625,-0.75 C 1,-1.21875 1,-1.796875 1,-2.3125 1,-2.828125 1,-3.359375 1.09375,-3.734375 1.25,-4.28125 1.6875,-4.4375 1.984375,-4.4375 c 0.375,0 0.734375,0.234375 0.859375,0.640625 0.109375,0.375 0.125,0.875 0.125,1.484375 0,0.515625 0,1.03125 -0.09375,1.46875 -0.140625,0.640625 -0.609375,0.78125 -0.890625,0.78125 z m 0,0"
               id="path3981" />
          </symbol>
          <symbol
             style="overflow:visible"
             overflow="visible"
             id="textext-918e102e-3">
            <path
               inkscape:connector-curvature="0"
               style="stroke:none"
               d="m 2.03125,-0.015625 c 0,-0.625 -0.25,-1.046875 -0.640625,-1.046875 -0.359375,0 -0.53125,0.28125 -0.53125,0.53125 0,0.265625 0.171875,0.53125 0.53125,0.53125 0.15625,0 0.28125,-0.0625 0.375,-0.140625 L 1.78125,-0.15625 c 0.015625,0 0.015625,0 0.015625,0.140625 0,0.640625 -0.265625,1.25 -0.703125,1.71875 -0.0625,0.0625 -0.078125,0.078125 -0.078125,0.109375 0,0.078125 0.046875,0.109375 0.09375,0.109375 0.125,0 0.921875,-0.78125 0.921875,-1.9375 z m 0,0"
               id="path3984" />
          </symbol>
        </g>
      </defs>
      <g
         id="textext-918e102e-4">
        <g
           style="fill:#000000;fill-opacity:1"
           id="g3987">
          <use
             height="1052.3622"
             width="744.09448"
             xlink:href="#textext-918e102e-0"
             x="223.43201"
             y="134.765"
             id="use3989" />
        </g>
        <g
           style="fill:#000000;fill-opacity:1"
           id="g3991">
          <use
             height="1052.3622"
             width="744.09448"
             xlink:href="#textext-918e102e-2"
             x="229.125"
             y="136.259"
             id="use3993" />
        </g>
        <g
           style="fill:#000000;fill-opacity:1"
           id="g3995">
          <use
             height="1052.3622"
             width="744.09448"
             xlink:href="#textext-918e102e-3"
             x="233.59399"
             y="134.765"
             id="use3997" />
        </g>
        <g
           style="fill:#000000;fill-opacity:1"
           id="g3999">
          <use
             height="1052.3622"
             width="744.09448"
             xlink:href="#textext-918e102e-1"
             x="239.683"
             y="134.765"
             id="use4001" />
        </g>
        <g
           style="fill:#000000;fill-opacity:1"
           id="g4003">
          <use
             height="1052.3622"
             width="744.09448"
             xlink:href="#textext-918e102e-2"
             x="245.423"
             y="136.259"
             id="use4005" />
        </g>
      </g>
    </g>
    <g
       id="g4314"
       transform="matrix(1.3606293,0,0,1.3606293,-18.659063,119.32982)"
       ns0:preamble="/home/andrerei/.config/inkscape/extensions/preamble.inc"
       ns0:text="$\\sigma_0$, $h_1$">
      <defs
         id="defs4316">
        <g
           id="g4318">
          <symbol
             id="textext-b797703f-0"
             overflow="visible"
             style="overflow:visible">
            <path
               id="path4321"
               d="m 5.15625,-3.71875 c 0.140625,0 0.5,0 0.5,-0.34375 0,-0.234375 -0.21875,-0.234375 -0.390625,-0.234375 l -2.28125,0 c -1.5,0 -2.609375,1.640625 -2.609375,2.828125 0,0.875 0.59375,1.578125 1.5,1.578125 1.171875,0 2.5,-1.203125 2.5,-2.734375 0,-0.171875 0,-0.65625 -0.3125,-1.09375 z M 1.890625,-0.109375 C 1.390625,-0.109375 1,-0.46875 1,-1.1875 c 0,-0.296875 0.109375,-1.109375 0.46875,-1.703125 0.421875,-0.6875 1.015625,-0.828125 1.359375,-0.828125 0.828125,0 0.90625,0.65625 0.90625,0.96875 0,0.46875 -0.203125,1.28125 -0.53125,1.796875 -0.390625,0.578125 -0.9375,0.84375 -1.3125,0.84375 z m 0,0"
               style="stroke:none"
               inkscape:connector-curvature="0" />
          </symbol>
          <symbol
             id="textext-b797703f-1"
             overflow="visible"
             style="overflow:visible">
            <path
               id="path4324"
               d="m 2.859375,-6.8125 c 0,0 0,-0.109375 -0.125,-0.109375 -0.234375,0 -0.953125,0.078125 -1.21875,0.109375 -0.078125,0 -0.1875,0.015625 -0.1875,0.1875 0,0.125 0.09375,0.125 0.234375,0.125 0.484375,0 0.5,0.0625 0.5,0.171875 L 2.03125,-6.125 0.59375,-0.390625 c -0.046875,0.140625 -0.046875,0.15625 -0.046875,0.21875 0,0.234375 0.203125,0.28125 0.296875,0.28125 0.15625,0 0.3125,-0.125 0.359375,-0.265625 l 0.1875,-0.75 0.21875,-0.890625 C 1.671875,-2.03125 1.734375,-2.25 1.78125,-2.46875 1.796875,-2.53125 1.890625,-2.859375 1.890625,-2.921875 1.921875,-3.015625 2.234375,-3.5625 2.578125,-3.84375 2.796875,-4 3.09375,-4.1875 3.53125,-4.1875 c 0.421875,0 0.53125,0.34375 0.53125,0.703125 0,0.53125 -0.375,1.625 -0.609375,2.234375 C 3.375,-1.03125 3.3125,-0.90625 3.3125,-0.703125 c 0,0.46875 0.359375,0.8125 0.828125,0.8125 0.9375,0 1.296875,-1.453125 1.296875,-1.53125 0,-0.109375 -0.078125,-0.109375 -0.109375,-0.109375 -0.109375,0 -0.109375,0.03125 -0.15625,0.1875 -0.140625,0.53125 -0.46875,1.234375 -1.015625,1.234375 -0.171875,0 -0.234375,-0.09375 -0.234375,-0.328125 0,-0.25 0.078125,-0.484375 0.171875,-0.703125 0.15625,-0.4375 0.609375,-1.625 0.609375,-2.203125 0,-0.640625 -0.390625,-1.0625 -1.140625,-1.0625 -0.625,0 -1.109375,0.3125 -1.484375,0.765625 z m 0,0"
               style="stroke:none"
               inkscape:connector-curvature="0" />
          </symbol>
          <symbol
             id="textext-b797703f-2"
             overflow="visible"
             style="overflow:visible">
            <path
               id="path4327"
               d="M 3.59375,-2.21875 C 3.59375,-2.984375 3.5,-3.546875 3.1875,-4.03125 2.96875,-4.34375 2.53125,-4.625 1.984375,-4.625 c -1.625,0 -1.625,1.90625 -1.625,2.40625 0,0.5 0,2.359375 1.625,2.359375 1.609375,0 1.609375,-1.859375 1.609375,-2.359375 z M 1.984375,-0.0625 c -0.328125,0 -0.75,-0.1875 -0.890625,-0.75 C 1,-1.21875 1,-1.796875 1,-2.3125 1,-2.828125 1,-3.359375 1.09375,-3.734375 1.25,-4.28125 1.6875,-4.4375 1.984375,-4.4375 c 0.375,0 0.734375,0.234375 0.859375,0.640625 0.109375,0.375 0.125,0.875 0.125,1.484375 0,0.515625 0,1.03125 -0.09375,1.46875 -0.140625,0.640625 -0.609375,0.78125 -0.890625,0.78125 z m 0,0"
               style="stroke:none"
               inkscape:connector-curvature="0" />
          </symbol>
          <symbol
             id="textext-b797703f-3"
             overflow="visible"
             style="overflow:visible">
            <path
               id="path4330"
               d="m 2.328125,-4.4375 c 0,-0.1875 0,-0.1875 -0.203125,-0.1875 -0.453125,0.4375 -1.078125,0.4375 -1.359375,0.4375 l 0,0.25 c 0.15625,0 0.625,0 1,-0.1875 l 0,3.546875 c 0,0.234375 0,0.328125 -0.6875,0.328125 l -0.265625,0 0,0.25 c 0.125,0 0.984375,-0.03125 1.234375,-0.03125 0.21875,0 1.09375,0.03125 1.25,0.03125 l 0,-0.25 -0.265625,0 c -0.703125,0 -0.703125,-0.09375 -0.703125,-0.328125 z m 0,0"
               style="stroke:none"
               inkscape:connector-curvature="0" />
          </symbol>
          <symbol
             id="textext-b797703f-4"
             overflow="visible"
             style="overflow:visible">
            <path
               id="path4333"
               d="m 2.03125,-0.015625 c 0,-0.625 -0.25,-1.046875 -0.640625,-1.046875 -0.359375,0 -0.53125,0.28125 -0.53125,0.53125 0,0.265625 0.171875,0.53125 0.53125,0.53125 0.15625,0 0.28125,-0.0625 0.375,-0.140625 L 1.78125,-0.15625 c 0.015625,0 0.015625,0 0.015625,0.140625 0,0.640625 -0.265625,1.25 -0.703125,1.71875 -0.0625,0.0625 -0.078125,0.078125 -0.078125,0.109375 0,0.078125 0.046875,0.109375 0.09375,0.109375 0.125,0 0.921875,-0.78125 0.921875,-1.9375 z m 0,0"
               style="stroke:none"
               inkscape:connector-curvature="0" />
          </symbol>
        </g>
      </defs>
      <g
         id="textext-b797703f-5">
        <g
           id="g4336"
           style="fill:#000000;fill-opacity:1">
          <use
             id="use4338"
             y="134.765"
             x="223.43201"
             xlink:href="#textext-b797703f-0"
             width="744.09448"
             height="1052.3622" />
        </g>
        <g
           id="g4340"
           style="fill:#000000;fill-opacity:1">
          <use
             id="use4342"
             y="136.259"
             x="229.125"
             xlink:href="#textext-b797703f-2"
             width="744.09448"
             height="1052.3622" />
        </g>
        <g
           id="g4344"
           style="fill:#000000;fill-opacity:1">
          <use
             id="use4346"
             y="134.765"
             x="233.59399"
             xlink:href="#textext-b797703f-4"
             width="744.09448"
             height="1052.3622" />
        </g>
        <g
           id="g4348"
           style="fill:#000000;fill-opacity:1">
          <use
             id="use4350"
             y="134.765"
             x="239.683"
             xlink:href="#textext-b797703f-1"
             width="744.09448"
             height="1052.3622" />
        </g>
        <g
           id="g4352"
           style="fill:#000000;fill-opacity:1">
          <use
             id="use4354"
             y="136.259"
             x="245.423"
             xlink:href="#textext-b797703f-3"
             width="744.09448"
             height="1052.3622" />
        </g>
      </g>
    </g>
    <g
       ns0:text="$\\sigma_1$, $h_1$"
       ns0:preamble="/home/andrerei/.config/inkscape/extensions/preamble.inc"
       transform="matrix(1.3606293,0,0,1.3606293,-19.16414,157.59309)"
       id="g4554">
      <defs
         id="defs4556">
        <g
           id="g4558">
          <symbol
             overflow="visible"
             id="textext-5edb6939-0"
             style="overflow:visible">
            <path
               style="stroke:none"
               d="m 5.15625,-3.71875 c 0.140625,0 0.5,0 0.5,-0.34375 0,-0.234375 -0.21875,-0.234375 -0.390625,-0.234375 l -2.28125,0 c -1.5,0 -2.609375,1.640625 -2.609375,2.828125 0,0.875 0.59375,1.578125 1.5,1.578125 1.171875,0 2.5,-1.203125 2.5,-2.734375 0,-0.171875 0,-0.65625 -0.3125,-1.09375 z M 1.890625,-0.109375 C 1.390625,-0.109375 1,-0.46875 1,-1.1875 c 0,-0.296875 0.109375,-1.109375 0.46875,-1.703125 0.421875,-0.6875 1.015625,-0.828125 1.359375,-0.828125 0.828125,0 0.90625,0.65625 0.90625,0.96875 0,0.46875 -0.203125,1.28125 -0.53125,1.796875 -0.390625,0.578125 -0.9375,0.84375 -1.3125,0.84375 z m 0,0"
               id="path4561"
               inkscape:connector-curvature="0" />
          </symbol>
          <symbol
             overflow="visible"
             id="textext-5edb6939-1"
             style="overflow:visible">
            <path
               style="stroke:none"
               d="m 2.859375,-6.8125 c 0,0 0,-0.109375 -0.125,-0.109375 -0.234375,0 -0.953125,0.078125 -1.21875,0.109375 -0.078125,0 -0.1875,0.015625 -0.1875,0.1875 0,0.125 0.09375,0.125 0.234375,0.125 0.484375,0 0.5,0.0625 0.5,0.171875 L 2.03125,-6.125 0.59375,-0.390625 c -0.046875,0.140625 -0.046875,0.15625 -0.046875,0.21875 0,0.234375 0.203125,0.28125 0.296875,0.28125 0.15625,0 0.3125,-0.125 0.359375,-0.265625 l 0.1875,-0.75 0.21875,-0.890625 C 1.671875,-2.03125 1.734375,-2.25 1.78125,-2.46875 1.796875,-2.53125 1.890625,-2.859375 1.890625,-2.921875 1.921875,-3.015625 2.234375,-3.5625 2.578125,-3.84375 2.796875,-4 3.09375,-4.1875 3.53125,-4.1875 c 0.421875,0 0.53125,0.34375 0.53125,0.703125 0,0.53125 -0.375,1.625 -0.609375,2.234375 C 3.375,-1.03125 3.3125,-0.90625 3.3125,-0.703125 c 0,0.46875 0.359375,0.8125 0.828125,0.8125 0.9375,0 1.296875,-1.453125 1.296875,-1.53125 0,-0.109375 -0.078125,-0.109375 -0.109375,-0.109375 -0.109375,0 -0.109375,0.03125 -0.15625,0.1875 -0.140625,0.53125 -0.46875,1.234375 -1.015625,1.234375 -0.171875,0 -0.234375,-0.09375 -0.234375,-0.328125 0,-0.25 0.078125,-0.484375 0.171875,-0.703125 0.15625,-0.4375 0.609375,-1.625 0.609375,-2.203125 0,-0.640625 -0.390625,-1.0625 -1.140625,-1.0625 -0.625,0 -1.109375,0.3125 -1.484375,0.765625 z m 0,0"
               id="path4564"
               inkscape:connector-curvature="0" />
          </symbol>
          <symbol
             overflow="visible"
             id="textext-5edb6939-2"
             style="overflow:visible">
            <path
               style="stroke:none"
               d="m 2.328125,-4.4375 c 0,-0.1875 0,-0.1875 -0.203125,-0.1875 -0.453125,0.4375 -1.078125,0.4375 -1.359375,0.4375 l 0,0.25 c 0.15625,0 0.625,0 1,-0.1875 l 0,3.546875 c 0,0.234375 0,0.328125 -0.6875,0.328125 l -0.265625,0 0,0.25 c 0.125,0 0.984375,-0.03125 1.234375,-0.03125 0.21875,0 1.09375,0.03125 1.25,0.03125 l 0,-0.25 -0.265625,0 c -0.703125,0 -0.703125,-0.09375 -0.703125,-0.328125 z m 0,0"
               id="path4567"
               inkscape:connector-curvature="0" />
          </symbol>
          <symbol
             overflow="visible"
             id="textext-5edb6939-3"
             style="overflow:visible">
            <path
               style="stroke:none"
               d="m 2.03125,-0.015625 c 0,-0.625 -0.25,-1.046875 -0.640625,-1.046875 -0.359375,0 -0.53125,0.28125 -0.53125,0.53125 0,0.265625 0.171875,0.53125 0.53125,0.53125 0.15625,0 0.28125,-0.0625 0.375,-0.140625 L 1.78125,-0.15625 c 0.015625,0 0.015625,0 0.015625,0.140625 0,0.640625 -0.265625,1.25 -0.703125,1.71875 -0.0625,0.0625 -0.078125,0.078125 -0.078125,0.109375 0,0.078125 0.046875,0.109375 0.09375,0.109375 0.125,0 0.921875,-0.78125 0.921875,-1.9375 z m 0,0"
               id="path4570"
               inkscape:connector-curvature="0" />
          </symbol>
        </g>
      </defs>
      <g
         id="textext-5edb6939-4">
        <g
           style="fill:#000000;fill-opacity:1"
           id="g4573">
          <use
             xlink:href="#textext-5edb6939-0"
             x="223.43201"
             y="134.765"
             id="use4575"
             width="744.09448"
             height="1052.3622" />
        </g>
        <g
           style="fill:#000000;fill-opacity:1"
           id="g4577">
          <use
             xlink:href="#textext-5edb6939-2"
             x="229.125"
             y="136.259"
             id="use4579"
             width="744.09448"
             height="1052.3622" />
        </g>
        <g
           style="fill:#000000;fill-opacity:1"
           id="g4581">
          <use
             xlink:href="#textext-5edb6939-3"
             x="233.59399"
             y="134.765"
             id="use4583"
             width="744.09448"
             height="1052.3622" />
        </g>
        <g
           style="fill:#000000;fill-opacity:1"
           id="g4585">
          <use
             xlink:href="#textext-5edb6939-1"
             x="239.683"
             y="134.765"
             id="use4587"
             width="744.09448"
             height="1052.3622" />
        </g>
        <g
           style="fill:#000000;fill-opacity:1"
           id="g4589">
          <use
             xlink:href="#textext-5edb6939-2"
             x="245.423"
             y="136.259"
             id="use4591"
             width="744.09448"
             height="1052.3622" />
        </g>
      </g>
    </g>
    <g
       id="g4791"
       transform="matrix(1.3606293,0,0,1.3606293,-241.86688,157.08801)"
       ns0:preamble="/home/andrerei/.config/inkscape/extensions/preamble.inc"
       ns0:text="$\\sigma_1$, $h_0$">
      <defs
         id="defs4793">
        <g
           id="g4795">
          <symbol
             id="textext-9f06a246-0"
             overflow="visible"
             style="overflow:visible">
            <path
               id="path4798"
               d="m 5.15625,-3.71875 c 0.140625,0 0.5,0 0.5,-0.34375 0,-0.234375 -0.21875,-0.234375 -0.390625,-0.234375 l -2.28125,0 c -1.5,0 -2.609375,1.640625 -2.609375,2.828125 0,0.875 0.59375,1.578125 1.5,1.578125 1.171875,0 2.5,-1.203125 2.5,-2.734375 0,-0.171875 0,-0.65625 -0.3125,-1.09375 z M 1.890625,-0.109375 C 1.390625,-0.109375 1,-0.46875 1,-1.1875 c 0,-0.296875 0.109375,-1.109375 0.46875,-1.703125 0.421875,-0.6875 1.015625,-0.828125 1.359375,-0.828125 0.828125,0 0.90625,0.65625 0.90625,0.96875 0,0.46875 -0.203125,1.28125 -0.53125,1.796875 -0.390625,0.578125 -0.9375,0.84375 -1.3125,0.84375 z m 0,0"
               style="stroke:none"
               inkscape:connector-curvature="0" />
          </symbol>
          <symbol
             id="textext-9f06a246-1"
             overflow="visible"
             style="overflow:visible">
            <path
               id="path4801"
               d="m 2.859375,-6.8125 c 0,0 0,-0.109375 -0.125,-0.109375 -0.234375,0 -0.953125,0.078125 -1.21875,0.109375 -0.078125,0 -0.1875,0.015625 -0.1875,0.1875 0,0.125 0.09375,0.125 0.234375,0.125 0.484375,0 0.5,0.0625 0.5,0.171875 L 2.03125,-6.125 0.59375,-0.390625 c -0.046875,0.140625 -0.046875,0.15625 -0.046875,0.21875 0,0.234375 0.203125,0.28125 0.296875,0.28125 0.15625,0 0.3125,-0.125 0.359375,-0.265625 l 0.1875,-0.75 0.21875,-0.890625 C 1.671875,-2.03125 1.734375,-2.25 1.78125,-2.46875 1.796875,-2.53125 1.890625,-2.859375 1.890625,-2.921875 1.921875,-3.015625 2.234375,-3.5625 2.578125,-3.84375 2.796875,-4 3.09375,-4.1875 3.53125,-4.1875 c 0.421875,0 0.53125,0.34375 0.53125,0.703125 0,0.53125 -0.375,1.625 -0.609375,2.234375 C 3.375,-1.03125 3.3125,-0.90625 3.3125,-0.703125 c 0,0.46875 0.359375,0.8125 0.828125,0.8125 0.9375,0 1.296875,-1.453125 1.296875,-1.53125 0,-0.109375 -0.078125,-0.109375 -0.109375,-0.109375 -0.109375,0 -0.109375,0.03125 -0.15625,0.1875 -0.140625,0.53125 -0.46875,1.234375 -1.015625,1.234375 -0.171875,0 -0.234375,-0.09375 -0.234375,-0.328125 0,-0.25 0.078125,-0.484375 0.171875,-0.703125 0.15625,-0.4375 0.609375,-1.625 0.609375,-2.203125 0,-0.640625 -0.390625,-1.0625 -1.140625,-1.0625 -0.625,0 -1.109375,0.3125 -1.484375,0.765625 z m 0,0"
               style="stroke:none"
               inkscape:connector-curvature="0" />
          </symbol>
          <symbol
             id="textext-9f06a246-2"
             overflow="visible"
             style="overflow:visible">
            <path
               id="path4804"
               d="m 2.328125,-4.4375 c 0,-0.1875 0,-0.1875 -0.203125,-0.1875 -0.453125,0.4375 -1.078125,0.4375 -1.359375,0.4375 l 0,0.25 c 0.15625,0 0.625,0 1,-0.1875 l 0,3.546875 c 0,0.234375 0,0.328125 -0.6875,0.328125 l -0.265625,0 0,0.25 c 0.125,0 0.984375,-0.03125 1.234375,-0.03125 0.21875,0 1.09375,0.03125 1.25,0.03125 l 0,-0.25 -0.265625,0 c -0.703125,0 -0.703125,-0.09375 -0.703125,-0.328125 z m 0,0"
               style="stroke:none"
               inkscape:connector-curvature="0" />
          </symbol>
          <symbol
             id="textext-9f06a246-3"
             overflow="visible"
             style="overflow:visible">
            <path
               id="path4807"
               d="M 3.59375,-2.21875 C 3.59375,-2.984375 3.5,-3.546875 3.1875,-4.03125 2.96875,-4.34375 2.53125,-4.625 1.984375,-4.625 c -1.625,0 -1.625,1.90625 -1.625,2.40625 0,0.5 0,2.359375 1.625,2.359375 1.609375,0 1.609375,-1.859375 1.609375,-2.359375 z M 1.984375,-0.0625 c -0.328125,0 -0.75,-0.1875 -0.890625,-0.75 C 1,-1.21875 1,-1.796875 1,-2.3125 1,-2.828125 1,-3.359375 1.09375,-3.734375 1.25,-4.28125 1.6875,-4.4375 1.984375,-4.4375 c 0.375,0 0.734375,0.234375 0.859375,0.640625 0.109375,0.375 0.125,0.875 0.125,1.484375 0,0.515625 0,1.03125 -0.09375,1.46875 -0.140625,0.640625 -0.609375,0.78125 -0.890625,0.78125 z m 0,0"
               style="stroke:none"
               inkscape:connector-curvature="0" />
          </symbol>
          <symbol
             id="textext-9f06a246-4"
             overflow="visible"
             style="overflow:visible">
            <path
               id="path4810"
               d="m 2.03125,-0.015625 c 0,-0.625 -0.25,-1.046875 -0.640625,-1.046875 -0.359375,0 -0.53125,0.28125 -0.53125,0.53125 0,0.265625 0.171875,0.53125 0.53125,0.53125 0.15625,0 0.28125,-0.0625 0.375,-0.140625 L 1.78125,-0.15625 c 0.015625,0 0.015625,0 0.015625,0.140625 0,0.640625 -0.265625,1.25 -0.703125,1.71875 -0.0625,0.0625 -0.078125,0.078125 -0.078125,0.109375 0,0.078125 0.046875,0.109375 0.09375,0.109375 0.125,0 0.921875,-0.78125 0.921875,-1.9375 z m 0,0"
               style="stroke:none"
               inkscape:connector-curvature="0" />
          </symbol>
        </g>
      </defs>
      <g
         id="textext-9f06a246-5">
        <g
           id="g4813"
           style="fill:#000000;fill-opacity:1">
          <use
             id="use4815"
             y="134.765"
             x="223.43201"
             xlink:href="#textext-9f06a246-0"
             width="744.09448"
             height="1052.3622" />
        </g>
        <g
           id="g4817"
           style="fill:#000000;fill-opacity:1">
          <use
             id="use4819"
             y="136.259"
             x="229.125"
             xlink:href="#textext-9f06a246-2"
             width="744.09448"
             height="1052.3622" />
        </g>
        <g
           id="g4821"
           style="fill:#000000;fill-opacity:1">
          <use
             id="use4823"
             y="134.765"
             x="233.59399"
             xlink:href="#textext-9f06a246-4"
             width="744.09448"
             height="1052.3622" />
        </g>
        <g
           id="g4825"
           style="fill:#000000;fill-opacity:1">
          <use
             id="use4827"
             y="134.765"
             x="239.683"
             xlink:href="#textext-9f06a246-1"
             width="744.09448"
             height="1052.3622" />
        </g>
        <g
           id="g4829"
           style="fill:#000000;fill-opacity:1">
          <use
             id="use4831"
             y="136.259"
             x="245.423"
             xlink:href="#textext-9f06a246-3"
             width="744.09448"
             height="1052.3622" />
        </g>
      </g>
    </g>
  </g>
</svg>
