<?xml version="1.0" encoding="UTF-8" standalone="no"?>
<!-- Created with Inkscape (http://www.inkscape.org/) -->

<svg
   xmlns:ns0="http://www.iki.fi/pav/software/textext/"
   xmlns:dc="http://purl.org/dc/elements/1.1/"
   xmlns:cc="http://creativecommons.org/ns#"
   xmlns:rdf="http://www.w3.org/1999/02/22-rdf-syntax-ns#"
   xmlns:svg="http://www.w3.org/2000/svg"
   xmlns="http://www.w3.org/2000/svg"
   xmlns:xlink="http://www.w3.org/1999/xlink"
   xmlns:sodipodi="http://sodipodi.sourceforge.net/DTD/sodipodi-0.dtd"
   xmlns:inkscape="http://www.inkscape.org/namespaces/inkscape"
   width="744.09448819"
   height="1052.3622047"
   id="svg2"
   version="1.1"
   inkscape:version="0.48.0 r9654"
   sodipodi:docname="notation.svg">
  <sodipodi:namedview
     id="base"
     pagecolor="#ffffff"
     bordercolor="#666666"
     borderopacity="1.0"
     inkscape:pageopacity="0.0"
     inkscape:pageshadow="2"
     inkscape:zoom="1.4"
     inkscape:cx="263.33873"
     inkscape:cy="581.33259"
     inkscape:document-units="px"
     inkscape:current-layer="layer1"
     showgrid="true"
     inkscape:window-width="1272"
     inkscape:window-height="1122"
     inkscape:window-x="0"
     inkscape:window-y="25"
     inkscape:window-maximized="0"
     inkscape:snap-bbox="true">
    <inkscape:grid
       id="grid2992"
       type="xygrid" />
  </sodipodi:namedview>
  <defs
     id="defs4">
    <marker
       style="overflow:visible;"
       id="Arrow2Mend"
       refX="0.0"
       refY="0.0"
       orient="auto"
       inkscape:stockid="Arrow2Mend">
      <path
         transform="scale(0.6) rotate(180) translate(0,0)"
         d="M 8.7185878,4.0337352 L -2.2072895,0.016013256 L 8.7185884,-4.0017078 C 6.9730900,-1.6296469 6.9831476,1.6157441 8.7185878,4.0337352 z "
         style="font-size:12.0;fill-rule:evenodd;stroke-width:0.62500000;stroke-linejoin:round;"
         id="path3836" />
    </marker>
    <marker
       style="overflow:visible;"
       id="Arrow1Send"
       refX="0.0"
       refY="0.0"
       orient="auto"
       inkscape:stockid="Arrow1Send">
      <path
         transform="scale(0.2) rotate(180) translate(6,0)"
         style="fill-rule:evenodd;stroke:#000000;stroke-width:1.0pt;marker-start:none;"
         d="M 0.0,0.0 L 5.0,-5.0 L -12.5,0.0 L 5.0,5.0 L 0.0,0.0 z "
         id="path3824" />
    </marker>
    <marker
       style="overflow:visible;"
       id="Arrow2Lend"
       refX="0.0"
       refY="0.0"
       orient="auto"
       inkscape:stockid="Arrow2Lend">
      <path
         transform="scale(1.1) rotate(180) translate(1,0)"
         d="M 8.7185878,4.0337352 L -2.2072895,0.016013256 L 8.7185884,-4.0017078 C 6.9730900,-1.6296469 6.9831476,1.6157441 8.7185878,4.0337352 z "
         style="font-size:12.0;fill-rule:evenodd;stroke-width:0.62500000;stroke-linejoin:round;"
         id="path3830" />
    </marker>
    <marker
       style="overflow:visible"
       id="Arrow2Mend-1"
       refX="0"
       refY="0"
       orient="auto"
       inkscape:stockid="Arrow2Mend">
      <path
         inkscape:connector-curvature="0"
         transform="scale(-0.6,-0.6)"
         d="M 8.7185878,4.0337352 -2.2072895,0.01601326 8.7185884,-4.0017078 c -1.7454984,2.3720609 -1.7354408,5.6174519 -6e-7,8.035443 z"
         style="font-size:12px;fill-rule:evenodd;stroke-width:0.625;stroke-linejoin:round"
         id="path3836-7" />
    </marker>
    <marker
       style="overflow:visible"
       id="Arrow2Mend-8"
       refX="0"
       refY="0"
       orient="auto"
       inkscape:stockid="Arrow2Mend">
      <path
         inkscape:connector-curvature="0"
         transform="scale(-0.6,-0.6)"
         d="M 8.7185878,4.0337352 -2.2072895,0.01601326 8.7185884,-4.0017078 c -1.7454984,2.3720609 -1.7354408,5.6174519 -6e-7,8.035443 z"
         style="font-size:12px;fill-rule:evenodd;stroke-width:0.625;stroke-linejoin:round"
         id="path3836-3" />
    </marker>
    <clipPath
       clipPathUnits="userSpaceOnUse"
       id="clipPath6056">
      <rect
         style="opacity:0.91505791;fill:none;stroke:#000000;stroke-width:1.05306423;stroke-miterlimit:4;stroke-opacity:1;stroke-dasharray:none;stroke-dashoffset:0"
         id="rect6058"
         width="200.08221"
         height="157.95964"
         x="89.244614"
         y="-5.3753233" />
    </clipPath>
    <clipPath
       clipPathUnits="userSpaceOnUse"
       id="clipPath6060">
      <rect
         style="opacity:0.91505791;fill:none;stroke:#000000;stroke-width:1.05306423;stroke-miterlimit:4;stroke-opacity:1;stroke-dasharray:none;stroke-dashoffset:0"
         id="rect6062"
         width="200.08221"
         height="157.95964"
         x="169.64941"
         y="-5.4563618" />
    </clipPath>
    <clipPath
       clipPathUnits="userSpaceOnUse"
       id="clipPath6064">
      <rect
         style="opacity:0.91505791;fill:none;stroke:#000000;stroke-width:1.05306423;stroke-miterlimit:4;stroke-opacity:1;stroke-dasharray:none;stroke-dashoffset:0"
         id="rect6066"
         width="200.08221"
         height="157.95964"
         x="89.244614"
         y="89.400459" />
    </clipPath>
    <clipPath
       clipPathUnits="userSpaceOnUse"
       id="clipPath6068">
      <rect
         style="opacity:0.91505791;fill:none;stroke:#000000;stroke-width:1.05306423;stroke-miterlimit:4;stroke-opacity:1;stroke-dasharray:none;stroke-dashoffset:0"
         id="rect6070"
         width="200.08221"
         height="157.95964"
         x="169.64941"
         y="89.31942" />
    </clipPath>
    <clipPath
       clipPathUnits="userSpaceOnUse"
       id="clipPath6072">
      <rect
         style="opacity:0.91505791;fill:none;stroke:#000000;stroke-width:2;stroke-miterlimit:4;stroke-opacity:1;stroke-dasharray:none;stroke-dashoffset:0"
         id="rect6074"
         width="380"
         height="300"
         x="50"
         y="292.36218" />
    </clipPath>
    <clipPath
       clipPathUnits="userSpaceOnUse"
       id="clipPath6076">
      <rect
         style="opacity:0.91505791;fill:none;stroke:#000000;stroke-width:2;stroke-miterlimit:4;stroke-opacity:1;stroke-dasharray:none;stroke-dashoffset:0"
         id="rect6078"
         width="380"
         height="300"
         x="50"
         y="292.36218" />
    </clipPath>
    <clipPath
       clipPathUnits="userSpaceOnUse"
       id="clipPath6080">
      <rect
         style="opacity:0.91505791;fill:none;stroke:#000000;stroke-width:2;stroke-miterlimit:4;stroke-opacity:1;stroke-dasharray:none;stroke-dashoffset:0"
         id="rect6082"
         width="380"
         height="300"
         x="50"
         y="292.36218" />
    </clipPath>
    <clipPath
       clipPathUnits="userSpaceOnUse"
       id="clipPath6084">
      <rect
         style="opacity:0.91505791;fill:none;stroke:#000000;stroke-width:2;stroke-miterlimit:4;stroke-opacity:1;stroke-dasharray:none;stroke-dashoffset:0"
         id="rect6086"
         width="380"
         height="300"
         x="50"
         y="292.36218" />
    </clipPath>
    <clipPath
       clipPathUnits="userSpaceOnUse"
       id="clipPath6088">
      <rect
         style="opacity:0.91505791;fill:none;stroke:#000000;stroke-width:2;stroke-miterlimit:4;stroke-opacity:1;stroke-dasharray:none;stroke-dashoffset:0"
         id="rect6090"
         width="380"
         height="300"
         x="50"
         y="292.36218" />
    </clipPath>
    <clipPath
       clipPathUnits="userSpaceOnUse"
       id="clipPath6092">
      <rect
         style="opacity:0.91505791;fill:none;stroke:#000000;stroke-width:2;stroke-miterlimit:4;stroke-opacity:1;stroke-dasharray:none;stroke-dashoffset:0"
         id="rect6094"
         width="380"
         height="300"
         x="50"
         y="292.36218" />
    </clipPath>
    <clipPath
       clipPathUnits="userSpaceOnUse"
       id="clipPath6096">
      <rect
         style="opacity:0.91505791;fill:none;stroke:#000000;stroke-width:2;stroke-miterlimit:4;stroke-opacity:1;stroke-dasharray:none;stroke-dashoffset:0"
         id="rect6098"
         width="380"
         height="300"
         x="50"
         y="292.36218" />
    </clipPath>
    <clipPath
       clipPathUnits="userSpaceOnUse"
       id="clipPath6100">
      <rect
         style="opacity:0.91505791;fill:none;stroke:#000000;stroke-width:2;stroke-miterlimit:4;stroke-opacity:1;stroke-dasharray:none;stroke-dashoffset:0"
         id="rect6102"
         width="380"
         height="300"
         x="50"
         y="292.36218" />
    </clipPath>
    <clipPath
       clipPathUnits="userSpaceOnUse"
       id="clipPath6104">
      <rect
         style="opacity:0.91505791;fill:none;stroke:#000000;stroke-width:2;stroke-miterlimit:4;stroke-opacity:1;stroke-dasharray:none;stroke-dashoffset:0"
         id="rect6106"
         width="380"
         height="300"
         x="50"
         y="292.36218" />
    </clipPath>
  </defs>
  <metadata
     id="metadata7">
    <rdf:RDF>
      <cc:Work
         rdf:about="">
        <dc:format>image/svg+xml</dc:format>
        <dc:type
           rdf:resource="http://purl.org/dc/dcmitype/StillImage" />
        <dc:title />
      </cc:Work>
    </rdf:RDF>
  </metadata>
  <g
     id="layer1"
     inkscape:groupmode="layer"
     inkscape:label="Layer 1">
    <rect
       y="472.36218"
       x="40"
       height="180"
       width="390"
       id="rect4383"
       style="opacity:0.18532817;fill:#74d6f5;fill-opacity:1;stroke:none"
       clip-path="url(#clipPath6104)" />
    <path
       inkscape:connector-curvature="0"
       id="path2994"
       d="m 40,472.36218 390,0"
       style="fill:none;stroke:#000000;stroke-width:1.55801594;stroke-linecap:butt;stroke-linejoin:miter;stroke-miterlimit:5.19999981;stroke-opacity:1;stroke-dasharray:none"
       clip-path="url(#clipPath6100)" />
    <rect
       y="292.36218"
       x="40"
       height="180"
       width="390"
       id="rect4383-3"
       style="opacity:0.08494209;fill:#74d6f5;fill-opacity:1;stroke:none"
       clip-path="url(#clipPath6096)" />
    <path
       inkscape:connector-curvature="0"
       id="path3782"
       d="m 70,312.36218 170,160"
       style="fill:none;stroke:#000000;stroke-width:2;stroke-linecap:butt;stroke-linejoin:miter;stroke-opacity:1;marker-end:url(#Arrow2Mend);stroke-miterlimit:4;stroke-dasharray:none"
       clip-path="url(#clipPath6092)" />
    <path
       inkscape:connector-curvature="0"
       id="path3802"
       d="m 240,472.36218 170,100"
       style="fill:none;stroke:#000000;stroke-width:2;stroke-linecap:butt;stroke-linejoin:miter;stroke-opacity:1;marker-end:url(#Arrow2Mend);stroke-miterlimit:4;stroke-dasharray:none"
       clip-path="url(#clipPath6088)" />
    <path
       inkscape:connector-curvature="0"
       id="path3804"
       d="m 240,292.36218 0,360"
       style="fill:none;stroke:#000000;stroke-width:0.64657909;stroke-linecap:butt;stroke-linejoin:miter;stroke-miterlimit:16.39999962;stroke-opacity:1;stroke-dasharray:3.87947469, 3.87947469;stroke-dashoffset:0"
       clip-path="url(#clipPath6084)" />
    <text
       sodipodi:linespacing="125%"
       id="text4851"
       y="339.69955"
       x="160.61424"
       style="font-size:40px;font-style:normal;font-variant:normal;font-weight:normal;font-stretch:normal;line-height:125%;letter-spacing:0px;word-spacing:0px;fill:#000000;fill-opacity:1;stroke:none;font-family:Arial;-inkscape-font-specification:Arial"
       xml:space="preserve"
       clip-path="url(#clipPath6080)"><tspan
         y="339.69955"
         x="160.61424"
         id="tspan4853"
         sodipodi:role="line" /></text>
    <path
       inkscape:connector-curvature="0"
       id="path3782-8"
       d="m 239.52902,472.62 169.99999,-160"
       style="fill:none;stroke:#000000;stroke-width:2;stroke-linecap:butt;stroke-linejoin:miter;stroke-miterlimit:4;stroke-opacity:1;stroke-dasharray:none;marker-end:url(#Arrow2Mend)"
       clip-path="url(#clipPath6076)" />
    <path
       inkscape:connector-curvature="0"
       id="path3802-1"
       d="m 70,573.40288 170,-100"
       style="fill:none;stroke:#000000;stroke-width:2;stroke-linecap:butt;stroke-linejoin:miter;stroke-miterlimit:4;stroke-opacity:1;stroke-dasharray:none;marker-end:url(#Arrow2Mend)"
       clip-path="url(#clipPath6072)" />
    <g
       transform="matrix(1.8992193,0,0,1.8992193,-272.20145,122.72501)"
       ns0:text="$\\mathbf{k}_{j}^{-}$"
       ns0:preamble="/home/andrerei/.config/inkscape/extensions/preamble.inc"
       id="g5188"
       clip-path="url(#clipPath6068)">
      <defs
         id="defs5190">
        <g
           id="g5192">
          <symbol
             style="overflow:visible"
             overflow="visible"
             id="textext-1effa775-0">
            <path
               inkscape:connector-curvature="0"
               style="stroke:none"
               d="m 2.140625,-2.359375 0,-4.5625 -1.765625,0.078125 0,0.46875 c 0.609375,0 0.6875,0 0.6875,0.390625 l 0,5.515625 -0.6875,0 0,0.46875 c 0.359375,-0.015625 0.828125,-0.03125 1.1875,-0.03125 0.375,0 0.84375,0.015625 1.203125,0.03125 l 0,-0.46875 -0.6875,0 0,-1.265625 C 2.375,-1.96875 2.453125,-2.03125 2.65625,-2.15625 l 1,1.25 c 0.09375,0.125 0.25,0.3125 0.25,0.34375 0,0.09375 -0.171875,0.09375 -0.3125,0.09375 l 0,0.46875 c 0.296875,-0.015625 1.171875,-0.03125 1.21875,-0.03125 0.359375,0 0.703125,0.015625 1.046875,0.03125 l 0,-0.46875 -0.171875,0 c -0.4375,0 -0.46875,-0.046875 -0.59375,-0.203125 L 3.40625,-2.765625 4.703125,-3.78125 C 4.84375,-3.890625 4.9375,-3.953125 5.609375,-3.953125 l 0,-0.46875 c -0.28125,0.03125 -0.53125,0.03125 -0.78125,0.03125 -0.265625,0 -0.921875,-0.03125 -1.15625,-0.03125 l 0,0.46875 c 0.234375,0 0.265625,0.03125 0.34375,0.109375 z m 0,0"
               id="path5195" />
          </symbol>
          <symbol
             style="overflow:visible"
             overflow="visible"
             id="textext-1effa775-1">
            <path
               inkscape:connector-curvature="0"
               style="stroke:none"
               d="m 5.1875,-1.578125 c 0.109375,0 0.28125,0 0.28125,-0.15625 0,-0.1875 -0.171875,-0.1875 -0.28125,-0.1875 l -4.15625,0 c -0.109375,0 -0.28125,0 -0.28125,0.171875 0,0.171875 0.15625,0.171875 0.28125,0.171875 z m 0,0"
               id="path5198" />
          </symbol>
          <symbol
             style="overflow:visible"
             overflow="visible"
             id="textext-1effa775-2">
            <path
               inkscape:connector-curvature="0"
               style="stroke:none"
               d="M 3.0625,-4.359375 C 3.0625,-4.46875 2.96875,-4.625 2.78125,-4.625 c -0.203125,0 -0.390625,0.203125 -0.390625,0.390625 0,0.109375 0.078125,0.265625 0.28125,0.265625 0.1875,0 0.390625,-0.1875 0.390625,-0.390625 z M 1.578125,0.34375 C 1.46875,0.828125 1.09375,1.21875 0.6875,1.21875 c -0.09375,0 -0.171875,0 -0.25,-0.03125 0.171875,-0.09375 0.234375,-0.25 0.234375,-0.359375 0,-0.171875 -0.140625,-0.25 -0.28125,-0.25 C 0.1875,0.578125 0,0.765625 0,0.984375 c 0,0.265625 0.265625,0.4375 0.6875,0.4375 0.421875,0 1.234375,-0.25 1.453125,-1.09375 l 0.625,-2.5 c 0.015625,-0.078125 0.03125,-0.140625 0.03125,-0.25 0,-0.375 -0.328125,-0.65625 -0.734375,-0.65625 -0.78125,0 -1.21875,0.96875 -1.21875,1.078125 0,0.078125 0.09375,0.078125 0.109375,0.078125 0.078125,0 0.09375,-0.015625 0.140625,-0.125 C 1.265625,-2.453125 1.625,-2.875 2.03125,-2.875 c 0.171875,0 0.234375,0.109375 0.234375,0.34375 0,0.078125 0,0.171875 -0.015625,0.203125 z m 0,0"
               id="path5201" />
          </symbol>
        </g>
      </defs>
      <g
         id="textext-1effa775-3">
        <g
           style="fill:#000000;fill-opacity:1"
           id="g5204">
          <use
             height="1052.3622"
             width="744.09448"
             xlink:href="#textext-1effa775-0"
             x="223.43201"
             y="134.765"
             id="use5206" />
        </g>
        <g
           style="fill:#000000;fill-opacity:1"
           id="g5208">
          <use
             height="1052.3622"
             width="744.09448"
             xlink:href="#textext-1effa775-1"
             x="229.479"
             y="130.50301"
             id="use5210" />
        </g>
        <g
           style="fill:#000000;fill-opacity:1"
           id="g5212">
          <use
             height="1052.3622"
             width="744.09448"
             xlink:href="#textext-1effa775-2"
             x="229.479"
             y="137.54201"
             id="use5214" />
        </g>
      </g>
    </g>
    <g
       id="g5361"
       transform="matrix(1.8992193,0,0,1.8992193,-119.49509,122.5711)"
       ns0:preamble="/home/andrerei/.config/inkscape/extensions/preamble.inc"
       ns0:text="$\\mathbf{k}_{j}^{+}$"
       clip-path="url(#clipPath6064)">
      <defs
         id="defs5363">
        <g
           id="g5365">
          <symbol
             id="textext-c383d26d-0"
             overflow="visible">
            <path
               id="path5368"
               d="M 2.140625 -2.359375 L 2.140625 -6.921875 L 0.375 -6.84375 L 0.375 -6.375 C 0.984375 -6.375 1.0625 -6.375 1.0625 -5.984375 L 1.0625 -0.46875 L 0.375 -0.46875 L 0.375 0 C 0.734375 -0.015625 1.203125 -0.03125 1.5625 -0.03125 C 1.9375 -0.03125 2.40625 -0.015625 2.765625 0 L 2.765625 -0.46875 L 2.078125 -0.46875 L 2.078125 -1.734375 C 2.375 -1.96875 2.453125 -2.03125 2.65625 -2.15625 L 3.65625 -0.90625 C 3.75 -0.78125 3.90625 -0.59375 3.90625 -0.5625 C 3.90625 -0.46875 3.734375 -0.46875 3.59375 -0.46875 L 3.59375 0 C 3.890625 -0.015625 4.765625 -0.03125 4.8125 -0.03125 C 5.171875 -0.03125 5.515625 -0.015625 5.859375 0 L 5.859375 -0.46875 L 5.6875 -0.46875 C 5.25 -0.46875 5.21875 -0.515625 5.09375 -0.671875 L 3.40625 -2.765625 L 4.703125 -3.78125 C 4.84375 -3.890625 4.9375 -3.953125 5.609375 -3.953125 L 5.609375 -4.421875 C 5.328125 -4.390625 5.078125 -4.390625 4.828125 -4.390625 C 4.5625 -4.390625 3.90625 -4.421875 3.671875 -4.421875 L 3.671875 -3.953125 C 3.90625 -3.953125 3.9375 -3.921875 4.015625 -3.84375 Z M 2.140625 -2.359375 "
               style="stroke:none;" />
          </symbol>
          <symbol
             id="textext-c383d26d-1"
             overflow="visible">
            <path
               id="path5371"
               d="M 3.21875 -1.578125 L 5.359375 -1.578125 C 5.453125 -1.578125 5.609375 -1.578125 5.609375 -1.734375 C 5.609375 -1.921875 5.453125 -1.921875 5.359375 -1.921875 L 3.21875 -1.921875 L 3.21875 -4.0625 C 3.21875 -4.140625 3.21875 -4.3125 3.0625 -4.3125 C 2.890625 -4.3125 2.890625 -4.15625 2.890625 -4.0625 L 2.890625 -1.921875 L 0.75 -1.921875 C 0.65625 -1.921875 0.484375 -1.921875 0.484375 -1.75 C 0.484375 -1.578125 0.640625 -1.578125 0.75 -1.578125 L 2.890625 -1.578125 L 2.890625 0.5625 C 2.890625 0.65625 2.890625 0.828125 3.046875 0.828125 C 3.21875 0.828125 3.21875 0.65625 3.21875 0.5625 Z M 3.21875 -1.578125 "
               style="stroke:none;" />
          </symbol>
          <symbol
             id="textext-c383d26d-2"
             overflow="visible">
            <path
               id="path5374"
               d="M 3.0625 -4.359375 C 3.0625 -4.46875 2.96875 -4.625 2.78125 -4.625 C 2.578125 -4.625 2.390625 -4.421875 2.390625 -4.234375 C 2.390625 -4.125 2.46875 -3.96875 2.671875 -3.96875 C 2.859375 -3.96875 3.0625 -4.15625 3.0625 -4.359375 Z M 1.578125 0.34375 C 1.46875 0.828125 1.09375 1.21875 0.6875 1.21875 C 0.59375 1.21875 0.515625 1.21875 0.4375 1.1875 C 0.609375 1.09375 0.671875 0.9375 0.671875 0.828125 C 0.671875 0.65625 0.53125 0.578125 0.390625 0.578125 C 0.1875 0.578125 0 0.765625 0 0.984375 C 0 1.25 0.265625 1.421875 0.6875 1.421875 C 1.109375 1.421875 1.921875 1.171875 2.140625 0.328125 L 2.765625 -2.171875 C 2.78125 -2.25 2.796875 -2.3125 2.796875 -2.421875 C 2.796875 -2.796875 2.46875 -3.078125 2.0625 -3.078125 C 1.28125 -3.078125 0.84375 -2.109375 0.84375 -2 C 0.84375 -1.921875 0.9375 -1.921875 0.953125 -1.921875 C 1.03125 -1.921875 1.046875 -1.9375 1.09375 -2.046875 C 1.265625 -2.453125 1.625 -2.875 2.03125 -2.875 C 2.203125 -2.875 2.265625 -2.765625 2.265625 -2.53125 C 2.265625 -2.453125 2.265625 -2.359375 2.25 -2.328125 Z M 1.578125 0.34375 "
               style="stroke:none;" />
          </symbol>
        </g>
      </defs>
      <g
         id="textext-c383d26d-3">
        <g
           id="g5377"
           style="fill:rgb(0%,0%,0%);fill-opacity:1;">
          <use
             id="use5379"
             y="134.765"
             x="223.432"
             xlink:href="#textext-c383d26d-0" />
        </g>
        <g
           id="g5381"
           style="fill:rgb(0%,0%,0%);fill-opacity:1;">
          <use
             id="use5383"
             y="130.503"
             x="229.479"
             xlink:href="#textext-c383d26d-1" />
        </g>
        <g
           id="g5385"
           style="fill:rgb(0%,0%,0%);fill-opacity:1;">
          <use
             id="use5387"
             y="137.542"
             x="229.479"
             xlink:href="#textext-c383d26d-2" />
        </g>
      </g>
    </g>
    <g
       ns0:text="$\\mathbf{k}_{j+1}^{+}$"
       ns0:preamble="/home/andrerei/.config/inkscape/extensions/preamble.inc"
       transform="matrix(1.8992193,0,0,1.8992193,-272.20145,302.72501)"
       id="g5705"
       clip-path="url(#clipPath6060)">
      <defs
         id="defs5707">
        <g
           id="g5709">
          <symbol
             overflow="visible"
             id="textext-4b66ec08-0">
            <path
               style="stroke:none;"
               d="M 2.140625 -2.359375 L 2.140625 -6.921875 L 0.375 -6.84375 L 0.375 -6.375 C 0.984375 -6.375 1.0625 -6.375 1.0625 -5.984375 L 1.0625 -0.46875 L 0.375 -0.46875 L 0.375 0 C 0.734375 -0.015625 1.203125 -0.03125 1.5625 -0.03125 C 1.9375 -0.03125 2.40625 -0.015625 2.765625 0 L 2.765625 -0.46875 L 2.078125 -0.46875 L 2.078125 -1.734375 C 2.375 -1.96875 2.453125 -2.03125 2.65625 -2.15625 L 3.65625 -0.90625 C 3.75 -0.78125 3.90625 -0.59375 3.90625 -0.5625 C 3.90625 -0.46875 3.734375 -0.46875 3.59375 -0.46875 L 3.59375 0 C 3.890625 -0.015625 4.765625 -0.03125 4.8125 -0.03125 C 5.171875 -0.03125 5.515625 -0.015625 5.859375 0 L 5.859375 -0.46875 L 5.6875 -0.46875 C 5.25 -0.46875 5.21875 -0.515625 5.09375 -0.671875 L 3.40625 -2.765625 L 4.703125 -3.78125 C 4.84375 -3.890625 4.9375 -3.953125 5.609375 -3.953125 L 5.609375 -4.421875 C 5.328125 -4.390625 5.078125 -4.390625 4.828125 -4.390625 C 4.5625 -4.390625 3.90625 -4.421875 3.671875 -4.421875 L 3.671875 -3.953125 C 3.90625 -3.953125 3.9375 -3.921875 4.015625 -3.84375 Z M 2.140625 -2.359375 "
               id="path5712" />
          </symbol>
          <symbol
             overflow="visible"
             id="textext-4b66ec08-1">
            <path
               style="stroke:none;"
               d="M 3.21875 -1.578125 L 5.359375 -1.578125 C 5.453125 -1.578125 5.609375 -1.578125 5.609375 -1.734375 C 5.609375 -1.921875 5.453125 -1.921875 5.359375 -1.921875 L 3.21875 -1.921875 L 3.21875 -4.0625 C 3.21875 -4.140625 3.21875 -4.3125 3.0625 -4.3125 C 2.890625 -4.3125 2.890625 -4.15625 2.890625 -4.0625 L 2.890625 -1.921875 L 0.75 -1.921875 C 0.65625 -1.921875 0.484375 -1.921875 0.484375 -1.75 C 0.484375 -1.578125 0.640625 -1.578125 0.75 -1.578125 L 2.890625 -1.578125 L 2.890625 0.5625 C 2.890625 0.65625 2.890625 0.828125 3.046875 0.828125 C 3.21875 0.828125 3.21875 0.65625 3.21875 0.5625 Z M 3.21875 -1.578125 "
               id="path5715" />
          </symbol>
          <symbol
             overflow="visible"
             id="textext-4b66ec08-2">
            <path
               style="stroke:none;"
               d="M 2.328125 -4.4375 C 2.328125 -4.625 2.328125 -4.625 2.125 -4.625 C 1.671875 -4.1875 1.046875 -4.1875 0.765625 -4.1875 L 0.765625 -3.9375 C 0.921875 -3.9375 1.390625 -3.9375 1.765625 -4.125 L 1.765625 -0.578125 C 1.765625 -0.34375 1.765625 -0.25 1.078125 -0.25 L 0.8125 -0.25 L 0.8125 0 C 0.9375 0 1.796875 -0.03125 2.046875 -0.03125 C 2.265625 -0.03125 3.140625 0 3.296875 0 L 3.296875 -0.25 L 3.03125 -0.25 C 2.328125 -0.25 2.328125 -0.34375 2.328125 -0.578125 Z M 2.328125 -4.4375 "
               id="path5718" />
          </symbol>
          <symbol
             overflow="visible"
             id="textext-4b66ec08-3">
            <path
               style="stroke:none;"
               d="M 3.0625 -4.359375 C 3.0625 -4.46875 2.96875 -4.625 2.78125 -4.625 C 2.578125 -4.625 2.390625 -4.421875 2.390625 -4.234375 C 2.390625 -4.125 2.46875 -3.96875 2.671875 -3.96875 C 2.859375 -3.96875 3.0625 -4.15625 3.0625 -4.359375 Z M 1.578125 0.34375 C 1.46875 0.828125 1.09375 1.21875 0.6875 1.21875 C 0.59375 1.21875 0.515625 1.21875 0.4375 1.1875 C 0.609375 1.09375 0.671875 0.9375 0.671875 0.828125 C 0.671875 0.65625 0.53125 0.578125 0.390625 0.578125 C 0.1875 0.578125 0 0.765625 0 0.984375 C 0 1.25 0.265625 1.421875 0.6875 1.421875 C 1.109375 1.421875 1.921875 1.171875 2.140625 0.328125 L 2.765625 -2.171875 C 2.78125 -2.25 2.796875 -2.3125 2.796875 -2.421875 C 2.796875 -2.796875 2.46875 -3.078125 2.0625 -3.078125 C 1.28125 -3.078125 0.84375 -2.109375 0.84375 -2 C 0.84375 -1.921875 0.9375 -1.921875 0.953125 -1.921875 C 1.03125 -1.921875 1.046875 -1.9375 1.09375 -2.046875 C 1.265625 -2.453125 1.625 -2.875 2.03125 -2.875 C 2.203125 -2.875 2.265625 -2.765625 2.265625 -2.53125 C 2.265625 -2.453125 2.265625 -2.359375 2.25 -2.328125 Z M 1.578125 0.34375 "
               id="path5721" />
          </symbol>
        </g>
      </defs>
      <g
         id="textext-4b66ec08-4">
        <g
           style="fill:rgb(0%,0%,0%);fill-opacity:1;"
           id="g5724">
          <use
             xlink:href="#textext-4b66ec08-0"
             x="223.432"
             y="134.765"
             id="use5726" />
        </g>
        <g
           style="fill:rgb(0%,0%,0%);fill-opacity:1;"
           id="g5728">
          <use
             xlink:href="#textext-4b66ec08-1"
             x="229.479"
             y="130.503"
             id="use5730" />
        </g>
        <g
           style="fill:rgb(0%,0%,0%);fill-opacity:1;"
           id="g5732">
          <use
             xlink:href="#textext-4b66ec08-3"
             x="229.479"
             y="137.542"
             id="use5734" />
        </g>
        <g
           style="fill:rgb(0%,0%,0%);fill-opacity:1;"
           id="g5736">
          <use
             xlink:href="#textext-4b66ec08-1"
             x="233.179"
             y="137.542"
             id="use5738" />
          <use
             xlink:href="#textext-4b66ec08-2"
             x="239.295023"
             y="137.542"
             id="use5740" />
        </g>
      </g>
    </g>
    <g
       id="g5914"
       transform="matrix(1.8992193,0,0,1.8992193,-119.49509,302.5711)"
       ns0:preamble="/home/andrerei/.config/inkscape/extensions/preamble.inc"
       ns0:text="$\\mathbf{k}_{j+1}^{-}$"
       clip-path="url(#clipPath6056)">
      <defs
         id="defs5916">
        <g
           id="g5918">
          <symbol
             id="textext-b7aca4bb-0"
             overflow="visible">
            <path
               id="path5921"
               d="M 2.140625 -2.359375 L 2.140625 -6.921875 L 0.375 -6.84375 L 0.375 -6.375 C 0.984375 -6.375 1.0625 -6.375 1.0625 -5.984375 L 1.0625 -0.46875 L 0.375 -0.46875 L 0.375 0 C 0.734375 -0.015625 1.203125 -0.03125 1.5625 -0.03125 C 1.9375 -0.03125 2.40625 -0.015625 2.765625 0 L 2.765625 -0.46875 L 2.078125 -0.46875 L 2.078125 -1.734375 C 2.375 -1.96875 2.453125 -2.03125 2.65625 -2.15625 L 3.65625 -0.90625 C 3.75 -0.78125 3.90625 -0.59375 3.90625 -0.5625 C 3.90625 -0.46875 3.734375 -0.46875 3.59375 -0.46875 L 3.59375 0 C 3.890625 -0.015625 4.765625 -0.03125 4.8125 -0.03125 C 5.171875 -0.03125 5.515625 -0.015625 5.859375 0 L 5.859375 -0.46875 L 5.6875 -0.46875 C 5.25 -0.46875 5.21875 -0.515625 5.09375 -0.671875 L 3.40625 -2.765625 L 4.703125 -3.78125 C 4.84375 -3.890625 4.9375 -3.953125 5.609375 -3.953125 L 5.609375 -4.421875 C 5.328125 -4.390625 5.078125 -4.390625 4.828125 -4.390625 C 4.5625 -4.390625 3.90625 -4.421875 3.671875 -4.421875 L 3.671875 -3.953125 C 3.90625 -3.953125 3.9375 -3.921875 4.015625 -3.84375 Z M 2.140625 -2.359375 "
               style="stroke:none;" />
          </symbol>
          <symbol
             id="textext-b7aca4bb-1"
             overflow="visible">
            <path
               id="path5924"
               d="M 5.1875 -1.578125 C 5.296875 -1.578125 5.46875 -1.578125 5.46875 -1.734375 C 5.46875 -1.921875 5.296875 -1.921875 5.1875 -1.921875 L 1.03125 -1.921875 C 0.921875 -1.921875 0.75 -1.921875 0.75 -1.75 C 0.75 -1.578125 0.90625 -1.578125 1.03125 -1.578125 Z M 5.1875 -1.578125 "
               style="stroke:none;" />
          </symbol>
          <symbol
             id="textext-b7aca4bb-2"
             overflow="visible">
            <path
               id="path5927"
               d="M 3.0625 -4.359375 C 3.0625 -4.46875 2.96875 -4.625 2.78125 -4.625 C 2.578125 -4.625 2.390625 -4.421875 2.390625 -4.234375 C 2.390625 -4.125 2.46875 -3.96875 2.671875 -3.96875 C 2.859375 -3.96875 3.0625 -4.15625 3.0625 -4.359375 Z M 1.578125 0.34375 C 1.46875 0.828125 1.09375 1.21875 0.6875 1.21875 C 0.59375 1.21875 0.515625 1.21875 0.4375 1.1875 C 0.609375 1.09375 0.671875 0.9375 0.671875 0.828125 C 0.671875 0.65625 0.53125 0.578125 0.390625 0.578125 C 0.1875 0.578125 0 0.765625 0 0.984375 C 0 1.25 0.265625 1.421875 0.6875 1.421875 C 1.109375 1.421875 1.921875 1.171875 2.140625 0.328125 L 2.765625 -2.171875 C 2.78125 -2.25 2.796875 -2.3125 2.796875 -2.421875 C 2.796875 -2.796875 2.46875 -3.078125 2.0625 -3.078125 C 1.28125 -3.078125 0.84375 -2.109375 0.84375 -2 C 0.84375 -1.921875 0.9375 -1.921875 0.953125 -1.921875 C 1.03125 -1.921875 1.046875 -1.9375 1.09375 -2.046875 C 1.265625 -2.453125 1.625 -2.875 2.03125 -2.875 C 2.203125 -2.875 2.265625 -2.765625 2.265625 -2.53125 C 2.265625 -2.453125 2.265625 -2.359375 2.25 -2.328125 Z M 1.578125 0.34375 "
               style="stroke:none;" />
          </symbol>
          <symbol
             id="textext-b7aca4bb-3"
             overflow="visible">
            <path
               id="path5930"
               d="M 3.21875 -1.578125 L 5.359375 -1.578125 C 5.453125 -1.578125 5.609375 -1.578125 5.609375 -1.734375 C 5.609375 -1.921875 5.453125 -1.921875 5.359375 -1.921875 L 3.21875 -1.921875 L 3.21875 -4.0625 C 3.21875 -4.140625 3.21875 -4.3125 3.0625 -4.3125 C 2.890625 -4.3125 2.890625 -4.15625 2.890625 -4.0625 L 2.890625 -1.921875 L 0.75 -1.921875 C 0.65625 -1.921875 0.484375 -1.921875 0.484375 -1.75 C 0.484375 -1.578125 0.640625 -1.578125 0.75 -1.578125 L 2.890625 -1.578125 L 2.890625 0.5625 C 2.890625 0.65625 2.890625 0.828125 3.046875 0.828125 C 3.21875 0.828125 3.21875 0.65625 3.21875 0.5625 Z M 3.21875 -1.578125 "
               style="stroke:none;" />
          </symbol>
          <symbol
             id="textext-b7aca4bb-4"
             overflow="visible">
            <path
               id="path5933"
               d="M 2.328125 -4.4375 C 2.328125 -4.625 2.328125 -4.625 2.125 -4.625 C 1.671875 -4.1875 1.046875 -4.1875 0.765625 -4.1875 L 0.765625 -3.9375 C 0.921875 -3.9375 1.390625 -3.9375 1.765625 -4.125 L 1.765625 -0.578125 C 1.765625 -0.34375 1.765625 -0.25 1.078125 -0.25 L 0.8125 -0.25 L 0.8125 0 C 0.9375 0 1.796875 -0.03125 2.046875 -0.03125 C 2.265625 -0.03125 3.140625 0 3.296875 0 L 3.296875 -0.25 L 3.03125 -0.25 C 2.328125 -0.25 2.328125 -0.34375 2.328125 -0.578125 Z M 2.328125 -4.4375 "
               style="stroke:none;" />
          </symbol>
        </g>
      </defs>
      <g
         id="textext-b7aca4bb-5">
        <g
           id="g5936"
           style="fill:rgb(0%,0%,0%);fill-opacity:1;">
          <use
             id="use5938"
             y="134.765"
             x="223.432"
             xlink:href="#textext-b7aca4bb-0" />
        </g>
        <g
           id="g5940"
           style="fill:rgb(0%,0%,0%);fill-opacity:1;">
          <use
             id="use5942"
             y="130.503"
             x="229.479"
             xlink:href="#textext-b7aca4bb-1" />
        </g>
        <g
           id="g5944"
           style="fill:rgb(0%,0%,0%);fill-opacity:1;">
          <use
             id="use5946"
             y="137.542"
             x="229.479"
             xlink:href="#textext-b7aca4bb-2" />
        </g>
        <g
           id="g5948"
           style="fill:rgb(0%,0%,0%);fill-opacity:1;">
          <use
             id="use5950"
             y="137.542"
             x="233.179"
             xlink:href="#textext-b7aca4bb-3" />
          <use
             id="use5952"
             y="137.542"
             x="239.295023"
             xlink:href="#textext-b7aca4bb-4" />
        </g>
      </g>
    </g>
  </g>
</svg>
