<?xml version="1.0" encoding="UTF-8" standalone="no"?>
<!-- Created with Inkscape (http://www.inkscape.org/) -->

<svg
   xmlns:dc="http://purl.org/dc/elements/1.1/"
   xmlns:cc="http://creativecommons.org/ns#"
   xmlns:rdf="http://www.w3.org/1999/02/22-rdf-syntax-ns#"
   xmlns:svg="http://www.w3.org/2000/svg"
   xmlns="http://www.w3.org/2000/svg"
   xmlns:sodipodi="http://sodipodi.sourceforge.net/DTD/sodipodi-0.dtd"
   xmlns:inkscape="http://www.inkscape.org/namespaces/inkscape"
   width="744.09448819"
   height="1052.3622047"
   id="svg2"
   version="1.1"
   inkscape:version="0.48.1 r9760"
   sodipodi:docname="qscans.svg">
  <sodipodi:namedview
     id="base"
     pagecolor="#ffffff"
     bordercolor="#666666"
     borderopacity="1.0"
     inkscape:pageopacity="0.0"
     inkscape:pageshadow="2"
     inkscape:zoom="1.4"
     inkscape:cx="700.20305"
     inkscape:cy="654.99639"
     inkscape:document-units="px"
     inkscape:current-layer="layer1"
     showgrid="true"
     inkscape:window-width="1912"
     inkscape:window-height="1122"
     inkscape:window-x="0"
     inkscape:window-y="25"
     inkscape:window-maximized="0">
    <inkscape:grid
       id="grid2985"
       type="xygrid" />
  </sodipodi:namedview>
  <defs
     id="defs4">
    <marker
       style="overflow:visible"
       id="Arrow1Mstart"
       refX="0.0"
       refY="0.0"
       orient="auto"
       inkscape:stockid="Arrow1Mstart">
      <path
         transform="scale(0.4) translate(10,0)"
         style="fill-rule:evenodd;stroke:#000000;stroke-width:1.0pt;marker-start:none"
         d="M 0.0,0.0 L 5.0,-5.0 L -12.5,0.0 L 5.0,5.0 L 0.0,0.0 z "
         id="path3788" />
    </marker>
    <marker
       style="overflow:visible"
       id="Arrow2Lstart"
       refX="0.0"
       refY="0.0"
       orient="auto"
       inkscape:stockid="Arrow2Lstart">
      <path
         transform="scale(1.1) translate(1,0)"
         d="M 8.7185878,4.0337352 L -2.2072895,0.016013256 L 8.7185884,-4.0017078 C 6.9730900,-1.6296469 6.9831476,1.6157441 8.7185878,4.0337352 z "
         style="font-size:12.0;fill-rule:evenodd;stroke-width:0.62500000;stroke-linejoin:round"
         id="path3800" />
    </marker>
    <marker
       style="overflow:visible"
       id="Arrow1Lstart"
       refX="0.0"
       refY="0.0"
       orient="auto"
       inkscape:stockid="Arrow1Lstart">
      <path
         transform="scale(0.8) translate(12.5,0)"
         style="fill-rule:evenodd;stroke:#000000;stroke-width:1.0pt;marker-start:none"
         d="M 0.0,0.0 L 5.0,-5.0 L -12.5,0.0 L 5.0,5.0 L 0.0,0.0 z "
         id="path3782" />
    </marker>
    <marker
       style="overflow:visible"
       id="Arrow2Mstart"
       refX="0.0"
       refY="0.0"
       orient="auto"
       inkscape:stockid="Arrow2Mstart">
      <path
         transform="scale(0.6) translate(0,0)"
         d="M 8.7185878,4.0337352 L -2.2072895,0.016013256 L 8.7185884,-4.0017078 C 6.9730900,-1.6296469 6.9831476,1.6157441 8.7185878,4.0337352 z "
         style="font-size:12.0;fill-rule:evenodd;stroke-width:0.62500000;stroke-linejoin:round"
         id="path3806" />
    </marker>
    <marker
       style="overflow:visible;"
       id="Arrow2Mend"
       refX="0.0"
       refY="0.0"
       orient="auto"
       inkscape:stockid="Arrow2Mend">
      <path
         transform="scale(0.6) rotate(180) translate(0,0)"
         d="M 8.7185878,4.0337352 L -2.2072895,0.016013256 L 8.7185884,-4.0017078 C 6.9730900,-1.6296469 6.9831476,1.6157441 8.7185878,4.0337352 z "
         style="font-size:12.0;fill-rule:evenodd;stroke-width:0.62500000;stroke-linejoin:round;"
         id="path3809" />
    </marker>
    <marker
       style="overflow:visible;"
       id="Arrow1Mend"
       refX="0.0"
       refY="0.0"
       orient="auto"
       inkscape:stockid="Arrow1Mend">
      <path
         transform="scale(0.4) rotate(180) translate(10,0)"
         style="fill-rule:evenodd;stroke:#000000;stroke-width:1.0pt;marker-start:none;"
         d="M 0.0,0.0 L 5.0,-5.0 L -12.5,0.0 L 5.0,5.0 L 0.0,0.0 z "
         id="path3791" />
    </marker>
    <marker
       style="overflow:visible"
       id="Arrow1MstartE"
       refX="0.0"
       refY="0.0"
       orient="auto"
       inkscape:stockid="Arrow1MstartE">
      <path
         transform="scale(0.4) translate(10,0)"
         style="marker-start:none;stroke:#ff0000;stroke-width:1.0pt;fill:#ff0000;fill-rule:evenodd"
         d="M 0.0,0.0 L 5.0,-5.0 L -12.5,0.0 L 5.0,5.0 L 0.0,0.0 z "
         id="path6557" />
    </marker>
    <marker
       style="overflow:visible;"
       id="Arrow1MendJ"
       refX="0.0"
       refY="0.0"
       orient="auto"
       inkscape:stockid="Arrow1MendJ">
      <path
         transform="scale(0.4) rotate(180) translate(10,0)"
         style="marker-start:none;stroke:#ff0000;stroke-width:1.0pt;fill:#ff0000;fill-rule:evenodd"
         d="M 0.0,0.0 L 5.0,-5.0 L -12.5,0.0 L 5.0,5.0 L 0.0,0.0 z "
         id="path6560" />
    </marker>
    <marker
       style="overflow:visible"
       id="Arrow1MstartE-1"
       refX="0"
       refY="0"
       orient="auto"
       inkscape:stockid="Arrow1MstartE">
      <path
         inkscape:connector-curvature="0"
         transform="matrix(0.4,0,0,0.4,4,0)"
         style="fill:#ff0000;fill-rule:evenodd;stroke:#ff0000;stroke-width:1pt;marker-start:none"
         d="M 0,0 5,-5 -12.5,0 5,5 0,0 z"
         id="path6557-1" />
    </marker>
    <marker
       style="overflow:visible"
       id="Arrow1MendJ-0"
       refX="0"
       refY="0"
       orient="auto"
       inkscape:stockid="Arrow1MendJ">
      <path
         inkscape:connector-curvature="0"
         transform="matrix(-0.4,0,0,-0.4,-4,0)"
         style="fill:#ff0000;fill-rule:evenodd;stroke:#ff0000;stroke-width:1pt;marker-start:none"
         d="M 0,0 5,-5 -12.5,0 5,5 0,0 z"
         id="path6560-1" />
    </marker>
    <marker
       style="overflow:visible"
       id="Arrow1MstartE-4"
       refX="0"
       refY="0"
       orient="auto"
       inkscape:stockid="Arrow1MstartE">
      <path
         inkscape:connector-curvature="0"
         transform="matrix(0.4,0,0,0.4,4,0)"
         style="fill:#ff0000;fill-rule:evenodd;stroke:#ff0000;stroke-width:1pt;marker-start:none"
         d="M 0,0 5,-5 -12.5,0 5,5 0,0 z"
         id="path6557-9" />
    </marker>
    <marker
       style="overflow:visible"
       id="Arrow1MendJ-3"
       refX="0"
       refY="0"
       orient="auto"
       inkscape:stockid="Arrow1MendJ">
      <path
         inkscape:connector-curvature="0"
         transform="matrix(-0.4,0,0,-0.4,-4,0)"
         style="fill:#ff0000;fill-rule:evenodd;stroke:#ff0000;stroke-width:1pt;marker-start:none"
         d="M 0,0 5,-5 -12.5,0 5,5 0,0 z"
         id="path6560-7" />
    </marker>
    <marker
       style="overflow:visible"
       id="Arrow1MstartE-3"
       refX="0"
       refY="0"
       orient="auto"
       inkscape:stockid="Arrow1MstartE">
      <path
         inkscape:connector-curvature="0"
         transform="matrix(0.4,0,0,0.4,4,0)"
         style="fill:#ff0000;fill-rule:evenodd;stroke:#ff0000;stroke-width:1pt;marker-start:none"
         d="M 0,0 5,-5 -12.5,0 5,5 0,0 z"
         id="path6557-4" />
    </marker>
    <marker
       style="overflow:visible"
       id="Arrow1MendJ-8"
       refX="0"
       refY="0"
       orient="auto"
       inkscape:stockid="Arrow1MendJ">
      <path
         inkscape:connector-curvature="0"
         transform="matrix(-0.4,0,0,-0.4,-4,0)"
         style="fill:#ff0000;fill-rule:evenodd;stroke:#ff0000;stroke-width:1pt;marker-start:none"
         d="M 0,0 5,-5 -12.5,0 5,5 0,0 z"
         id="path6560-2" />
    </marker>
  </defs>
  <metadata
     id="metadata7">
    <rdf:RDF>
      <cc:Work
         rdf:about="">
        <dc:format>image/svg+xml</dc:format>
        <dc:type
           rdf:resource="http://purl.org/dc/dcmitype/StillImage" />
        <dc:title />
      </cc:Work>
    </rdf:RDF>
  </metadata>
  <g
     id="layer1"
     inkscape:groupmode="layer"
     inkscape:label="Layer 1">
    <rect
       y="422.36218"
       x="75"
       height="250"
       width="250"
       id="rect3755"
       style="fill:none;stroke:#000000;stroke-width:0.57999998;stroke-miterlimit:4;stroke-opacity:1;stroke-dasharray:none" />
    <path
       inkscape:connector-curvature="0"
       id="path3757"
       d="m 530,362.36218 0,250"
       style="fill:none;stroke:#000000;stroke-width:1;stroke-linecap:butt;stroke-linejoin:miter;stroke-opacity:1;stroke-miterlimit:4;stroke-dasharray:none;marker-mid:none;marker-start:url(#Arrow2Mstart)" />
    <path
       inkscape:connector-curvature="0"
       id="path4426"
       d="m 400,612.36218 250,0"
       style="fill:none;stroke:#000000;stroke-width:1;stroke-linecap:butt;stroke-linejoin:miter;stroke-opacity:1;marker-start:none;marker-end:url(#Arrow2Mend);stroke-miterlimit:4;stroke-dasharray:none" />
    <path
       sodipodi:nodetypes="ccccccccccc"
       inkscape:connector-curvature="0"
       id="path5716"
       d="m 340,333.79074 2,0.28572 0,-202 -2,0.28572 5,-4.28572 5,4.28572 -2,-0.28572 0,202 2,-0.28572 -5,4.28572 z"
       style="fill:#ff5036;fill-opacity:0.69037655;stroke:#000000;stroke-width:0.37032804;stroke-linecap:butt;stroke-linejoin:miter;stroke-miterlimit:4;stroke-opacity:1;stroke-dasharray:none" />
    <path
       sodipodi:nodetypes="ccccccccccc"
       inkscape:connector-curvature="0"
       id="path5716-8"
       d="m 431.22367,345.36218 0.84947,2 197.92686,0 0.84947,-2 4.24736,5 -4.24736,5 -0.84947,-2 -197.92686,0 -0.84947,2 -4.24736,-5 z"
       style="fill:#ff5036;fill-opacity:0.69037655;stroke:#000000;stroke-width:0.36866713;stroke-linecap:butt;stroke-linejoin:miter;stroke-miterlimit:4;stroke-opacity:1;stroke-dasharray:none" />
    <path
       sodipodi:nodetypes="ccccccccccc"
       inkscape:connector-curvature="0"
       id="path5716-5"
       d="m 428.57144,264.50504 0.85712,2 199.71428,-1e-5 0.85715,-2 4.28572,5 -4.28572,5 -0.85715,-2 -199.71428,1e-5 -0.85712,2 -4.28573,-5 z"
       style="fill:#ff5036;fill-opacity:0.69037655;stroke:#000000;stroke-width:0.37032804;stroke-linecap:butt;stroke-linejoin:miter;stroke-miterlimit:4;stroke-opacity:1;stroke-dasharray:none" />
    <path
       inkscape:connector-curvature="0"
       id="path5772"
       d="m 530,392.36218 0,200"
       style="fill:#ff0000;stroke:#ff0000;stroke-width:1.60000002;stroke-linecap:butt;stroke-linejoin:miter;stroke-miterlimit:4;stroke-opacity:1;stroke-dasharray:6.4, 1.6;stroke-dashoffset:0;marker-start:url(#Arrow1MstartE);marker-end:url(#Arrow1MendJ)" />
    <path
       inkscape:connector-curvature="0"
       id="path5772-8"
       d="m 869.35714,377.36218 c 0,0 -49.35714,-15 -99.35714,-15 -50,0 -100.64286,15 -100.64286,15"
       style="fill:none;stroke:#ff0000;stroke-width:1.60000002;stroke-linecap:butt;stroke-linejoin:miter;stroke-miterlimit:4;stroke-opacity:1;stroke-dasharray:6.4, 1.6;stroke-dashoffset:0;marker-start:url(#Arrow1MstartE);marker-end:url(#Arrow1MendJ)"
       sodipodi:nodetypes="csc" />
    <rect
       style="fill:none;stroke:#ff0000;stroke-width:1.62038302;stroke-miterlimit:4;stroke-opacity:1;stroke-dasharray:6.48153195, 1.62038299;stroke-dashoffset:0"
       id="rect6630"
       width="200"
       height="80"
       x="670"
       y="287.36218" />
    <rect
       style="fill:none;stroke:#ff0000;stroke-width:1.14578378;stroke-miterlimit:4;stroke-opacity:1;stroke-dasharray:4.58313519, 1.1457838;stroke-dashoffset:0"
       id="rect6630-2"
       width="100"
       height="80"
       x="670"
       y="287.36218" />
    <rect
       style="fill:none;stroke:#ff0000;stroke-width:1.14578378;stroke-miterlimit:4;stroke-opacity:1;stroke-dasharray:4.58313519, 1.1457838;stroke-dashoffset:0"
       id="rect6630-2-1"
       width="100"
       height="80"
       x="770"
       y="287.36218" />
    <path
       inkscape:connector-curvature="0"
       id="path5772-8-7"
       d="m 629.35714,467.36218 c 0,0 -49.35714,-15 -99.35714,-15 -50,0 -100.64286,15 -100.64286,15"
       style="fill:none;stroke:#ff0000;stroke-width:1.60000002;stroke-linecap:butt;stroke-linejoin:miter;stroke-miterlimit:4;stroke-opacity:1;stroke-dasharray:6.4, 1.6;stroke-dashoffset:0;marker-start:url(#Arrow1MstartE);marker-end:url(#Arrow1MendJ)"
       sodipodi:nodetypes="csc" />
    <path
       inkscape:connector-curvature="0"
       id="path5772-8-7-7"
       d="m 610,532.36218 c 0,0 -30,-10 -80,-10 -50,0 -80,10 -80,10"
       style="fill:none;stroke:#ff0000;stroke-width:1.60000002;stroke-linecap:butt;stroke-linejoin:miter;stroke-miterlimit:4;stroke-opacity:1;stroke-dasharray:6.4, 1.6;stroke-dashoffset:0;marker-start:url(#Arrow1MstartE);marker-end:url(#Arrow1MendJ)"
       sodipodi:nodetypes="csc" />
  </g>
</svg>
