<?xml version="1.0" encoding="UTF-8" standalone="no"?>
<!-- Created with Inkscape (http://www.inkscape.org/) -->

<svg
   xmlns:ns0="http://www.iki.fi/pav/software/textext/"
   xmlns:dc="http://purl.org/dc/elements/1.1/"
   xmlns:cc="http://creativecommons.org/ns#"
   xmlns:rdf="http://www.w3.org/1999/02/22-rdf-syntax-ns#"
   xmlns:svg="http://www.w3.org/2000/svg"
   xmlns="http://www.w3.org/2000/svg"
   xmlns:xlink="http://www.w3.org/1999/xlink"
   xmlns:sodipodi="http://sodipodi.sourceforge.net/DTD/sodipodi-0.dtd"
   xmlns:inkscape="http://www.inkscape.org/namespaces/inkscape"
   width="744.09448819"
   height="1052.3622047"
   id="svg2"
   version="1.1"
   inkscape:version="0.48.1 r9760"
   sodipodi:docname="scattering.svg">
  <sodipodi:namedview
     id="base"
     pagecolor="#ffffff"
     bordercolor="#666666"
     borderopacity="1.0"
     inkscape:pageopacity="0.0"
     inkscape:pageshadow="2"
     inkscape:zoom="2.8"
     inkscape:cx="270.64301"
     inkscape:cy="496.41782"
     inkscape:document-units="px"
     inkscape:current-layer="layer1"
     showgrid="false"
     inkscape:window-width="1680"
     inkscape:window-height="976"
     inkscape:window-x="0"
     inkscape:window-y="24"
     inkscape:window-maximized="1">
    <inkscape:grid
       type="xygrid"
       id="grid2985" />
  </sodipodi:namedview>
  <defs
     id="defs4">
    <marker
       inkscape:stockid="Arrow1Mend"
       orient="auto"
       refY="0.0"
       refX="0.0"
       id="Arrow1Mend"
       style="overflow:visible;">
      <path
         id="path3928"
         d="M 0.0,0.0 L 5.0,-5.0 L -12.5,0.0 L 5.0,5.0 L 0.0,0.0 z "
         style="fill-rule:evenodd;stroke:#000000;stroke-width:1.0pt;marker-start:none;"
         transform="scale(0.4) rotate(180) translate(10,0)" />
    </marker>
    <marker
       inkscape:stockid="TriangleInM"
       orient="auto"
       refY="0.0"
       refX="0.0"
       id="TriangleInM"
       style="overflow:visible">
      <path
         id="path4200"
         d="M 5.77,0.0 L -2.88,5.0 L -2.88,-5.0 L 5.77,0.0 z "
         style="fill-rule:evenodd;stroke:#000000;stroke-width:1.0pt;marker-start:none"
         transform="scale(-0.4)" />
    </marker>
    <marker
       inkscape:stockid="TriangleOutM"
       orient="auto"
       refY="0.0"
       refX="0.0"
       id="TriangleOutM"
       style="overflow:visible">
      <path
         id="path4209"
         d="M 5.77,0.0 L -2.88,5.0 L -2.88,-5.0 L 5.77,0.0 z "
         style="fill-rule:evenodd;stroke:#000000;stroke-width:1.0pt;marker-start:none"
         transform="scale(0.4)" />
    </marker>
    <filter
       inkscape:collect="always"
       id="filter5078">
      <feGaussianBlur
         inkscape:collect="always"
         stdDeviation="3.432477"
         id="feGaussianBlur5080" />
    </filter>
    <marker
       inkscape:stockid="Arrow1Mend"
       orient="auto"
       refY="0"
       refX="0"
       id="Arrow1Mend-2"
       style="overflow:visible">
      <path
         inkscape:connector-curvature="0"
         id="path3928-7"
         d="M 0,0 5,-5 -12.5,0 5,5 0,0 z"
         style="fill-rule:evenodd;stroke:#000000;stroke-width:1pt;marker-start:none"
         transform="matrix(-0.4,0,0,-0.4,-4,0)" />
    </marker>
    <marker
       inkscape:stockid="Arrow1Mend"
       orient="auto"
       refY="0"
       refX="0"
       id="marker4376"
       style="overflow:visible">
      <path
         inkscape:connector-curvature="0"
         id="path4378"
         d="M 0,0 5,-5 -12.5,0 5,5 0,0 z"
         style="fill-rule:evenodd;stroke:#000000;stroke-width:1pt;marker-start:none"
         transform="matrix(-0.4,0,0,-0.4,-4,0)" />
    </marker>
    <marker
       inkscape:stockid="Arrow1Mend"
       orient="auto"
       refY="0"
       refX="0"
       id="marker4380"
       style="overflow:visible">
      <path
         inkscape:connector-curvature="0"
         id="path4382"
         d="M 0,0 5,-5 -12.5,0 5,5 0,0 z"
         style="fill-rule:evenodd;stroke:#000000;stroke-width:1pt;marker-start:none"
         transform="matrix(-0.4,0,0,-0.4,-4,0)" />
    </marker>
    <marker
       inkscape:stockid="Arrow1Mend"
       orient="auto"
       refY="0"
       refX="0"
       id="marker4384"
       style="overflow:visible">
      <path
         inkscape:connector-curvature="0"
         id="path4386"
         d="M 0,0 5,-5 -12.5,0 5,5 0,0 z"
         style="fill-rule:evenodd;stroke:#000000;stroke-width:1pt;marker-start:none"
         transform="matrix(-0.4,0,0,-0.4,-4,0)" />
    </marker>
    <marker
       inkscape:stockid="Arrow1Mend"
       orient="auto"
       refY="0"
       refX="0"
       id="Arrow1Mend-6"
       style="overflow:visible">
      <path
         inkscape:connector-curvature="0"
         id="path3928-8"
         d="M 0,0 5,-5 -12.5,0 5,5 0,0 z"
         style="fill-rule:evenodd;stroke:#000000;stroke-width:1pt;marker-start:none"
         transform="matrix(-0.4,0,0,-0.4,-4,0)" />
    </marker>
    <marker
       inkscape:stockid="Arrow1Mend"
       orient="auto"
       refY="0"
       refX="0"
       id="marker4433"
       style="overflow:visible">
      <path
         inkscape:connector-curvature="0"
         id="path4435"
         d="M 0,0 5,-5 -12.5,0 5,5 0,0 z"
         style="fill-rule:evenodd;stroke:#000000;stroke-width:1pt;marker-start:none"
         transform="matrix(-0.4,0,0,-0.4,-4,0)" />
    </marker>
    <marker
       inkscape:stockid="Arrow1Mend"
       orient="auto"
       refY="0"
       refX="0"
       id="marker4437"
       style="overflow:visible">
      <path
         inkscape:connector-curvature="0"
         id="path4439"
         d="M 0,0 5,-5 -12.5,0 5,5 0,0 z"
         style="fill-rule:evenodd;stroke:#000000;stroke-width:1pt;marker-start:none"
         transform="matrix(-0.4,0,0,-0.4,-4,0)" />
    </marker>
    <marker
       inkscape:stockid="Arrow1Mend"
       orient="auto"
       refY="0"
       refX="0"
       id="marker4441"
       style="overflow:visible">
      <path
         inkscape:connector-curvature="0"
         id="path4443"
         d="M 0,0 5,-5 -12.5,0 5,5 0,0 z"
         style="fill-rule:evenodd;stroke:#000000;stroke-width:1pt;marker-start:none"
         transform="matrix(-0.4,0,0,-0.4,-4,0)" />
    </marker>
    <marker
       inkscape:stockid="Arrow1Mend"
       orient="auto"
       refY="0"
       refX="0"
       id="marker4445"
       style="overflow:visible">
      <path
         inkscape:connector-curvature="0"
         id="path4447"
         d="M 0,0 5,-5 -12.5,0 5,5 0,0 z"
         style="fill-rule:evenodd;stroke:#000000;stroke-width:1pt;marker-start:none"
         transform="matrix(-0.4,0,0,-0.4,-4,0)" />
    </marker>
    <marker
       inkscape:stockid="Arrow1Mend"
       orient="auto"
       refY="0"
       refX="0"
       id="marker4449"
       style="overflow:visible">
      <path
         inkscape:connector-curvature="0"
         id="path4451"
         d="M 0,0 5,-5 -12.5,0 5,5 0,0 z"
         style="fill-rule:evenodd;stroke:#000000;stroke-width:1pt;marker-start:none"
         transform="matrix(-0.4,0,0,-0.4,-4,0)" />
    </marker>
    <marker
       inkscape:stockid="Arrow1Mend"
       orient="auto"
       refY="0"
       refX="0"
       id="marker4453"
       style="overflow:visible">
      <path
         inkscape:connector-curvature="0"
         id="path4455"
         d="M 0,0 5,-5 -12.5,0 5,5 0,0 z"
         style="fill-rule:evenodd;stroke:#000000;stroke-width:1pt;marker-start:none"
         transform="matrix(-0.4,0,0,-0.4,-4,0)" />
    </marker>
    <marker
       inkscape:stockid="Arrow1Mend"
       orient="auto"
       refY="0"
       refX="0"
       id="marker4457"
       style="overflow:visible">
      <path
         inkscape:connector-curvature="0"
         id="path4459"
         d="M 0,0 5,-5 -12.5,0 5,5 0,0 z"
         style="fill-rule:evenodd;stroke:#000000;stroke-width:1pt;marker-start:none"
         transform="matrix(-0.4,0,0,-0.4,-4,0)" />
    </marker>
    <marker
       inkscape:stockid="Arrow1Mend"
       orient="auto"
       refY="0"
       refX="0"
       id="Arrow1Mend-3"
       style="overflow:visible">
      <path
         inkscape:connector-curvature="0"
         id="path3928-3"
         d="M 0,0 5,-5 -12.5,0 5,5 0,0 z"
         style="fill-rule:evenodd;stroke:#000000;stroke-width:1pt;marker-start:none"
         transform="matrix(-0.4,0,0,-0.4,-4,0)" />
    </marker>
    <marker
       inkscape:stockid="Arrow1Mend"
       orient="auto"
       refY="0"
       refX="0"
       id="marker4534"
       style="overflow:visible">
      <path
         inkscape:connector-curvature="0"
         id="path4536"
         d="M 0,0 5,-5 -12.5,0 5,5 0,0 z"
         style="fill-rule:evenodd;stroke:#000000;stroke-width:1pt;marker-start:none"
         transform="matrix(-0.4,0,0,-0.4,-4,0)" />
    </marker>
    <marker
       inkscape:stockid="Arrow1Mend"
       orient="auto"
       refY="0"
       refX="0"
       id="marker4538"
       style="overflow:visible">
      <path
         inkscape:connector-curvature="0"
         id="path4540"
         d="M 0,0 5,-5 -12.5,0 5,5 0,0 z"
         style="fill-rule:evenodd;stroke:#000000;stroke-width:1pt;marker-start:none"
         transform="matrix(-0.4,0,0,-0.4,-4,0)" />
    </marker>
    <marker
       inkscape:stockid="Arrow1Mend"
       orient="auto"
       refY="0"
       refX="0"
       id="marker4542"
       style="overflow:visible">
      <path
         inkscape:connector-curvature="0"
         id="path4544"
         d="M 0,0 5,-5 -12.5,0 5,5 0,0 z"
         style="fill-rule:evenodd;stroke:#000000;stroke-width:1pt;marker-start:none"
         transform="matrix(-0.4,0,0,-0.4,-4,0)" />
    </marker>
    <marker
       inkscape:stockid="Arrow1Mend"
       orient="auto"
       refY="0"
       refX="0"
       id="marker4546"
       style="overflow:visible">
      <path
         inkscape:connector-curvature="0"
         id="path4548"
         d="M 0,0 5,-5 -12.5,0 5,5 0,0 z"
         style="fill-rule:evenodd;stroke:#000000;stroke-width:1pt;marker-start:none"
         transform="matrix(-0.4,0,0,-0.4,-4,0)" />
    </marker>
    <marker
       inkscape:stockid="Arrow1Mend"
       orient="auto"
       refY="0"
       refX="0"
       id="marker4550"
       style="overflow:visible">
      <path
         inkscape:connector-curvature="0"
         id="path4552"
         d="M 0,0 5,-5 -12.5,0 5,5 0,0 z"
         style="fill-rule:evenodd;stroke:#000000;stroke-width:1pt;marker-start:none"
         transform="matrix(-0.4,0,0,-0.4,-4,0)" />
    </marker>
    <marker
       inkscape:stockid="Arrow1Mend"
       orient="auto"
       refY="0"
       refX="0"
       id="marker4554"
       style="overflow:visible">
      <path
         inkscape:connector-curvature="0"
         id="path4556"
         d="M 0,0 5,-5 -12.5,0 5,5 0,0 z"
         style="fill-rule:evenodd;stroke:#000000;stroke-width:1pt;marker-start:none"
         transform="matrix(-0.4,0,0,-0.4,-4,0)" />
    </marker>
    <marker
       inkscape:stockid="Arrow1Mend"
       orient="auto"
       refY="0"
       refX="0"
       id="marker4558"
       style="overflow:visible">
      <path
         inkscape:connector-curvature="0"
         id="path4560"
         d="M 0,0 5,-5 -12.5,0 5,5 0,0 z"
         style="fill-rule:evenodd;stroke:#000000;stroke-width:1pt;marker-start:none"
         transform="matrix(-0.4,0,0,-0.4,-4,0)" />
    </marker>
  </defs>
  <metadata
     id="metadata7">
    <rdf:RDF>
      <cc:Work
         rdf:about="">
        <dc:format>image/svg+xml</dc:format>
        <dc:type
           rdf:resource="http://purl.org/dc/dcmitype/StillImage" />
      </cc:Work>
    </rdf:RDF>
  </metadata>
  <g
     inkscape:label="Layer 1"
     inkscape:groupmode="layer"
     id="layer1">
    <path
       sodipodi:type="arc"
       style="opacity:0.67181467;fill:#3d09ff;stroke:#000000;stroke-width:0.30000000999999998;stroke-miterlimit:16.39999961999999911;stroke-opacity:1;stroke-dasharray:none;stroke-dashoffset:0;fill-opacity:1;filter:url(#filter5078)"
       id="path3964-3-2-0-1-6"
       sodipodi:cx="147.5"
       sodipodi:cy="594.86218"
       sodipodi:rx="47.5"
       sodipodi:ry="47.5"
       d="m 192.57625,609.84156 a 47.5,47.5 0 1 1 0.18358,-0.56418"
       sodipodi:start="0.32083106"
       sodipodi:end="6.5915259"
       sodipodi:open="true"
       transform="matrix(0.21428111,0,0,0.21428111,253.39354,450.07281)" />
    <path
       id="path3893-2"
       title="sin(x)"
       d="m 289.07062,578.41455 c 2.51017,-1.11265 5.00672,-2.22411 6.87294,-3.27977 1.86614,-1.05571 3.08012,-2.05358 3.37603,-2.97026 0.29588,-0.91669 -0.33182,-1.75161 -1.64804,-2.5256 -1.31621,-0.774 -3.30705,-1.48827 -5.36912,-2.19624 -2.06205,-0.70797 -4.1697,-1.41191 -5.69116,-2.16774 -1.52146,-0.75584 -2.43382,-1.56555 -2.43277,-2.45613 0.001,-0.89057 0.92279,-1.86264 2.57067,-2.89895 1.64785,-1.03632 4.00927,-2.13586 6.50059,-3.24681 2.49125,-1.11099 5.08712,-2.23124 7.14336,-3.30371 2.05622,-1.07248 3.54916,-2.09507 4.1369,-3.03761 0.58779,-0.94251 0.26159,-1.80413 -0.82529,-2.59841 -1.08694,-0.7943 -2.92354,-1.52229 -4.94798,-2.23352 -2.02443,-0.7113 -4.21208,-1.40816 -5.90885,-2.14847 -1.69676,-0.74031 -2.87823,-1.52621 -3.16667,-2.39118 -0.28842,-0.86496 0.32667,-1.80988 1.73392,-2.82493 1.40728,-1.01503 3.59732,-2.09935 6.0324,-3.20538 2.4351,-1.106 5.09129,-2.23161 7.30742,-3.31823 2.21611,-1.08663 3.96718,-2.13206 4.84078,-3.0999 0.87367,-0.96781 0.85799,-1.85691 0.0219,-2.6734 -0.83608,-0.8165 -2.48475,-1.56104 -4.43466,-2.27895 -1.94998,-0.71791 -4.17805,-1.41118 -6.01862,-2.13877 -1.84054,-0.72756 -3.2681,-1.49171 -3.83761,-2.33178 -0.56953,-0.84008 -0.26754,-1.7573 0.87967,-2.74932 1.14721,-0.99202 3.13349,-2.05832 5.47607,-3.15614 2.34261,-1.0978 5.01919,-2.22521 7.36241,-3.3231 2.34318,-1.09792 4.32725,-2.16398 5.47609,-3.15613 1.14882,-0.99217 1.44755,-1.9091 0.8797,-2.74932 -0.56789,-0.84023 -1.99827,-1.60414 -3.83764,-2.33179 -1.83981,-0.72765 -4.0681,-1.4209 -6.01861,-2.13876 -1.9505,-0.71785 -3.59705,-1.46259 -4.43469,-2.27896 -0.83759,-0.81634 -0.85003,-1.70573 0.022,-2.67339 0.87163,-0.96786 2.62552,-2.01336 4.84076,-3.09991 2.21515,-1.08662 4.87189,-2.21217 7.30742,-3.31824 2.43555,-1.10604 4.62364,-2.1902 6.03239,-3.20538 1.40876,-1.01517 2.02061,-1.95982 1.73394,-2.82492 -0.28673,-0.86512 -1.47089,-1.6508 -3.16667,-2.39118 -1.69581,-0.7404 -3.88408,-1.4372 -5.90885,-2.14846 -2.02479,-0.71128 -3.85965,-1.43936 -4.94801,-2.23354 -1.08835,-0.79415 -1.41131,-1.65604 -0.82526,-2.59839 0.58605,-0.94236 2.08173,-1.96523 4.13689,-3.03762 2.05512,-1.07242 4.65188,-2.19271 7.14337,-3.30371 2.49149,-1.111 4.85136,-2.21036 6.50058,-3.24682 1.64928,-1.03641 2.56779,-2.00825 2.57056,-2.89901 0.003,-0.89073 -0.91247,-1.70021 -2.43279,-2.45614 -1.52031,-0.75593 -3.62899,-1.45977 -5.69116,-2.16773 -2.06216,-0.70796 -4.05158,-1.42237 -5.36911,-2.19624 -1.31768,-0.77373 -1.94222,-1.60907 -1.64801,-2.52559 0.29415,-0.91652 1.51101,-1.91471 3.37601,-2.97027 1.86507,-1.0555 4.36277,-2.16712 6.87292,-3.27978"
       style="opacity:0.95366791;fill:none;stroke:#000000;stroke-width:0.49000001;stroke-miterlimit:16.39999962;stroke-opacity:1;stroke-dasharray:none;stroke-dashoffset:0"
       inkscape:connector-curvature="0" />
    <path
       id="path3893-2-0"
       title="sin(x)"
       d="m 192.31317,463.35695 c 2.92167,0.34308 5.82953,0.68872 8.09726,1.15127 2.26767,0.46264 3.87301,1.04616 4.54606,1.80007 0.67303,0.75394 0.40812,1.67919 -0.55599,2.73221 -0.96409,1.05302 -2.61329,2.23119 -4.33483,3.42259 -1.72152,1.19137 -3.48934,2.39123 -4.66188,3.48232 -1.17252,1.09111 -1.72651,2.06918 -1.3529,2.87779 0.37356,0.80862 1.6822,1.44641 3.72819,1.94947 2.04597,0.50306 4.81661,0.87379 7.71913,1.22035 2.90247,0.34661 5.91118,0.6738 8.37187,1.10111 2.46069,0.42732 4.34933,0.95911 5.31876,1.65891 0.96945,0.69975 1.01073,1.56909 0.27952,2.57955 -0.73126,1.01049 -2.2238,2.1601 -3.90715,3.34444 -1.68332,1.18441 -3.53238,2.3991 -4.88295,3.52272 -1.35055,1.12362 -2.17782,2.15162 -2.09819,3.01396 0.0797,0.86233 1.07683,1.55701 2.87847,2.10473 1.80166,0.54771 4.39824,0.9502 7.24367,1.30724 2.84544,0.35701 5.91542,0.67304 8.53848,1.07067 2.62306,0.39765 4.77384,0.88154 6.03355,1.5283 1.25978,0.64671 1.6164,1.45844 1.13988,2.42238 -0.47651,0.96394 -1.77824,2.07861 -3.38587,3.2492 -1.6077,1.17062 -3.49782,2.39279 -4.99441,3.5431 -1.49658,1.15027 -2.57375,2.22396 -2.77956,3.13843 -0.20583,0.91447 0.4734,1.66727 2.01096,2.26323 1.53756,0.59596 3.92722,1.03626 6.67871,1.41045 2.7515,0.37415 5.84219,0.68639 8.59433,1.06047 2.75211,0.37411 5.13951,0.81478 6.67872,1.41043 1.53919,0.59567 2.21511,1.34906 2.01098,2.26322 -0.20415,0.91418 -1.28418,1.9884 -2.77958,3.13844 -1.49582,1.15016 -3.38616,2.37238 -4.9944,3.54309 -1.60823,1.1707 -2.90781,2.28499 -3.38589,3.24923 -0.47806,0.96419 -0.11815,1.77532 1.13996,2.42234 1.2578,0.64729 3.41137,1.13051 6.03353,1.52831 2.62212,0.3979 5.69261,0.71373 8.53849,1.07068 2.8459,0.35693 5.4405,0.75978 7.24366,1.30723 1.80317,0.54744 2.79707,1.24274 2.87849,2.10473 0.0814,0.86202 -0.74863,1.89053 -2.09819,3.01396 -1.34959,1.12344 -3.19929,2.33824 -4.88295,3.52271 -1.68368,1.18448 -3.17448,2.33371 -3.90718,3.34447 -0.7327,1.01073 -0.68814,1.87945 0.27955,2.57952 0.96769,0.70009 2.85914,1.23141 5.31874,1.65893 2.45959,0.42755 5.46918,0.75455 8.37189,1.1011 2.90271,0.34655 5.67175,0.71753 7.71912,1.22036 2.04741,0.50278 3.35274,1.14122 3.72811,1.94955 0.37558,0.80824 -0.18155,1.78692 -1.35292,2.8778 -1.17137,1.09089 -2.94024,2.29092 -4.66188,3.48233 -1.72163,1.1914 -3.36938,2.36932 -4.33483,3.42257 -0.96564,1.05317 -1.22728,1.97797 -0.55596,2.73219 0.67126,0.75424 2.27956,1.33728 4.54605,1.80008 2.26654,0.46273 5.17558,0.80819 8.09724,1.15129"
       style="opacity:0.95366791;fill:none;stroke:#000000;stroke-width:0.49000001;stroke-miterlimit:16.39999962;stroke-opacity:1;stroke-dasharray:none;stroke-dashoffset:0"
       inkscape:connector-curvature="0" />
    <path
       style="fill:none;stroke:#000000;stroke-width:1px;stroke-linecap:butt;stroke-linejoin:miter;stroke-opacity:1;marker-end:url(#TriangleOutM)"
       d="m 192.20454,463.31562 88.09249,112.77994"
       id="path4056"
       inkscape:connector-curvature="0"
       sodipodi:nodetypes="cc" />
    <path
       style="fill:none;stroke:#000000;stroke-width:1px;stroke-linecap:butt;stroke-linejoin:miter;stroke-opacity:1;marker-start:url(#TriangleInM);marker-end:none"
       d="M 321.7742,443.74527 288.61773,578.66192"
       id="path4058"
       inkscape:connector-curvature="0"
       sodipodi:nodetypes="cc" />
    <g
       id="g3324"
       transform="matrix(0.88076026,0,0,0.88076026,75.512823,477.7663)"
       ns0:preamble="/home/andrerei/.config/inkscape/extensions/preamble.inc"
       ns0:text="$V(\\textbf{r},t)$">
      <defs
         id="defs3326">
        <g
           id="g3328">
          <symbol
             id="textext-e474858a-0"
             overflow="visible"
             style="overflow:visible">
            <path
               id="path3331"
               d="M 6.265625,-5.671875 C 6.75,-6.453125 7.171875,-6.484375 7.53125,-6.5 c 0.125,-0.015625 0.140625,-0.171875 0.140625,-0.1875 0,-0.078125 -0.0625,-0.125 -0.140625,-0.125 -0.25,0 -0.546875,0.03125 -0.8125,0.03125 -0.328125,0 -0.671875,-0.03125 -0.984375,-0.03125 -0.0625,0 -0.1875,0 -0.1875,0.1875 0,0.109375 0.078125,0.125 0.15625,0.125 0.265625,0.015625 0.453125,0.125 0.453125,0.328125 0,0.15625 -0.140625,0.375 -0.140625,0.375 l -3.0625,4.875 -0.6875,-5.28125 C 2.265625,-6.375 2.5,-6.5 2.953125,-6.5 c 0.140625,0 0.25,0 0.25,-0.203125 0,-0.078125 -0.078125,-0.109375 -0.125,-0.109375 -0.40625,0 -0.828125,0.03125 -1.25,0.03125 -0.171875,0 -0.359375,0 -0.546875,0 -0.171875,0 -0.359375,-0.03125 -0.53125,-0.03125 -0.078125,0 -0.1875,0 -0.1875,0.1875 0,0.125 0.078125,0.125 0.25,0.125 0.546875,0 0.5625,0.09375 0.59375,0.34375 L 2.1875,-0.015625 C 2.21875,0.1875 2.265625,0.21875 2.390625,0.21875 c 0.15625,0 0.203125,-0.046875 0.28125,-0.171875 z m 0,0"
               style="stroke:none"
               inkscape:connector-curvature="0" />
          </symbol>
          <symbol
             id="textext-e474858a-1"
             overflow="visible"
             style="overflow:visible">
            <path
               id="path3334"
               d="m 2.03125,-0.015625 c 0,-0.65625 -0.25,-1.046875 -0.640625,-1.046875 -0.328125,0 -0.53125,0.25 -0.53125,0.53125 C 0.859375,-0.265625 1.0625,0 1.390625,0 1.5,0 1.640625,-0.046875 1.734375,-0.125 1.765625,-0.15625 1.78125,-0.15625 1.78125,-0.15625 c 0.015625,0 0.015625,0 0.015625,0.140625 0,0.75 -0.34375,1.34375 -0.671875,1.671875 -0.109375,0.109375 -0.109375,0.125 -0.109375,0.15625 0,0.078125 0.046875,0.109375 0.09375,0.109375 0.109375,0 0.921875,-0.765625 0.921875,-1.9375 z m 0,0"
               style="stroke:none"
               inkscape:connector-curvature="0" />
          </symbol>
          <symbol
             id="textext-e474858a-2"
             overflow="visible"
             style="overflow:visible">
            <path
               id="path3337"
               d="m 2.046875,-3.984375 0.9375,0 c 0.203125,0 0.3125,0 0.3125,-0.203125 0,-0.109375 -0.109375,-0.109375 -0.28125,-0.109375 l -0.875,0 C 2.5,-5.71875 2.546875,-5.90625 2.546875,-5.96875 c 0,-0.171875 -0.125,-0.265625 -0.296875,-0.265625 -0.03125,0 -0.3125,0 -0.390625,0.359375 l -0.390625,1.578125 -0.9375,0 c -0.203125,0 -0.296875,0 -0.296875,0.1875 0,0.125 0.078125,0.125 0.28125,0.125 l 0.875,0 C 0.671875,-1.15625 0.625,-0.984375 0.625,-0.8125 0.625,-0.265625 1,0.109375 1.546875,0.109375 2.5625,0.109375 3.125,-1.34375 3.125,-1.421875 3.125,-1.53125 3.046875,-1.53125 3.015625,-1.53125 2.921875,-1.53125 2.90625,-1.5 2.859375,-1.390625 2.4375,-0.34375 1.90625,-0.109375 1.5625,-0.109375 c -0.203125,0 -0.3125,-0.125 -0.3125,-0.453125 0,-0.25 0.03125,-0.3125 0.0625,-0.484375 z m 0,0"
               style="stroke:none"
               inkscape:connector-curvature="0" />
          </symbol>
          <symbol
             id="textext-e474858a-3"
             overflow="visible"
             style="overflow:visible">
            <path
               id="path3340"
               d="m 3.296875,2.390625 c 0,-0.03125 0,-0.046875 -0.171875,-0.21875 C 1.890625,0.921875 1.5625,-0.96875 1.5625,-2.5 c 0,-1.734375 0.375,-3.46875 1.609375,-4.703125 0.125,-0.125 0.125,-0.140625 0.125,-0.171875 0,-0.078125 -0.03125,-0.109375 -0.09375,-0.109375 -0.109375,0 -1,0.6875 -1.59375,1.953125 -0.5,1.09375 -0.625,2.203125 -0.625,3.03125 0,0.78125 0.109375,1.984375 0.65625,3.125 C 2.25,1.84375 3.09375,2.5 3.203125,2.5 c 0.0625,0 0.09375,-0.03125 0.09375,-0.109375 z m 0,0"
               style="stroke:none"
               inkscape:connector-curvature="0" />
          </symbol>
          <symbol
             id="textext-e474858a-4"
             overflow="visible"
             style="overflow:visible">
            <path
               id="path3343"
               d="m 2.875,-2.5 c 0,-0.765625 -0.109375,-1.96875 -0.65625,-3.109375 -0.59375,-1.21875 -1.453125,-1.875 -1.546875,-1.875 -0.0625,0 -0.109375,0.046875 -0.109375,0.109375 0,0.03125 0,0.046875 0.1875,0.234375 0.984375,0.984375 1.546875,2.5625 1.546875,4.640625 0,1.71875 -0.359375,3.46875 -1.59375,4.71875 C 0.5625,2.34375 0.5625,2.359375 0.5625,2.390625 0.5625,2.453125 0.609375,2.5 0.671875,2.5 0.765625,2.5 1.671875,1.8125 2.25,0.546875 2.765625,-0.546875 2.875,-1.65625 2.875,-2.5 z m 0,0"
               style="stroke:none"
               inkscape:connector-curvature="0" />
          </symbol>
          <symbol
             id="textext-e474858a-5"
             overflow="visible"
             style="overflow:visible">
            <path
               id="path3346"
               d="m 2.03125,-3.359375 0,-1.125 -1.65625,0.078125 0,0.46875 c 0.609375,0 0.6875,0 0.6875,0.390625 l 0,3.078125 -0.6875,0 0,0.46875 c 0.34375,-0.015625 0.796875,-0.03125 1.25,-0.03125 0.375,0 1.015625,0 1.375,0.03125 l 0,-0.46875 -0.859375,0 0,-1.75 c 0,-0.6875 0.234375,-1.90625 1.234375,-1.90625 0,0.015625 -0.1875,0.171875 -0.1875,0.453125 0,0.40625 0.328125,0.609375 0.609375,0.609375 0.296875,0 0.609375,-0.203125 0.609375,-0.609375 0,-0.53125 -0.53125,-0.8125 -1.0625,-0.8125 -0.6875,0 -1.09375,0.5 -1.3125,1.125 z m 0,0"
               style="stroke:none"
               inkscape:connector-curvature="0" />
          </symbol>
        </g>
      </defs>
      <g
         id="textext-e474858a-6">
        <g
           id="g3349"
           style="fill:#000000;fill-opacity:1">
          <use
             id="use3351"
             y="134.765"
             x="223.43201"
             xlink:href="#textext-e474858a-0"
             width="744.09448"
             height="1052.3622" />
        </g>
        <g
           id="g3353"
           style="fill:#000000;fill-opacity:1">
          <use
             id="use3355"
             y="134.765"
             x="231.45799"
             xlink:href="#textext-e474858a-3"
             width="744.09448"
             height="1052.3622" />
        </g>
        <g
           id="g3357"
           style="fill:#000000;fill-opacity:1">
          <use
             id="use3359"
             y="134.765"
             x="235.332"
             xlink:href="#textext-e474858a-5"
             width="744.09448"
             height="1052.3622" />
        </g>
        <g
           id="g3361"
           style="fill:#000000;fill-opacity:1">
          <use
             id="use3363"
             y="134.765"
             x="240.05"
             xlink:href="#textext-e474858a-1"
             width="744.09448"
             height="1052.3622" />
        </g>
        <g
           id="g3365"
           style="fill:#000000;fill-opacity:1">
          <use
             id="use3367"
             y="134.765"
             x="244.48137"
             xlink:href="#textext-e474858a-2"
             width="744.09448"
             height="1052.3622" />
        </g>
        <g
           id="g3369"
           style="fill:#000000;fill-opacity:1">
          <use
             id="use3371"
             y="134.765"
             x="248.076"
             xlink:href="#textext-e474858a-4"
             width="744.09448"
             height="1052.3622" />
        </g>
      </g>
    </g>
    <path
       style="fill:none;stroke:#000000;stroke-width:0.40000001;stroke-linecap:butt;stroke-linejoin:miter;stroke-miterlimit:4;stroke-opacity:1;stroke-dasharray:none;marker-end:url(#Arrow1Mend)"
       d="m 320,577.36218 30,0"
       id="path3128"
       inkscape:connector-curvature="0" />
    <path
       style="fill:none;stroke:#000000;stroke-width:0.40000001;stroke-linecap:butt;stroke-linejoin:miter;stroke-miterlimit:4;stroke-opacity:1;stroke-dasharray:none;marker-end:url(#Arrow1Mend)"
       d="m 250,577.36218 -30,0"
       id="path3130"
       inkscape:connector-curvature="0" />
    <path
       style="fill:none;stroke:#000000;stroke-width:0.40000001;stroke-linecap:butt;stroke-linejoin:miter;stroke-miterlimit:4;stroke-opacity:1;stroke-dasharray:none;marker-end:url(#Arrow1Mend)"
       d="m 285,612.36218 0,30"
       id="path3132"
       inkscape:connector-curvature="0" />
    <path
       style="fill:none;stroke:#000000;stroke-width:0.40000001;stroke-linecap:butt;stroke-linejoin:miter;stroke-miterlimit:4;stroke-opacity:1;stroke-dasharray:none;marker-end:url(#Arrow1Mend)"
       d="m 285,542.36218 0,-30"
       id="path3134"
       inkscape:connector-curvature="0" />
    <path
       style="fill:none;stroke:#000000;stroke-width:0.40000001;stroke-linecap:butt;stroke-linejoin:miter;stroke-miterlimit:4;stroke-opacity:1;stroke-dasharray:none;marker-end:url(#Arrow1Mend)"
       d="m 309.74874,552.6236 21.2132,-21.2132"
       id="path3128-6"
       inkscape:connector-curvature="0" />
    <path
       style="fill:none;stroke:#000000;stroke-width:0.40000001;stroke-linecap:butt;stroke-linejoin:miter;stroke-miterlimit:4;stroke-opacity:1;stroke-dasharray:none;marker-end:url(#Arrow1Mend)"
       d="m 260.25126,602.12108 -21.2132,21.2132"
       id="path3130-1"
       inkscape:connector-curvature="0" />
    <path
       style="fill:none;stroke:#000000;stroke-width:0.40000001;stroke-linecap:butt;stroke-linejoin:miter;stroke-miterlimit:4;stroke-opacity:1;stroke-dasharray:none;marker-end:url(#Arrow1Mend)"
       d="m 309.74874,602.12108 21.2132,21.2132"
       id="path3132-3"
       inkscape:connector-curvature="0" />
    <path
       style="fill:none;stroke:#000000;stroke-width:0.40000001;stroke-linecap:butt;stroke-linejoin:miter;stroke-miterlimit:4;stroke-opacity:1;stroke-dasharray:none;marker-end:url(#Arrow1Mend)"
       d="m 260.25126,552.6236 -21.2132,-21.2132"
       id="path3134-2"
       inkscape:connector-curvature="0" />
    <path
       style="fill:none;stroke:#000000;stroke-width:0.40000001;stroke-linecap:butt;stroke-linejoin:miter;stroke-miterlimit:4;stroke-opacity:1;stroke-dasharray:none;marker-end:url(#Arrow1Mend)"
       d="m 315.24625,594.85825 25.98076,15"
       id="path3128-9"
       inkscape:connector-curvature="0" />
    <path
       style="fill:none;stroke:#000000;stroke-width:0.40000001;stroke-linecap:butt;stroke-linejoin:miter;stroke-miterlimit:4;stroke-opacity:1;stroke-dasharray:none;marker-end:url(#Arrow1Mend)"
       d="m 254.62447,559.85825 -25.98076,-15"
       id="path3130-0"
       inkscape:connector-curvature="0" />
    <path
       style="fill:none;stroke:#000000;stroke-width:0.40000001;stroke-linecap:butt;stroke-linejoin:miter;stroke-miterlimit:4;stroke-opacity:1;stroke-dasharray:none;marker-end:url(#Arrow1Mend)"
       d="m 267.43536,607.66914 -15,25.98076"
       id="path3132-6"
       inkscape:connector-curvature="0" />
    <path
       style="fill:none;stroke:#000000;stroke-width:0.40000001;stroke-linecap:butt;stroke-linejoin:miter;stroke-miterlimit:4;stroke-opacity:1;stroke-dasharray:none;marker-end:url(#Arrow1Mend)"
       d="m 302.43536,547.04736 15,-25.98076"
       id="path3134-8"
       inkscape:connector-curvature="0" />
    <path
       style="fill:none;stroke:#000000;stroke-width:0.40000001;stroke-linecap:butt;stroke-linejoin:miter;stroke-miterlimit:4;stroke-opacity:1;stroke-dasharray:none;marker-end:url(#Arrow1Mend)"
       d="m 318.73769,568.30838 28.97777,-7.76457"
       id="path3128-6-7"
       inkscape:connector-curvature="0" />
    <path
       style="fill:none;stroke:#000000;stroke-width:0.40000001;stroke-linecap:butt;stroke-linejoin:miter;stroke-miterlimit:4;stroke-opacity:1;stroke-dasharray:none;marker-end:url(#Arrow1Mend)"
       d="m 251.12287,586.42572 -28.97777,7.76457"
       id="path3130-1-9"
       inkscape:connector-curvature="0" />
    <path
       style="fill:none;stroke:#000000;stroke-width:0.40000001;stroke-linecap:butt;stroke-linejoin:miter;stroke-miterlimit:4;stroke-opacity:1;stroke-dasharray:none;marker-end:url(#Arrow1Mend)"
       d="m 293.98895,611.17446 7.76457,28.97777"
       id="path3132-3-0"
       inkscape:connector-curvature="0" />
    <path
       style="fill:none;stroke:#000000;stroke-width:0.40000001;stroke-linecap:butt;stroke-linejoin:miter;stroke-miterlimit:4;stroke-opacity:1;stroke-dasharray:none;marker-end:url(#Arrow1Mend)"
       d="m 275.87161,543.55964 -7.76457,-28.97777"
       id="path3134-2-3"
       inkscape:connector-curvature="0" />
    <path
       style="fill:none;stroke:#000000;stroke-width:0.40000001;stroke-linecap:butt;stroke-linejoin:miter;stroke-miterlimit:4;stroke-opacity:1;stroke-dasharray:none;marker-end:url(#Arrow1Mend)"
       d="m 302.37182,607.89629 15,25.98076"
       id="path3128-9-7"
       inkscape:connector-curvature="0" />
    <path
       style="fill:none;stroke:#000000;stroke-width:0.40000001;stroke-linecap:butt;stroke-linejoin:miter;stroke-miterlimit:4;stroke-opacity:1;stroke-dasharray:none;marker-end:url(#Arrow1Mend)"
       d="m 267.37182,547.27451 -15,-25.98076"
       id="path3130-0-3"
       inkscape:connector-curvature="0" />
    <path
       style="fill:none;stroke:#000000;stroke-width:0.40000001;stroke-linecap:butt;stroke-linejoin:miter;stroke-miterlimit:4;stroke-opacity:1;stroke-dasharray:none;marker-end:url(#Arrow1Mend)"
       d="m 254.56093,595.0854 -25.98076,15"
       id="path3132-6-2"
       inkscape:connector-curvature="0" />
    <path
       style="fill:none;stroke:#000000;stroke-width:0.40000001;stroke-linecap:butt;stroke-linejoin:miter;stroke-miterlimit:4;stroke-opacity:1;stroke-dasharray:none;marker-end:url(#Arrow1Mend)"
       d="m 315.18271,560.0854 25.98076,-15"
       id="path3134-8-6"
       inkscape:connector-curvature="0" />
    <path
       style="fill:none;stroke:#000000;stroke-width:0.40000001;stroke-linecap:butt;stroke-linejoin:miter;stroke-miterlimit:4;stroke-opacity:1;stroke-dasharray:none;marker-end:url(#Arrow1Mend)"
       d="m 318.67043,586.64915 28.97777,7.76457"
       id="path3128-6-7-5"
       inkscape:connector-curvature="0" />
    <path
       style="fill:none;stroke:#000000;stroke-width:0.40000001;stroke-linecap:butt;stroke-linejoin:miter;stroke-miterlimit:4;stroke-opacity:1;stroke-dasharray:none;marker-end:url(#Arrow1Mend)"
       d="m 251.05561,568.53181 -28.97777,-7.76457"
       id="path3130-1-9-2"
       inkscape:connector-curvature="0" />
    <path
       style="fill:none;stroke:#000000;stroke-width:0.40000001;stroke-linecap:butt;stroke-linejoin:miter;stroke-miterlimit:4;stroke-opacity:1;stroke-dasharray:none;marker-end:url(#Arrow1Mend)"
       d="m 275.80435,611.39789 -7.76457,28.97777"
       id="path3132-3-0-6"
       inkscape:connector-curvature="0" />
    <path
       style="fill:none;stroke:#000000;stroke-width:0.40000001;stroke-linecap:butt;stroke-linejoin:miter;stroke-miterlimit:4;stroke-opacity:1;stroke-dasharray:none;marker-end:url(#Arrow1Mend)"
       d="m 293.92169,543.78307 7.76457,-28.97777"
       id="path3134-2-3-5"
       inkscape:connector-curvature="0" />
    <g
       id="g3377"
       transform="translate(-19.526999,500.44265)"
       ns0:preamble="/home/andrerei/.config/inkscape/extensions/preamble.inc"
       ns0:text="$\\Psi_{\\alpha}(\\textbf{r}\',t\')$">
      <defs
         id="defs3379">
        <g
           id="g3381">
          <symbol
             id="textext-33aa6724-0"
             overflow="visible">
            <path
               id="path3384"
               d="M 4.25 -6.015625 C 4.25 -6.359375 4.25 -6.5 5.203125 -6.5 L 5.53125 -6.5 L 5.53125 -6.8125 C 5.171875 -6.78125 4.25 -6.78125 3.84375 -6.78125 C 3.4375 -6.78125 2.515625 -6.78125 2.15625 -6.8125 L 2.15625 -6.5 L 2.484375 -6.5 C 3.421875 -6.5 3.421875 -6.375 3.421875 -6.015625 L 3.421875 -1.59375 C 2.125 -1.9375 2.078125 -3.484375 2.078125 -4.125 C 2.0625 -5.328125 1.625 -5.515625 1.1875 -5.515625 L 0.8125 -5.515625 C 0.671875 -5.515625 0.5625 -5.515625 0.5625 -5.40625 C 0.5625 -5.359375 0.59375 -5.3125 0.65625 -5.296875 C 0.984375 -5.265625 1.234375 -5.125 1.25 -3.953125 C 1.25 -3.71875 1.28125 -2.9375 1.75 -2.265625 C 2.140625 -1.71875 2.75 -1.4375 3.421875 -1.34375 L 3.421875 -0.78125 C 3.421875 -0.453125 3.421875 -0.3125 2.484375 -0.3125 L 2.15625 -0.3125 L 2.15625 0 C 2.515625 -0.03125 3.421875 -0.03125 3.84375 -0.03125 C 4.25 -0.03125 5.171875 -0.03125 5.53125 0 L 5.53125 -0.3125 L 5.203125 -0.3125 C 4.25 -0.3125 4.25 -0.4375 4.25 -0.78125 L 4.25 -1.34375 C 4.96875 -1.4375 5.578125 -1.734375 5.96875 -2.25 C 6.484375 -2.953125 6.5 -3.75 6.5 -4.1875 C 6.5 -4.34375 6.515625 -5.234375 7.046875 -5.296875 C 7.109375 -5.3125 7.171875 -5.328125 7.171875 -5.40625 C 7.171875 -5.515625 7.09375 -5.515625 6.9375 -5.515625 L 6.5625 -5.515625 C 6.171875 -5.515625 5.6875 -5.453125 5.671875 -4 C 5.65625 -2.90625 5.328125 -1.859375 4.25 -1.59375 Z M 4.25 -6.015625 "
               style="stroke:none;" />
          </symbol>
          <symbol
             id="textext-33aa6724-1"
             overflow="visible">
            <path
               id="path3387"
               d="M 3.296875 2.390625 C 3.296875 2.359375 3.296875 2.34375 3.125 2.171875 C 1.890625 0.921875 1.5625 -0.96875 1.5625 -2.5 C 1.5625 -4.234375 1.9375 -5.96875 3.171875 -7.203125 C 3.296875 -7.328125 3.296875 -7.34375 3.296875 -7.375 C 3.296875 -7.453125 3.265625 -7.484375 3.203125 -7.484375 C 3.09375 -7.484375 2.203125 -6.796875 1.609375 -5.53125 C 1.109375 -4.4375 0.984375 -3.328125 0.984375 -2.5 C 0.984375 -1.71875 1.09375 -0.515625 1.640625 0.625 C 2.25 1.84375 3.09375 2.5 3.203125 2.5 C 3.265625 2.5 3.296875 2.46875 3.296875 2.390625 Z M 3.296875 2.390625 "
               style="stroke:none;" />
          </symbol>
          <symbol
             id="textext-33aa6724-2"
             overflow="visible">
            <path
               id="path3390"
               d="M 2.875 -2.5 C 2.875 -3.265625 2.765625 -4.46875 2.21875 -5.609375 C 1.625 -6.828125 0.765625 -7.484375 0.671875 -7.484375 C 0.609375 -7.484375 0.5625 -7.4375 0.5625 -7.375 C 0.5625 -7.34375 0.5625 -7.328125 0.75 -7.140625 C 1.734375 -6.15625 2.296875 -4.578125 2.296875 -2.5 C 2.296875 -0.78125 1.9375 0.96875 0.703125 2.21875 C 0.5625 2.34375 0.5625 2.359375 0.5625 2.390625 C 0.5625 2.453125 0.609375 2.5 0.671875 2.5 C 0.765625 2.5 1.671875 1.8125 2.25 0.546875 C 2.765625 -0.546875 2.875 -1.65625 2.875 -2.5 Z M 2.875 -2.5 "
               style="stroke:none;" />
          </symbol>
          <symbol
             id="textext-33aa6724-3"
             overflow="visible">
            <path
               id="path3393"
               d="M 3.8125 -0.984375 C 4.453125 -1.640625 4.703125 -2.578125 4.703125 -2.640625 C 4.703125 -2.734375 4.625 -2.734375 4.59375 -2.734375 C 4.5 -2.734375 4.5 -2.71875 4.453125 -2.5625 C 4.328125 -2.109375 4.09375 -1.671875 3.796875 -1.296875 C 3.796875 -1.40625 3.78125 -1.875 3.765625 -1.9375 C 3.65625 -2.625 3.140625 -3.078125 2.4375 -3.078125 C 1.421875 -3.078125 0.4375 -2.125 0.4375 -1.140625 C 0.4375 -0.5 0.90625 0.0625 1.703125 0.0625 C 2.34375 0.0625 2.921875 -0.21875 3.3125 -0.515625 C 3.484375 -0.015625 3.828125 0.0625 4.046875 0.0625 C 4.453125 0.0625 4.703125 -0.265625 4.703125 -0.421875 C 4.703125 -0.5 4.609375 -0.5 4.578125 -0.5 C 4.484375 -0.5 4.46875 -0.46875 4.453125 -0.4375 C 4.359375 -0.171875 4.140625 -0.125 4.0625 -0.125 C 3.96875 -0.125 3.84375 -0.125 3.8125 -0.984375 Z M 3.265625 -0.75 C 2.578125 -0.1875 2 -0.125 1.734375 -0.125 C 1.265625 -0.125 1.015625 -0.4375 1.015625 -0.90625 C 1.015625 -1.09375 1.109375 -1.859375 1.46875 -2.34375 C 1.796875 -2.765625 2.1875 -2.875 2.4375 -2.875 C 2.984375 -2.875 3.15625 -2.34375 3.203125 -1.90625 C 3.25 -1.609375 3.234375 -1.109375 3.265625 -0.75 Z M 3.265625 -0.75 "
               style="stroke:none;" />
          </symbol>
          <symbol
             id="textext-33aa6724-4"
             overflow="visible">
            <path
               id="path3396"
               d="M 2.03125 -3.359375 L 2.03125 -4.484375 L 0.375 -4.40625 L 0.375 -3.9375 C 0.984375 -3.9375 1.0625 -3.9375 1.0625 -3.546875 L 1.0625 -0.46875 L 0.375 -0.46875 L 0.375 0 C 0.71875 -0.015625 1.171875 -0.03125 1.625 -0.03125 C 2 -0.03125 2.640625 -0.03125 3 0 L 3 -0.46875 L 2.140625 -0.46875 L 2.140625 -2.21875 C 2.140625 -2.90625 2.375 -4.125 3.375 -4.125 C 3.375 -4.109375 3.1875 -3.953125 3.1875 -3.671875 C 3.1875 -3.265625 3.515625 -3.0625 3.796875 -3.0625 C 4.09375 -3.0625 4.40625 -3.265625 4.40625 -3.671875 C 4.40625 -4.203125 3.875 -4.484375 3.34375 -4.484375 C 2.65625 -4.484375 2.25 -3.984375 2.03125 -3.359375 Z M 2.03125 -3.359375 "
               style="stroke:none;" />
          </symbol>
          <symbol
             id="textext-33aa6724-5"
             overflow="visible">
            <path
               id="path3399"
               d="M 2.015625 -3.296875 C 2.078125 -3.40625 2.078125 -3.46875 2.078125 -3.515625 C 2.078125 -3.734375 1.890625 -3.890625 1.671875 -3.890625 C 1.40625 -3.890625 1.328125 -3.671875 1.296875 -3.5625 L 0.375 -0.546875 C 0.359375 -0.53125 0.328125 -0.453125 0.328125 -0.4375 C 0.328125 -0.359375 0.546875 -0.28125 0.609375 -0.28125 C 0.65625 -0.28125 0.65625 -0.296875 0.703125 -0.40625 Z M 2.015625 -3.296875 "
               style="stroke:none;" />
          </symbol>
          <symbol
             id="textext-33aa6724-6"
             overflow="visible">
            <path
               id="path3402"
               d="M 2.03125 -0.015625 C 2.03125 -0.671875 1.78125 -1.0625 1.390625 -1.0625 C 1.0625 -1.0625 0.859375 -0.8125 0.859375 -0.53125 C 0.859375 -0.265625 1.0625 0 1.390625 0 C 1.5 0 1.640625 -0.046875 1.734375 -0.125 C 1.765625 -0.15625 1.78125 -0.15625 1.78125 -0.15625 C 1.796875 -0.15625 1.796875 -0.15625 1.796875 -0.015625 C 1.796875 0.734375 1.453125 1.328125 1.125 1.65625 C 1.015625 1.765625 1.015625 1.78125 1.015625 1.8125 C 1.015625 1.890625 1.0625 1.921875 1.109375 1.921875 C 1.21875 1.921875 2.03125 1.15625 2.03125 -0.015625 Z M 2.03125 -0.015625 "
               style="stroke:none;" />
          </symbol>
          <symbol
             id="textext-33aa6724-7"
             overflow="visible">
            <path
               id="path3405"
               d="M 2.046875 -3.984375 L 2.984375 -3.984375 C 3.1875 -3.984375 3.296875 -3.984375 3.296875 -4.1875 C 3.296875 -4.296875 3.1875 -4.296875 3.015625 -4.296875 L 2.140625 -4.296875 C 2.5 -5.71875 2.546875 -5.90625 2.546875 -5.96875 C 2.546875 -6.140625 2.421875 -6.234375 2.25 -6.234375 C 2.21875 -6.234375 1.9375 -6.234375 1.859375 -5.875 L 1.46875 -4.296875 L 0.53125 -4.296875 C 0.328125 -4.296875 0.234375 -4.296875 0.234375 -4.109375 C 0.234375 -3.984375 0.3125 -3.984375 0.515625 -3.984375 L 1.390625 -3.984375 C 0.671875 -1.15625 0.625 -0.984375 0.625 -0.8125 C 0.625 -0.265625 1 0.109375 1.546875 0.109375 C 2.5625 0.109375 3.125 -1.34375 3.125 -1.421875 C 3.125 -1.53125 3.046875 -1.53125 3.015625 -1.53125 C 2.921875 -1.53125 2.90625 -1.5 2.859375 -1.390625 C 2.4375 -0.34375 1.90625 -0.109375 1.5625 -0.109375 C 1.359375 -0.109375 1.25 -0.234375 1.25 -0.5625 C 1.25 -0.8125 1.28125 -0.875 1.3125 -1.046875 Z M 2.046875 -3.984375 "
               style="stroke:none;" />
          </symbol>
        </g>
      </defs>
      <g
         id="textext-33aa6724-8">
        <g
           id="g3408"
           style="fill:rgb(0%,0%,0%);fill-opacity:1;">
          <use
             id="use3410"
             y="134.765"
             x="223.432"
             xlink:href="#textext-33aa6724-0" />
        </g>
        <g
           id="g3412"
           style="fill:rgb(0%,0%,0%);fill-opacity:1;">
          <use
             id="use3414"
             y="136.259"
             x="231.181"
             xlink:href="#textext-33aa6724-3" />
        </g>
        <g
           id="g3416"
           style="fill:rgb(0%,0%,0%);fill-opacity:1;">
          <use
             id="use3418"
             y="134.765"
             x="236.858"
             xlink:href="#textext-33aa6724-1" />
        </g>
        <g
           id="g3420"
           style="fill:rgb(0%,0%,0%);fill-opacity:1;">
          <use
             id="use3422"
             y="134.765"
             x="240.733"
             xlink:href="#textext-33aa6724-4" />
        </g>
        <g
           id="g3424"
           style="fill:rgb(0%,0%,0%);fill-opacity:1;">
          <use
             id="use3426"
             y="131.15"
             x="245.451"
             xlink:href="#textext-33aa6724-5" />
        </g>
        <g
           id="g3428"
           style="fill:rgb(0%,0%,0%);fill-opacity:1;">
          <use
             id="use3430"
             y="134.765"
             x="248.246"
             xlink:href="#textext-33aa6724-6" />
        </g>
        <g
           id="g3432"
           style="fill:rgb(0%,0%,0%);fill-opacity:1;">
          <use
             id="use3434"
             y="134.765"
             x="252.677364"
             xlink:href="#textext-33aa6724-7" />
        </g>
        <g
           id="g3436"
           style="fill:rgb(0%,0%,0%);fill-opacity:1;">
          <use
             id="use3438"
             y="131.15"
             x="256.272"
             xlink:href="#textext-33aa6724-5" />
        </g>
        <g
           id="g3440"
           style="fill:rgb(0%,0%,0%);fill-opacity:1;">
          <use
             id="use3442"
             y="134.765"
             x="259.067"
             xlink:href="#textext-33aa6724-2" />
        </g>
      </g>
    </g>
    <g
       ns0:text="$\\Phi_{\\alpha}(\\textbf{r},t)$"
       ns0:preamble="/home/andrerei/.config/inkscape/extensions/preamble.inc"
       transform="translate(-49.501761,323.59429)"
       id="g3848">
      <defs
         id="defs3850">
        <g
           id="g3853">
          <symbol
             overflow="visible"
             id="textext-48caf527-0">
            <path
               style="stroke:none;"
               d="M 3.984375 -1.34375 C 5.515625 -1.46875 6.625 -2.390625 6.625 -3.40625 C 6.625 -4.4375 5.5 -5.34375 3.984375 -5.46875 L 3.984375 -6.015625 C 3.984375 -6.359375 3.984375 -6.5 4.921875 -6.5 L 5.25 -6.5 L 5.25 -6.8125 C 4.890625 -6.78125 3.984375 -6.78125 3.5625 -6.78125 C 3.15625 -6.78125 2.234375 -6.78125 1.875 -6.8125 L 1.875 -6.5 L 2.203125 -6.5 C 3.15625 -6.5 3.15625 -6.375 3.15625 -6.015625 L 3.15625 -5.46875 C 1.625 -5.3125 0.5625 -4.390625 0.5625 -3.40625 C 0.5625 -2.375 1.671875 -1.5 3.15625 -1.34375 L 3.15625 -0.78125 C 3.15625 -0.453125 3.15625 -0.3125 2.203125 -0.3125 L 1.875 -0.3125 L 1.875 0 C 2.234375 -0.03125 3.15625 -0.03125 3.5625 -0.03125 C 3.96875 -0.03125 4.890625 -0.03125 5.25 0 L 5.25 -0.3125 L 4.921875 -0.3125 C 3.984375 -0.3125 3.984375 -0.4375 3.984375 -0.78125 Z M 3.15625 -1.578125 C 1.734375 -1.765625 1.5625 -2.78125 1.5625 -3.40625 C 1.5625 -3.921875 1.65625 -5.03125 3.15625 -5.234375 Z M 3.984375 -5.25 C 5.359375 -5.078125 5.625 -4.171875 5.625 -3.40625 C 5.625 -2.8125 5.484375 -1.75 3.984375 -1.5625 Z M 3.984375 -5.25 "
               id="path3856" />
          </symbol>
          <symbol
             overflow="visible"
             id="textext-48caf527-1">
            <path
               style="stroke:none;"
               d="M 3.296875 2.390625 C 3.296875 2.359375 3.296875 2.34375 3.125 2.171875 C 1.890625 0.921875 1.5625 -0.96875 1.5625 -2.5 C 1.5625 -4.234375 1.9375 -5.96875 3.171875 -7.203125 C 3.296875 -7.328125 3.296875 -7.34375 3.296875 -7.375 C 3.296875 -7.453125 3.265625 -7.484375 3.203125 -7.484375 C 3.09375 -7.484375 2.203125 -6.796875 1.609375 -5.53125 C 1.109375 -4.4375 0.984375 -3.328125 0.984375 -2.5 C 0.984375 -1.71875 1.09375 -0.515625 1.640625 0.625 C 2.25 1.84375 3.09375 2.5 3.203125 2.5 C 3.265625 2.5 3.296875 2.46875 3.296875 2.390625 Z M 3.296875 2.390625 "
               id="path3860" />
          </symbol>
          <symbol
             overflow="visible"
             id="textext-48caf527-2">
            <path
               style="stroke:none;"
               d="M 2.875 -2.5 C 2.875 -3.265625 2.765625 -4.46875 2.21875 -5.609375 C 1.625 -6.828125 0.765625 -7.484375 0.671875 -7.484375 C 0.609375 -7.484375 0.5625 -7.4375 0.5625 -7.375 C 0.5625 -7.34375 0.5625 -7.328125 0.75 -7.140625 C 1.734375 -6.15625 2.296875 -4.578125 2.296875 -2.5 C 2.296875 -0.78125 1.9375 0.96875 0.703125 2.21875 C 0.5625 2.34375 0.5625 2.359375 0.5625 2.390625 C 0.5625 2.453125 0.609375 2.5 0.671875 2.5 C 0.765625 2.5 1.671875 1.8125 2.25 0.546875 C 2.765625 -0.546875 2.875 -1.65625 2.875 -2.5 Z M 2.875 -2.5 "
               id="path3863" />
          </symbol>
          <symbol
             overflow="visible"
             id="textext-48caf527-3">
            <path
               style="stroke:none;"
               d="M 3.8125 -0.984375 C 4.453125 -1.640625 4.703125 -2.578125 4.703125 -2.640625 C 4.703125 -2.734375 4.625 -2.734375 4.59375 -2.734375 C 4.5 -2.734375 4.5 -2.71875 4.453125 -2.5625 C 4.328125 -2.109375 4.09375 -1.671875 3.796875 -1.296875 C 3.796875 -1.40625 3.78125 -1.875 3.765625 -1.9375 C 3.65625 -2.625 3.140625 -3.078125 2.4375 -3.078125 C 1.421875 -3.078125 0.4375 -2.125 0.4375 -1.140625 C 0.4375 -0.5 0.90625 0.0625 1.703125 0.0625 C 2.34375 0.0625 2.921875 -0.21875 3.3125 -0.515625 C 3.484375 -0.015625 3.828125 0.0625 4.046875 0.0625 C 4.453125 0.0625 4.703125 -0.265625 4.703125 -0.421875 C 4.703125 -0.5 4.609375 -0.5 4.578125 -0.5 C 4.484375 -0.5 4.46875 -0.46875 4.453125 -0.4375 C 4.359375 -0.171875 4.140625 -0.125 4.0625 -0.125 C 3.96875 -0.125 3.84375 -0.125 3.8125 -0.984375 Z M 3.265625 -0.75 C 2.578125 -0.1875 2 -0.125 1.734375 -0.125 C 1.265625 -0.125 1.015625 -0.4375 1.015625 -0.90625 C 1.015625 -1.09375 1.109375 -1.859375 1.46875 -2.34375 C 1.796875 -2.765625 2.1875 -2.875 2.4375 -2.875 C 2.984375 -2.875 3.15625 -2.34375 3.203125 -1.90625 C 3.25 -1.609375 3.234375 -1.109375 3.265625 -0.75 Z M 3.265625 -0.75 "
               id="path3866" />
          </symbol>
          <symbol
             overflow="visible"
             id="textext-48caf527-4">
            <path
               style="stroke:none;"
               d="M 2.03125 -3.359375 L 2.03125 -4.484375 L 0.375 -4.40625 L 0.375 -3.9375 C 0.984375 -3.9375 1.0625 -3.9375 1.0625 -3.546875 L 1.0625 -0.46875 L 0.375 -0.46875 L 0.375 0 C 0.71875 -0.015625 1.171875 -0.03125 1.625 -0.03125 C 2 -0.03125 2.640625 -0.03125 3 0 L 3 -0.46875 L 2.140625 -0.46875 L 2.140625 -2.21875 C 2.140625 -2.90625 2.375 -4.125 3.375 -4.125 C 3.375 -4.109375 3.1875 -3.953125 3.1875 -3.671875 C 3.1875 -3.265625 3.515625 -3.0625 3.796875 -3.0625 C 4.09375 -3.0625 4.40625 -3.265625 4.40625 -3.671875 C 4.40625 -4.203125 3.875 -4.484375 3.34375 -4.484375 C 2.65625 -4.484375 2.25 -3.984375 2.03125 -3.359375 Z M 2.03125 -3.359375 "
               id="path3869" />
          </symbol>
          <symbol
             overflow="visible"
             id="textext-48caf527-5">
            <path
               style="stroke:none;"
               d="M 2.03125 -0.015625 C 2.03125 -0.671875 1.78125 -1.0625 1.390625 -1.0625 C 1.0625 -1.0625 0.859375 -0.8125 0.859375 -0.53125 C 0.859375 -0.265625 1.0625 0 1.390625 0 C 1.5 0 1.640625 -0.046875 1.734375 -0.125 C 1.765625 -0.15625 1.78125 -0.15625 1.78125 -0.15625 C 1.796875 -0.15625 1.796875 -0.15625 1.796875 -0.015625 C 1.796875 0.734375 1.453125 1.328125 1.125 1.65625 C 1.015625 1.765625 1.015625 1.78125 1.015625 1.8125 C 1.015625 1.890625 1.0625 1.921875 1.109375 1.921875 C 1.21875 1.921875 2.03125 1.15625 2.03125 -0.015625 Z M 2.03125 -0.015625 "
               id="path3872" />
          </symbol>
          <symbol
             overflow="visible"
             id="textext-48caf527-6">
            <path
               style="stroke:none;"
               d="M 2.046875 -3.984375 L 2.984375 -3.984375 C 3.1875 -3.984375 3.296875 -3.984375 3.296875 -4.1875 C 3.296875 -4.296875 3.1875 -4.296875 3.015625 -4.296875 L 2.140625 -4.296875 C 2.5 -5.71875 2.546875 -5.90625 2.546875 -5.96875 C 2.546875 -6.140625 2.421875 -6.234375 2.25 -6.234375 C 2.21875 -6.234375 1.9375 -6.234375 1.859375 -5.875 L 1.46875 -4.296875 L 0.53125 -4.296875 C 0.328125 -4.296875 0.234375 -4.296875 0.234375 -4.109375 C 0.234375 -3.984375 0.3125 -3.984375 0.515625 -3.984375 L 1.390625 -3.984375 C 0.671875 -1.15625 0.625 -0.984375 0.625 -0.8125 C 0.625 -0.265625 1 0.109375 1.546875 0.109375 C 2.5625 0.109375 3.125 -1.34375 3.125 -1.421875 C 3.125 -1.53125 3.046875 -1.53125 3.015625 -1.53125 C 2.921875 -1.53125 2.90625 -1.5 2.859375 -1.390625 C 2.4375 -0.34375 1.90625 -0.109375 1.5625 -0.109375 C 1.359375 -0.109375 1.25 -0.234375 1.25 -0.5625 C 1.25 -0.8125 1.28125 -0.875 1.3125 -1.046875 Z M 2.046875 -3.984375 "
               id="path3875" />
          </symbol>
        </g>
      </defs>
      <g
         id="textext-48caf527-7">
        <g
           style="fill:rgb(0%,0%,0%);fill-opacity:1;"
           id="g3878">
          <use
             xlink:href="#textext-48caf527-0"
             x="223.432"
             y="134.765"
             id="use3880" />
        </g>
        <g
           style="fill:rgb(0%,0%,0%);fill-opacity:1;"
           id="g3882">
          <use
             xlink:href="#textext-48caf527-3"
             x="230.627"
             y="136.259"
             id="use3884" />
        </g>
        <g
           style="fill:rgb(0%,0%,0%);fill-opacity:1;"
           id="g3886">
          <use
             xlink:href="#textext-48caf527-1"
             x="236.305"
             y="134.765"
             id="use3888" />
        </g>
        <g
           style="fill:rgb(0%,0%,0%);fill-opacity:1;"
           id="g3890">
          <use
             xlink:href="#textext-48caf527-4"
             x="240.179"
             y="134.765"
             id="use3892" />
        </g>
        <g
           style="fill:rgb(0%,0%,0%);fill-opacity:1;"
           id="g3894">
          <use
             xlink:href="#textext-48caf527-5"
             x="244.898"
             y="134.765"
             id="use3896" />
        </g>
        <g
           style="fill:rgb(0%,0%,0%);fill-opacity:1;"
           id="g3898">
          <use
             xlink:href="#textext-48caf527-6"
             x="249.329364"
             y="134.765"
             id="use3900" />
        </g>
        <g
           style="fill:rgb(0%,0%,0%);fill-opacity:1;"
           id="g3902">
          <use
             xlink:href="#textext-48caf527-2"
             x="252.923"
             y="134.765"
             id="use3904" />
        </g>
      </g>
    </g>
    <g
       id="g4304"
       transform="translate(87.878987,301.1184)"
       ns0:preamble="/home/andrerei/.config/inkscape/extensions/preamble.inc"
       ns0:text="$\\Phi_{\\beta}(\\textbf{r}\',t\')$">
      <defs
         id="defs4306">
        <g
           id="g4308">
          <symbol
             id="textext-74248f98-0"
             overflow="visible">
            <path
               id="path4311"
               d="M 3.984375 -1.34375 C 5.515625 -1.46875 6.625 -2.390625 6.625 -3.40625 C 6.625 -4.4375 5.5 -5.34375 3.984375 -5.46875 L 3.984375 -6.015625 C 3.984375 -6.359375 3.984375 -6.5 4.921875 -6.5 L 5.25 -6.5 L 5.25 -6.8125 C 4.890625 -6.78125 3.984375 -6.78125 3.5625 -6.78125 C 3.15625 -6.78125 2.234375 -6.78125 1.875 -6.8125 L 1.875 -6.5 L 2.203125 -6.5 C 3.15625 -6.5 3.15625 -6.375 3.15625 -6.015625 L 3.15625 -5.46875 C 1.625 -5.3125 0.5625 -4.390625 0.5625 -3.40625 C 0.5625 -2.375 1.671875 -1.5 3.15625 -1.34375 L 3.15625 -0.78125 C 3.15625 -0.453125 3.15625 -0.3125 2.203125 -0.3125 L 1.875 -0.3125 L 1.875 0 C 2.234375 -0.03125 3.15625 -0.03125 3.5625 -0.03125 C 3.96875 -0.03125 4.890625 -0.03125 5.25 0 L 5.25 -0.3125 L 4.921875 -0.3125 C 3.984375 -0.3125 3.984375 -0.4375 3.984375 -0.78125 Z M 3.15625 -1.578125 C 1.734375 -1.765625 1.5625 -2.78125 1.5625 -3.40625 C 1.5625 -3.921875 1.65625 -5.03125 3.15625 -5.234375 Z M 3.984375 -5.25 C 5.359375 -5.078125 5.625 -4.171875 5.625 -3.40625 C 5.625 -2.8125 5.484375 -1.75 3.984375 -1.5625 Z M 3.984375 -5.25 "
               style="stroke:none;" />
          </symbol>
          <symbol
             id="textext-74248f98-1"
             overflow="visible">
            <path
               id="path4314"
               d="M 3.296875 2.390625 C 3.296875 2.359375 3.296875 2.34375 3.125 2.171875 C 1.890625 0.921875 1.5625 -0.96875 1.5625 -2.5 C 1.5625 -4.234375 1.9375 -5.96875 3.171875 -7.203125 C 3.296875 -7.328125 3.296875 -7.34375 3.296875 -7.375 C 3.296875 -7.453125 3.265625 -7.484375 3.203125 -7.484375 C 3.09375 -7.484375 2.203125 -6.796875 1.609375 -5.53125 C 1.109375 -4.4375 0.984375 -3.328125 0.984375 -2.5 C 0.984375 -1.71875 1.09375 -0.515625 1.640625 0.625 C 2.25 1.84375 3.09375 2.5 3.203125 2.5 C 3.265625 2.5 3.296875 2.46875 3.296875 2.390625 Z M 3.296875 2.390625 "
               style="stroke:none;" />
          </symbol>
          <symbol
             id="textext-74248f98-2"
             overflow="visible">
            <path
               id="path4317"
               d="M 2.875 -2.5 C 2.875 -3.265625 2.765625 -4.46875 2.21875 -5.609375 C 1.625 -6.828125 0.765625 -7.484375 0.671875 -7.484375 C 0.609375 -7.484375 0.5625 -7.4375 0.5625 -7.375 C 0.5625 -7.34375 0.5625 -7.328125 0.75 -7.140625 C 1.734375 -6.15625 2.296875 -4.578125 2.296875 -2.5 C 2.296875 -0.78125 1.9375 0.96875 0.703125 2.21875 C 0.5625 2.34375 0.5625 2.359375 0.5625 2.390625 C 0.5625 2.453125 0.609375 2.5 0.671875 2.5 C 0.765625 2.5 1.671875 1.8125 2.25 0.546875 C 2.765625 -0.546875 2.875 -1.65625 2.875 -2.5 Z M 2.875 -2.5 "
               style="stroke:none;" />
          </symbol>
          <symbol
             id="textext-74248f98-3"
             overflow="visible">
            <path
               id="path4320"
               d="M 4.40625 -3.9375 C 4.40625 -4.5625 3.875 -4.90625 3.265625 -4.90625 C 2.3125 -4.90625 1.609375 -3.828125 1.4375 -3.125 L 0.34375 1.265625 C 0.328125 1.3125 0.390625 1.359375 0.4375 1.359375 C 0.5 1.359375 0.5625 1.34375 0.578125 1.296875 L 1.03125 -0.5625 C 1.1875 -0.234375 1.515625 0.0625 2.078125 0.0625 C 3.0625 0.0625 4.15625 -0.640625 4.15625 -1.703125 C 4.15625 -2.125 3.96875 -2.53125 3.609375 -2.765625 C 3.953125 -2.984375 4.40625 -3.375 4.40625 -3.9375 Z M 3.03125 -2.78125 C 2.921875 -2.75 2.875 -2.71875 2.671875 -2.71875 C 2.5625 -2.71875 2.390625 -2.734375 2.34375 -2.765625 C 2.421875 -2.796875 2.609375 -2.8125 2.671875 -2.8125 C 2.78125 -2.8125 2.9375 -2.796875 3.03125 -2.78125 Z M 3.953125 -4.0625 C 3.953125 -3.703125 3.765625 -3.15625 3.34375 -2.90625 C 3.203125 -2.953125 3.078125 -3 2.6875 -3 C 2.4375 -3 2.09375 -2.984375 2.09375 -2.734375 C 2.09375 -2.5625 2.3125 -2.53125 2.65625 -2.53125 C 2.90625 -2.53125 3.109375 -2.578125 3.328125 -2.640625 C 3.53125 -2.484375 3.640625 -2.203125 3.640625 -1.890625 C 3.640625 -0.890625 2.953125 -0.125 2.109375 -0.125 C 1.5625 -0.125 1.1875 -0.453125 1.1875 -1.015625 C 1.1875 -1.078125 1.1875 -1.15625 1.203125 -1.21875 L 1.671875 -3.0625 C 1.828125 -3.734375 2.453125 -4.71875 3.25 -4.71875 C 3.671875 -4.71875 3.953125 -4.5 3.953125 -4.0625 Z M 3.953125 -4.0625 "
               style="stroke:none;" />
          </symbol>
          <symbol
             id="textext-74248f98-4"
             overflow="visible">
            <path
               id="path4323"
               d="M 2.03125 -3.359375 L 2.03125 -4.484375 L 0.375 -4.40625 L 0.375 -3.9375 C 0.984375 -3.9375 1.0625 -3.9375 1.0625 -3.546875 L 1.0625 -0.46875 L 0.375 -0.46875 L 0.375 0 C 0.71875 -0.015625 1.171875 -0.03125 1.625 -0.03125 C 2 -0.03125 2.640625 -0.03125 3 0 L 3 -0.46875 L 2.140625 -0.46875 L 2.140625 -2.21875 C 2.140625 -2.90625 2.375 -4.125 3.375 -4.125 C 3.375 -4.109375 3.1875 -3.953125 3.1875 -3.671875 C 3.1875 -3.265625 3.515625 -3.0625 3.796875 -3.0625 C 4.09375 -3.0625 4.40625 -3.265625 4.40625 -3.671875 C 4.40625 -4.203125 3.875 -4.484375 3.34375 -4.484375 C 2.65625 -4.484375 2.25 -3.984375 2.03125 -3.359375 Z M 2.03125 -3.359375 "
               style="stroke:none;" />
          </symbol>
          <symbol
             id="textext-74248f98-5"
             overflow="visible">
            <path
               id="path4326"
               d="M 2.015625 -3.296875 C 2.078125 -3.40625 2.078125 -3.46875 2.078125 -3.515625 C 2.078125 -3.734375 1.890625 -3.890625 1.671875 -3.890625 C 1.40625 -3.890625 1.328125 -3.671875 1.296875 -3.5625 L 0.375 -0.546875 C 0.359375 -0.53125 0.328125 -0.453125 0.328125 -0.4375 C 0.328125 -0.359375 0.546875 -0.28125 0.609375 -0.28125 C 0.65625 -0.28125 0.65625 -0.296875 0.703125 -0.40625 Z M 2.015625 -3.296875 "
               style="stroke:none;" />
          </symbol>
          <symbol
             id="textext-74248f98-6"
             overflow="visible">
            <path
               id="path4329"
               d="M 2.03125 -0.015625 C 2.03125 -0.671875 1.78125 -1.0625 1.390625 -1.0625 C 1.0625 -1.0625 0.859375 -0.8125 0.859375 -0.53125 C 0.859375 -0.265625 1.0625 0 1.390625 0 C 1.5 0 1.640625 -0.046875 1.734375 -0.125 C 1.765625 -0.15625 1.78125 -0.15625 1.78125 -0.15625 C 1.796875 -0.15625 1.796875 -0.15625 1.796875 -0.015625 C 1.796875 0.734375 1.453125 1.328125 1.125 1.65625 C 1.015625 1.765625 1.015625 1.78125 1.015625 1.8125 C 1.015625 1.890625 1.0625 1.921875 1.109375 1.921875 C 1.21875 1.921875 2.03125 1.15625 2.03125 -0.015625 Z M 2.03125 -0.015625 "
               style="stroke:none;" />
          </symbol>
          <symbol
             id="textext-74248f98-7"
             overflow="visible">
            <path
               id="path4332"
               d="M 2.046875 -3.984375 L 2.984375 -3.984375 C 3.1875 -3.984375 3.296875 -3.984375 3.296875 -4.1875 C 3.296875 -4.296875 3.1875 -4.296875 3.015625 -4.296875 L 2.140625 -4.296875 C 2.5 -5.71875 2.546875 -5.90625 2.546875 -5.96875 C 2.546875 -6.140625 2.421875 -6.234375 2.25 -6.234375 C 2.21875 -6.234375 1.9375 -6.234375 1.859375 -5.875 L 1.46875 -4.296875 L 0.53125 -4.296875 C 0.328125 -4.296875 0.234375 -4.296875 0.234375 -4.109375 C 0.234375 -3.984375 0.3125 -3.984375 0.515625 -3.984375 L 1.390625 -3.984375 C 0.671875 -1.15625 0.625 -0.984375 0.625 -0.8125 C 0.625 -0.265625 1 0.109375 1.546875 0.109375 C 2.5625 0.109375 3.125 -1.34375 3.125 -1.421875 C 3.125 -1.53125 3.046875 -1.53125 3.015625 -1.53125 C 2.921875 -1.53125 2.90625 -1.5 2.859375 -1.390625 C 2.4375 -0.34375 1.90625 -0.109375 1.5625 -0.109375 C 1.359375 -0.109375 1.25 -0.234375 1.25 -0.5625 C 1.25 -0.8125 1.28125 -0.875 1.3125 -1.046875 Z M 2.046875 -3.984375 "
               style="stroke:none;" />
          </symbol>
        </g>
      </defs>
      <g
         id="textext-74248f98-8">
        <g
           id="g4335"
           style="fill:rgb(0%,0%,0%);fill-opacity:1;">
          <use
             id="use4337"
             y="134.765"
             x="223.432"
             xlink:href="#textext-74248f98-0" />
        </g>
        <g
           id="g4339"
           style="fill:rgb(0%,0%,0%);fill-opacity:1;">
          <use
             id="use4341"
             y="136.259"
             x="230.627"
             xlink:href="#textext-74248f98-3" />
        </g>
        <g
           id="g4343"
           style="fill:rgb(0%,0%,0%);fill-opacity:1;">
          <use
             id="use4345"
             y="134.765"
             x="236.001"
             xlink:href="#textext-74248f98-1" />
        </g>
        <g
           id="g4347"
           style="fill:rgb(0%,0%,0%);fill-opacity:1;">
          <use
             id="use4349"
             y="134.765"
             x="239.876"
             xlink:href="#textext-74248f98-4" />
        </g>
        <g
           id="g4351"
           style="fill:rgb(0%,0%,0%);fill-opacity:1;">
          <use
             id="use4353"
             y="131.15"
             x="244.594"
             xlink:href="#textext-74248f98-5" />
        </g>
        <g
           id="g4355"
           style="fill:rgb(0%,0%,0%);fill-opacity:1;">
          <use
             id="use4357"
             y="134.765"
             x="247.389"
             xlink:href="#textext-74248f98-6" />
        </g>
        <g
           id="g4359"
           style="fill:rgb(0%,0%,0%);fill-opacity:1;">
          <use
             id="use4361"
             y="134.765"
             x="251.820364"
             xlink:href="#textext-74248f98-7" />
        </g>
        <g
           id="g4363"
           style="fill:rgb(0%,0%,0%);fill-opacity:1;">
          <use
             id="use4365"
             y="131.15"
             x="255.415"
             xlink:href="#textext-74248f98-5" />
        </g>
        <g
           id="g4367"
           style="fill:rgb(0%,0%,0%);fill-opacity:1;">
          <use
             id="use4369"
             y="134.765"
             x="258.21"
             xlink:href="#textext-74248f98-2" />
        </g>
      </g>
    </g>
  </g>
</svg>
