<?xml version="1.0" encoding="UTF-8" standalone="no"?>
<!-- Created with Inkscape (http://www.inkscape.org/) -->

<svg
   xmlns:ns0="http://www.iki.fi/pav/software/textext/"
   xmlns:dc="http://purl.org/dc/elements/1.1/"
   xmlns:cc="http://creativecommons.org/ns#"
   xmlns:rdf="http://www.w3.org/1999/02/22-rdf-syntax-ns#"
   xmlns:svg="http://www.w3.org/2000/svg"
   xmlns="http://www.w3.org/2000/svg"
   xmlns:xlink="http://www.w3.org/1999/xlink"
   xmlns:sodipodi="http://sodipodi.sourceforge.net/DTD/sodipodi-0.dtd"
   xmlns:inkscape="http://www.inkscape.org/namespaces/inkscape"
   width="744.09448819"
   height="1052.3622047"
   id="svg2"
   version="1.1"
   inkscape:version="0.48.1 r9760"
   sodipodi:docname="srcdet.svg">
  <sodipodi:namedview
     id="base"
     pagecolor="#ffffff"
     bordercolor="#666666"
     borderopacity="1.0"
     inkscape:pageopacity="0.0"
     inkscape:pageshadow="2"
     inkscape:zoom="1.979899"
     inkscape:cx="146.63032"
     inkscape:cy="481.78589"
     inkscape:document-units="px"
     inkscape:current-layer="layer1"
     showgrid="false"
     inkscape:window-width="1272"
     inkscape:window-height="1050"
     inkscape:window-x="0"
     inkscape:window-y="25"
     inkscape:window-maximized="0"
     inkscape:snap-bbox="true">
    <inkscape:grid
       type="xygrid"
       id="grid2992" />
  </sodipodi:namedview>
  <defs
     id="defs4">
    <marker
       style="overflow:visible"
       id="Arrow2Mstart"
       refX="0.0"
       refY="0.0"
       orient="auto"
       inkscape:stockid="Arrow2Mstart">
      <path
         transform="scale(0.6) translate(0,0)"
         d="M 8.7185878,4.0337352 L -2.2072895,0.016013256 L 8.7185884,-4.0017078 C 6.9730900,-1.6296469 6.9831476,1.6157441 8.7185878,4.0337352 z "
         style="font-size:12.0;fill-rule:evenodd;stroke-width:0.62500000;stroke-linejoin:round"
         id="path4202" />
    </marker>
    <marker
       style="overflow:visible"
       id="Arrow1Lstart"
       refX="0.0"
       refY="0.0"
       orient="auto"
       inkscape:stockid="Arrow1Lstart">
      <path
         transform="scale(0.8) translate(12.5,0)"
         style="fill-rule:evenodd;stroke:#000000;stroke-width:1.0pt;marker-start:none"
         d="M 0.0,0.0 L 5.0,-5.0 L -12.5,0.0 L 5.0,5.0 L 0.0,0.0 z "
         id="path4178" />
    </marker>
    <marker
       inkscape:stockid="Arrow2Mend"
       orient="auto"
       refY="0.0"
       refX="0.0"
       id="Arrow2Mend"
       style="overflow:visible;">
      <path
         id="path3836"
         style="font-size:12.0;fill-rule:evenodd;stroke-width:0.62500000;stroke-linejoin:round;"
         d="M 8.7185878,4.0337352 L -2.2072895,0.016013256 L 8.7185884,-4.0017078 C 6.9730900,-1.6296469 6.9831476,1.6157441 8.7185878,4.0337352 z "
         transform="scale(0.6) rotate(180) translate(0,0)" />
    </marker>
    <marker
       inkscape:stockid="Arrow1Send"
       orient="auto"
       refY="0.0"
       refX="0.0"
       id="Arrow1Send"
       style="overflow:visible;">
      <path
         id="path3824"
         d="M 0.0,0.0 L 5.0,-5.0 L -12.5,0.0 L 5.0,5.0 L 0.0,0.0 z "
         style="fill-rule:evenodd;stroke:#000000;stroke-width:1.0pt;marker-start:none;"
         transform="scale(0.2) rotate(180) translate(6,0)" />
    </marker>
    <marker
       inkscape:stockid="Arrow2Lend"
       orient="auto"
       refY="0.0"
       refX="0.0"
       id="Arrow2Lend"
       style="overflow:visible;">
      <path
         id="path3830"
         style="font-size:12.0;fill-rule:evenodd;stroke-width:0.62500000;stroke-linejoin:round;"
         d="M 8.7185878,4.0337352 L -2.2072895,0.016013256 L 8.7185884,-4.0017078 C 6.9730900,-1.6296469 6.9831476,1.6157441 8.7185878,4.0337352 z "
         transform="scale(1.1) rotate(180) translate(1,0)" />
    </marker>
    <marker
       inkscape:stockid="Arrow2Mend"
       orient="auto"
       refY="0"
       refX="0"
       id="Arrow2Mend-1"
       style="overflow:visible">
      <path
         id="path3836-7"
         style="font-size:12px;fill-rule:evenodd;stroke-width:0.625;stroke-linejoin:round"
         d="M 8.7185878,4.0337352 -2.2072895,0.01601326 8.7185884,-4.0017078 c -1.7454984,2.3720609 -1.7354408,5.6174519 -6e-7,8.035443 z"
         transform="scale(-0.6,-0.6)"
         inkscape:connector-curvature="0" />
    </marker>
    <marker
       inkscape:stockid="Arrow2Mend"
       orient="auto"
       refY="0"
       refX="0"
       id="Arrow2Mend-8"
       style="overflow:visible">
      <path
         id="path3836-3"
         style="font-size:12px;fill-rule:evenodd;stroke-width:0.625;stroke-linejoin:round"
         d="M 8.7185878,4.0337352 -2.2072895,0.01601326 8.7185884,-4.0017078 c -1.7454984,2.3720609 -1.7354408,5.6174519 -6e-7,8.035443 z"
         transform="scale(-0.6,-0.6)"
         inkscape:connector-curvature="0" />
    </marker>
    <clipPath
       id="clipPath6056"
       clipPathUnits="userSpaceOnUse">
      <rect
         y="-5.3753233"
         x="89.244614"
         height="157.95964"
         width="200.08221"
         id="rect6058"
         style="opacity:0.91505791;fill:none;stroke:#000000;stroke-width:1.05306423;stroke-miterlimit:4;stroke-opacity:1;stroke-dasharray:none;stroke-dashoffset:0" />
    </clipPath>
    <clipPath
       id="clipPath6060"
       clipPathUnits="userSpaceOnUse">
      <rect
         y="-5.4563618"
         x="169.64941"
         height="157.95964"
         width="200.08221"
         id="rect6062"
         style="opacity:0.91505791;fill:none;stroke:#000000;stroke-width:1.05306423;stroke-miterlimit:4;stroke-opacity:1;stroke-dasharray:none;stroke-dashoffset:0" />
    </clipPath>
    <clipPath
       id="clipPath6064"
       clipPathUnits="userSpaceOnUse">
      <rect
         y="89.400459"
         x="89.244614"
         height="157.95964"
         width="200.08221"
         id="rect6066"
         style="opacity:0.91505791;fill:none;stroke:#000000;stroke-width:1.05306423;stroke-miterlimit:4;stroke-opacity:1;stroke-dasharray:none;stroke-dashoffset:0" />
    </clipPath>
    <clipPath
       id="clipPath6068"
       clipPathUnits="userSpaceOnUse">
      <rect
         y="89.31942"
         x="169.64941"
         height="157.95964"
         width="200.08221"
         id="rect6070"
         style="opacity:0.91505791;fill:none;stroke:#000000;stroke-width:1.05306423;stroke-miterlimit:4;stroke-opacity:1;stroke-dasharray:none;stroke-dashoffset:0" />
    </clipPath>
    <clipPath
       id="clipPath6072"
       clipPathUnits="userSpaceOnUse">
      <rect
         y="292.36218"
         x="50"
         height="300"
         width="380"
         id="rect6074"
         style="opacity:0.91505791;fill:none;stroke:#000000;stroke-width:2;stroke-miterlimit:4;stroke-opacity:1;stroke-dasharray:none;stroke-dashoffset:0" />
    </clipPath>
    <clipPath
       id="clipPath6076"
       clipPathUnits="userSpaceOnUse">
      <rect
         y="292.36218"
         x="50"
         height="300"
         width="380"
         id="rect6078"
         style="opacity:0.91505791;fill:none;stroke:#000000;stroke-width:2;stroke-miterlimit:4;stroke-opacity:1;stroke-dasharray:none;stroke-dashoffset:0" />
    </clipPath>
    <clipPath
       id="clipPath6080"
       clipPathUnits="userSpaceOnUse">
      <rect
         y="292.36218"
         x="50"
         height="300"
         width="380"
         id="rect6082"
         style="opacity:0.91505791;fill:none;stroke:#000000;stroke-width:2;stroke-miterlimit:4;stroke-opacity:1;stroke-dasharray:none;stroke-dashoffset:0" />
    </clipPath>
    <clipPath
       id="clipPath6084"
       clipPathUnits="userSpaceOnUse">
      <rect
         y="292.36218"
         x="50"
         height="300"
         width="380"
         id="rect6086"
         style="opacity:0.91505791;fill:none;stroke:#000000;stroke-width:2;stroke-miterlimit:4;stroke-opacity:1;stroke-dasharray:none;stroke-dashoffset:0" />
    </clipPath>
    <clipPath
       id="clipPath6088"
       clipPathUnits="userSpaceOnUse">
      <rect
         y="292.36218"
         x="50"
         height="300"
         width="380"
         id="rect6090"
         style="opacity:0.91505791;fill:none;stroke:#000000;stroke-width:2;stroke-miterlimit:4;stroke-opacity:1;stroke-dasharray:none;stroke-dashoffset:0" />
    </clipPath>
    <clipPath
       id="clipPath6092"
       clipPathUnits="userSpaceOnUse">
      <rect
         y="292.36218"
         x="50"
         height="300"
         width="380"
         id="rect6094"
         style="opacity:0.91505791;fill:none;stroke:#000000;stroke-width:2;stroke-miterlimit:4;stroke-opacity:1;stroke-dasharray:none;stroke-dashoffset:0" />
    </clipPath>
    <clipPath
       id="clipPath6096"
       clipPathUnits="userSpaceOnUse">
      <rect
         y="292.36218"
         x="50"
         height="300"
         width="380"
         id="rect6098"
         style="opacity:0.91505791;fill:none;stroke:#000000;stroke-width:2;stroke-miterlimit:4;stroke-opacity:1;stroke-dasharray:none;stroke-dashoffset:0" />
    </clipPath>
    <clipPath
       id="clipPath6100"
       clipPathUnits="userSpaceOnUse">
      <rect
         y="292.36218"
         x="50"
         height="300"
         width="380"
         id="rect6102"
         style="opacity:0.91505791;fill:none;stroke:#000000;stroke-width:2;stroke-miterlimit:4;stroke-opacity:1;stroke-dasharray:none;stroke-dashoffset:0" />
    </clipPath>
    <clipPath
       id="clipPath6104"
       clipPathUnits="userSpaceOnUse">
      <rect
         y="292.36218"
         x="50"
         height="300"
         width="380"
         id="rect6106"
         style="opacity:0.91505791;fill:none;stroke:#000000;stroke-width:2;stroke-miterlimit:4;stroke-opacity:1;stroke-dasharray:none;stroke-dashoffset:0" />
    </clipPath>
    <marker
       inkscape:stockid="Arrow2Mend"
       orient="auto"
       refY="0"
       refX="0"
       id="Arrow2Mend-17"
       style="overflow:visible">
      <path
         id="path3836-8"
         style="font-size:12px;fill-rule:evenodd;stroke-width:0.625;stroke-linejoin:round"
         d="M 8.7185878,4.0337352 -2.2072895,0.01601326 8.7185884,-4.0017078 c -1.7454984,2.3720609 -1.7354408,5.6174519 -6e-7,8.035443 z"
         transform="scale(-0.6,-0.6)"
         inkscape:connector-curvature="0" />
    </marker>
    <clipPath
       id="clipPath6092-5"
       clipPathUnits="userSpaceOnUse">
      <rect
         y="292.36218"
         x="50"
         height="300"
         width="380"
         id="rect6094-7"
         style="opacity:0.91505791;fill:none;stroke:#000000;stroke-width:2;stroke-miterlimit:4;stroke-opacity:1;stroke-dasharray:none;stroke-dashoffset:0" />
    </clipPath>
    <marker
       inkscape:stockid="Arrow2Mend"
       orient="auto"
       refY="0"
       refX="0"
       id="marker3138"
       style="overflow:visible">
      <path
         id="path3140"
         style="font-size:12px;fill-rule:evenodd;stroke-width:0.625;stroke-linejoin:round"
         d="M 8.7185878,4.0337352 -2.2072895,0.01601326 8.7185884,-4.0017078 c -1.7454984,2.3720609 -1.7354408,5.6174519 -6e-7,8.035443 z"
         transform="scale(-0.6,-0.6)"
         inkscape:connector-curvature="0" />
    </marker>
    <clipPath
       id="clipPath6076-4"
       clipPathUnits="userSpaceOnUse">
      <rect
         y="292.36218"
         x="50"
         height="300"
         width="380"
         id="rect6078-1"
         style="opacity:0.91505791;fill:none;stroke:#000000;stroke-width:2;stroke-miterlimit:4;stroke-opacity:1;stroke-dasharray:none;stroke-dashoffset:0" />
    </clipPath>
    <clipPath
       id="clipPath6064-3"
       clipPathUnits="userSpaceOnUse">
      <rect
         y="89.400459"
         x="89.244614"
         height="157.95964"
         width="200.08221"
         id="rect6066-4"
         style="opacity:0.91505791;fill:none;stroke:#000000;stroke-width:1.05306423;stroke-miterlimit:4;stroke-opacity:1;stroke-dasharray:none;stroke-dashoffset:0" />
    </clipPath>
    <clipPath
       id="clipPath6068-6"
       clipPathUnits="userSpaceOnUse">
      <rect
         y="89.31942"
         x="169.64941"
         height="157.95964"
         width="200.08221"
         id="rect6070-3"
         style="opacity:0.91505791;fill:none;stroke:#000000;stroke-width:1.05306423;stroke-miterlimit:4;stroke-opacity:1;stroke-dasharray:none;stroke-dashoffset:0" />
    </clipPath>
    <marker
       inkscape:stockid="Arrow2Mend"
       orient="auto"
       refY="0"
       refX="0"
       id="marker3138-4"
       style="overflow:visible">
      <path
         id="path3140-1"
         style="font-size:12px;fill-rule:evenodd;stroke-width:0.625;stroke-linejoin:round"
         d="M 8.7185878,4.0337352 -2.2072895,0.01601326 8.7185884,-4.0017078 c -1.7454984,2.3720609 -1.7354408,5.6174519 -6e-7,8.035443 z"
         transform="scale(-0.6,-0.6)"
         inkscape:connector-curvature="0" />
    </marker>
    <clipPath
       id="clipPath6092-7"
       clipPathUnits="userSpaceOnUse">
      <rect
         y="292.36218"
         x="50"
         height="300"
         width="380"
         id="rect6094-9"
         style="opacity:0.91505791;fill:none;stroke:#000000;stroke-width:2;stroke-miterlimit:4;stroke-opacity:1;stroke-dasharray:none;stroke-dashoffset:0" />
    </clipPath>
    <marker
       inkscape:stockid="Arrow2Mend"
       orient="auto"
       refY="0"
       refX="0"
       id="marker3138-4-2"
       style="overflow:visible">
      <path
         id="path3140-1-2"
         style="font-size:12px;fill-rule:evenodd;stroke-width:0.625;stroke-linejoin:round"
         d="M 8.7185878,4.0337352 -2.2072895,0.01601326 8.7185884,-4.0017078 c -1.7454984,2.3720609 -1.7354408,5.6174519 -6e-7,8.035443 z"
         transform="scale(-0.6,-0.6)"
         inkscape:connector-curvature="0" />
    </marker>
    <clipPath
       id="clipPath6076-4-2"
       clipPathUnits="userSpaceOnUse">
      <rect
         y="292.36218"
         x="50"
         height="300"
         width="380"
         id="rect6078-1-4"
         style="opacity:0.91505791;fill:none;stroke:#000000;stroke-width:2;stroke-miterlimit:4;stroke-opacity:1;stroke-dasharray:none;stroke-dashoffset:0" />
    </clipPath>
    <marker
       inkscape:stockid="Arrow2Mend"
       orient="auto"
       refY="0"
       refX="0"
       id="marker3138-4-6"
       style="overflow:visible">
      <path
         id="path3140-1-0"
         style="font-size:12px;fill-rule:evenodd;stroke-width:0.625;stroke-linejoin:round"
         d="M 8.7185878,4.0337352 -2.2072895,0.01601326 8.7185884,-4.0017078 c -1.7454984,2.3720609 -1.7354408,5.6174519 -6e-7,8.035443 z"
         transform="scale(-0.6,-0.6)"
         inkscape:connector-curvature="0" />
    </marker>
    <clipPath
       id="clipPath6076-4-2-2"
       clipPathUnits="userSpaceOnUse">
      <rect
         y="292.36218"
         x="50"
         height="300"
         width="380"
         id="rect6078-1-4-2"
         style="opacity:0.91505791;fill:none;stroke:#000000;stroke-width:2;stroke-miterlimit:4;stroke-opacity:1;stroke-dasharray:none;stroke-dashoffset:0" />
    </clipPath>
    <marker
       style="overflow:visible"
       id="Arrow2Mstart-5"
       refX="0"
       refY="0"
       orient="auto"
       inkscape:stockid="Arrow2Mstart">
      <path
         transform="scale(0.6,0.6)"
         d="M 8.7185878,4.0337352 -2.2072895,0.01601326 8.7185884,-4.0017078 c -1.7454984,2.3720609 -1.7354408,5.6174519 -6e-7,8.035443 z"
         style="font-size:12px;fill-rule:evenodd;stroke-width:0.625;stroke-linejoin:round"
         id="path4202-0"
         inkscape:connector-curvature="0" />
    </marker>
  </defs>
  <metadata
     id="metadata7">
    <rdf:RDF>
      <cc:Work
         rdf:about="">
        <dc:format>image/svg+xml</dc:format>
        <dc:type
           rdf:resource="http://purl.org/dc/dcmitype/StillImage" />
        <dc:title />
      </cc:Work>
    </rdf:RDF>
  </metadata>
  <g
     inkscape:label="Layer 1"
     inkscape:groupmode="layer"
     id="layer1">
    <rect
       clip-path="url(#clipPath6104)"
       style="opacity:0.18532817;fill:#74d6f5;fill-opacity:1;stroke:none"
       id="rect4383"
       width="390"
       height="180"
       x="40"
       y="472.36218" />
    <path
       clip-path="url(#clipPath6100)"
       style="fill:none;stroke:#000000;stroke-width:1.55801594;stroke-linecap:butt;stroke-linejoin:miter;stroke-miterlimit:5.19999981;stroke-opacity:1;stroke-dasharray:none"
       d="m 40,472.36218 390,0"
       id="path2994"
       inkscape:connector-curvature="0" />
    <rect
       transform="matrix(1,0,0,1.0056119,0,-2.650877)"
       clip-path="url(#clipPath6096)"
       style="opacity:0.08494209;fill:#74d6f5;fill-opacity:1;stroke:none"
       id="rect4383-3"
       width="390"
       height="180"
       x="40"
       y="292.36218" />
    <path
       transform="matrix(1.0029872,0,0,0.94993895,-0.71691766,29.645115)"
       clip-path="url(#clipPath6084)"
       style="fill:none;stroke:#000000;stroke-width:0.69999999;stroke-linecap:butt;stroke-linejoin:miter;stroke-miterlimit:16.39999962;stroke-opacity:1;stroke-dasharray:2.1, 2.1;stroke-dashoffset:0;marker-start:url(#Arrow1Lstart)"
       d="m 240,292.36218 0,360"
       id="path3804"
       inkscape:connector-curvature="0" />
    <text
       clip-path="url(#clipPath6080)"
       xml:space="preserve"
       style="font-size:40px;font-style:normal;font-variant:normal;font-weight:normal;font-stretch:normal;line-height:125%;letter-spacing:0px;word-spacing:0px;fill:#000000;fill-opacity:1;stroke:none;font-family:Arial;-inkscape-font-specification:Arial"
       x="160.61424"
       y="339.69955"
       id="text4851"
       sodipodi:linespacing="125%"><tspan
         sodipodi:role="line"
         id="tspan4853"
         x="160.61424"
         y="339.69955" /></text>
    <g
       id="g10087"
       ns0:preamble="/home/andrerei/.config/inkscape/extensions/preamble.inc"
       ns0:text="$z$"
       transform="matrix(2.1808118,0,0,2.1808118,-252.92264,11.762089)">
      <defs
         id="defs10089">
        <g
           id="g10091">
          <symbol
             id="textext-6818ebdc-0"
             overflow="visible"
             style="overflow:visible">
            <path
               id="path10094"
               d="m 1.328125,-0.828125 c 0.53125,-0.578125 0.828125,-0.828125 1.1875,-1.140625 0,0 0.609375,-0.53125 0.96875,-0.890625 C 4.4375,-3.78125 4.65625,-4.265625 4.65625,-4.3125 c 0,-0.09375 -0.09375,-0.09375 -0.109375,-0.09375 -0.078125,0 -0.09375,0.015625 -0.15625,0.109375 -0.296875,0.484375 -0.5,0.640625 -0.734375,0.640625 -0.25,0 -0.359375,-0.15625 -0.515625,-0.328125 -0.1875,-0.21875 -0.359375,-0.421875 -0.6875,-0.421875 -0.75,0 -1.203125,0.921875 -1.203125,1.140625 0,0.046875 0.03125,0.109375 0.109375,0.109375 0.09375,0 0.109375,-0.046875 0.140625,-0.109375 0.1875,-0.46875 0.765625,-0.46875 0.84375,-0.46875 0.203125,0 0.390625,0.0625 0.625,0.140625 0.40625,0.15625 0.515625,0.15625 0.765625,0.15625 -0.359375,0.421875 -1.1875,1.140625 -1.375,1.296875 l -0.90625,0.84375 C 0.78125,-0.625 0.421875,-0.0625 0.421875,0.015625 c 0,0.09375 0.109375,0.09375 0.125,0.09375 0.078125,0 0.09375,-0.015625 0.15625,-0.125 0.234375,-0.359375 0.53125,-0.625 0.859375,-0.625 0.21875,0 0.328125,0.09375 0.578125,0.375 0.15625,0.21875 0.34375,0.375 0.625,0.375 1,0 1.578125,-1.265625 1.578125,-1.53125 0,-0.046875 -0.046875,-0.109375 -0.125,-0.109375 -0.09375,0 -0.109375,0.0625 -0.140625,0.140625 C 3.84375,-0.75 3.203125,-0.5625 2.875,-0.5625 c -0.1875,0 -0.375,-0.0625 -0.578125,-0.125 -0.34375,-0.125 -0.5,-0.171875 -0.703125,-0.171875 -0.015625,0 -0.171875,0 -0.265625,0.03125 z m 0,0"
               style="stroke:none"
               inkscape:connector-curvature="0" />
          </symbol>
        </g>
      </defs>
      <g
         id="textext-6818ebdc-1">
        <g
           id="g10097"
           style="fill:#000000;fill-opacity:1">
          <use
             id="use10099"
             y="134.765"
             x="223.43201"
             xlink:href="#textext-6818ebdc-0"
             width="744.09448"
             height="1052.3622" />
        </g>
      </g>
    </g>
    <g
       transform="translate(0,20)"
       id="g3185">
      <path
         sodipodi:nodetypes="ccc"
         inkscape:connector-curvature="0"
         id="path3802"
         d="M 240,472.36218 316.66544,517.4595 410,572.36218"
         style="fill:none;stroke:#000000;stroke-width:2;stroke-linecap:butt;stroke-linejoin:miter;stroke-miterlimit:4;stroke-opacity:1;stroke-dasharray:none;marker-mid:url(#marker3138-4);marker-end:none"
         clip-path="url(#clipPath6088)" />
      <g
         ns0:text="$\\mathbf{k}_{0,t}$"
         ns0:preamble="/home/andrerei/.config/inkscape/extensions/preamble.inc"
         transform="matrix(1.8992193,0,0,1.8992193,-119.49509,302.5711)"
         id="g5647">
        <defs
           id="defs5649">
          <g
             id="g5651">
            <symbol
               style="overflow:visible"
               overflow="visible"
               id="textext-61682034-0">
              <path
                 inkscape:connector-curvature="0"
                 style="stroke:none"
                 d="m 2.140625,-2.359375 0,-4.5625 -1.765625,0.078125 0,0.46875 c 0.609375,0 0.6875,0 0.6875,0.390625 l 0,5.515625 -0.6875,0 0,0.46875 c 0.359375,-0.015625 0.828125,-0.03125 1.1875,-0.03125 0.375,0 0.84375,0.015625 1.203125,0.03125 l 0,-0.46875 -0.6875,0 0,-1.265625 C 2.375,-1.96875 2.453125,-2.03125 2.65625,-2.15625 l 1,1.25 c 0.09375,0.125 0.25,0.3125 0.25,0.34375 0,0.09375 -0.171875,0.09375 -0.3125,0.09375 l 0,0.46875 c 0.296875,-0.015625 1.171875,-0.03125 1.21875,-0.03125 0.359375,0 0.703125,0.015625 1.046875,0.03125 l 0,-0.46875 -0.171875,0 c -0.4375,0 -0.46875,-0.046875 -0.59375,-0.203125 L 3.40625,-2.765625 4.703125,-3.78125 C 4.84375,-3.890625 4.9375,-3.953125 5.609375,-3.953125 l 0,-0.46875 c -0.28125,0.03125 -0.53125,0.03125 -0.78125,0.03125 -0.265625,0 -0.921875,-0.03125 -1.15625,-0.03125 l 0,0.46875 c 0.234375,0 0.265625,0.03125 0.34375,0.109375 z m 0,0"
                 id="path5654" />
            </symbol>
            <symbol
               style="overflow:visible"
               overflow="visible"
               id="textext-61682034-1">
              <path
                 inkscape:connector-curvature="0"
                 style="stroke:none"
                 d="M 3.59375,-2.21875 C 3.59375,-2.984375 3.5,-3.546875 3.1875,-4.03125 2.96875,-4.34375 2.53125,-4.625 1.984375,-4.625 c -1.625,0 -1.625,1.90625 -1.625,2.40625 0,0.5 0,2.359375 1.625,2.359375 1.609375,0 1.609375,-1.859375 1.609375,-2.359375 z M 1.984375,-0.0625 c -0.328125,0 -0.75,-0.1875 -0.890625,-0.75 C 1,-1.21875 1,-1.796875 1,-2.3125 1,-2.828125 1,-3.359375 1.09375,-3.734375 1.25,-4.28125 1.6875,-4.4375 1.984375,-4.4375 c 0.375,0 0.734375,0.234375 0.859375,0.640625 0.109375,0.375 0.125,0.875 0.125,1.484375 0,0.515625 0,1.03125 -0.09375,1.46875 -0.140625,0.640625 -0.609375,0.78125 -0.890625,0.78125 z m 0,0"
                 id="path5657" />
            </symbol>
            <symbol
               style="overflow:visible"
               overflow="visible"
               id="textext-61682034-2">
              <path
                 inkscape:connector-curvature="0"
                 style="stroke:none"
                 d="m 1.46875,-0.109375 c 0,0.375 -0.0625,0.828125 -0.546875,1.265625 C 0.90625,1.1875 0.875,1.21875 0.875,1.25 c 0,0.046875 0.0625,0.09375 0.09375,0.09375 0.109375,0 0.703125,-0.5625 0.703125,-1.390625 0,-0.421875 -0.171875,-0.75 -0.5,-0.75 -0.21875,0 -0.390625,0.171875 -0.390625,0.390625 C 0.78125,-0.1875 0.9375,0 1.1875,0 1.359375,0 1.46875,-0.109375 1.46875,-0.109375 z m 0,0"
                 id="path5660" />
            </symbol>
            <symbol
               style="overflow:visible"
               overflow="visible"
               id="textext-61682034-3">
              <path
                 inkscape:connector-curvature="0"
                 style="stroke:none"
                 d="m 1.71875,-2.75 0.703125,0 c 0.140625,0 0.21875,0 0.21875,-0.15625 C 2.640625,-3 2.5625,-3 2.4375,-3 l -0.65625,0 0.25,-1.03125 C 2.046875,-4.0625 2.0625,-4.109375 2.0625,-4.125 c 0,-0.140625 -0.109375,-0.234375 -0.25,-0.234375 -0.171875,0 -0.265625,0.125 -0.328125,0.296875 C 1.4375,-3.875 1.53125,-4.21875 1.21875,-3 l -0.703125,0 c -0.125,0 -0.21875,0 -0.21875,0.15625 C 0.296875,-2.75 0.375,-2.75 0.5,-2.75 l 0.65625,0 L 0.75,-1.109375 C 0.703125,-0.9375 0.640625,-0.6875 0.640625,-0.59375 c 0,0.40625 0.359375,0.65625 0.75,0.65625 0.78125,0 1.21875,-0.96875 1.21875,-1.0625 0,-0.09375 -0.09375,-0.09375 -0.109375,-0.09375 -0.09375,0 -0.09375,0.015625 -0.15625,0.140625 -0.1875,0.4375 -0.546875,0.828125 -0.921875,0.828125 -0.15625,0 -0.25,-0.09375 -0.25,-0.34375 0,-0.0625 0.03125,-0.21875 0.046875,-0.28125 z m 0,0"
                 id="path5663" />
            </symbol>
          </g>
        </defs>
        <g
           id="textext-61682034-4">
          <g
             style="fill:#000000;fill-opacity:1"
             id="g5666">
            <use
               height="1052.3622"
               width="744.09448"
               xlink:href="#textext-61682034-0"
               x="223.43201"
               y="134.765"
               id="use5668" />
          </g>
          <g
             style="fill:#000000;fill-opacity:1"
             id="g5670">
            <use
               height="1052.3622"
               width="744.09448"
               xlink:href="#textext-61682034-1"
               x="229.479"
               y="136.259"
               id="use5672" />
          </g>
          <g
             style="fill:#000000;fill-opacity:1"
             id="g5674">
            <use
               height="1052.3622"
               width="744.09448"
               xlink:href="#textext-61682034-2"
               x="233.45"
               y="136.259"
               id="use5676" />
            <use
               height="1052.3622"
               width="744.09448"
               xlink:href="#textext-61682034-3"
               x="235.81621"
               y="136.259"
               id="use5678" />
          </g>
        </g>
      </g>
      <g
         id="g6761"
         transform="matrix(1.8992193,0,0,1.8992193,-272.20145,270.72501)"
         ns0:preamble="/home/andrerei/.config/inkscape/extensions/preamble.inc"
         ns0:text="$\\mathbf{k}_{1,t}$">
        <defs
           id="defs6763">
          <g
             id="g6765">
            <symbol
               style="overflow:visible"
               id="textext-f3e53785-0"
               overflow="visible">
              <path
                 inkscape:connector-curvature="0"
                 id="path6768"
                 d="m 2.140625,-2.359375 0,-4.5625 -1.765625,0.078125 0,0.46875 c 0.609375,0 0.6875,0 0.6875,0.390625 l 0,5.515625 -0.6875,0 0,0.46875 c 0.359375,-0.015625 0.828125,-0.03125 1.1875,-0.03125 0.375,0 0.84375,0.015625 1.203125,0.03125 l 0,-0.46875 -0.6875,0 0,-1.265625 C 2.375,-1.96875 2.453125,-2.03125 2.65625,-2.15625 l 1,1.25 c 0.09375,0.125 0.25,0.3125 0.25,0.34375 0,0.09375 -0.171875,0.09375 -0.3125,0.09375 l 0,0.46875 c 0.296875,-0.015625 1.171875,-0.03125 1.21875,-0.03125 0.359375,0 0.703125,0.015625 1.046875,0.03125 l 0,-0.46875 -0.171875,0 c -0.4375,0 -0.46875,-0.046875 -0.59375,-0.203125 L 3.40625,-2.765625 4.703125,-3.78125 C 4.84375,-3.890625 4.9375,-3.953125 5.609375,-3.953125 l 0,-0.46875 c -0.28125,0.03125 -0.53125,0.03125 -0.78125,0.03125 -0.265625,0 -0.921875,-0.03125 -1.15625,-0.03125 l 0,0.46875 c 0.234375,0 0.265625,0.03125 0.34375,0.109375 z m 0,0"
                 style="stroke:none" />
            </symbol>
            <symbol
               style="overflow:visible"
               id="textext-f3e53785-1"
               overflow="visible">
              <path
                 inkscape:connector-curvature="0"
                 id="path6771"
                 d="m 2.328125,-4.4375 c 0,-0.1875 0,-0.1875 -0.203125,-0.1875 -0.453125,0.4375 -1.078125,0.4375 -1.359375,0.4375 l 0,0.25 c 0.15625,0 0.625,0 1,-0.1875 l 0,3.546875 c 0,0.234375 0,0.328125 -0.6875,0.328125 l -0.265625,0 0,0.25 c 0.125,0 0.984375,-0.03125 1.234375,-0.03125 0.21875,0 1.09375,0.03125 1.25,0.03125 l 0,-0.25 -0.265625,0 c -0.703125,0 -0.703125,-0.09375 -0.703125,-0.328125 z m 0,0"
                 style="stroke:none" />
            </symbol>
            <symbol
               style="overflow:visible"
               id="textext-f3e53785-2"
               overflow="visible">
              <path
                 inkscape:connector-curvature="0"
                 id="path6774"
                 d="m 1.46875,-0.109375 c 0,0.375 -0.0625,0.828125 -0.546875,1.265625 C 0.90625,1.1875 0.875,1.21875 0.875,1.25 c 0,0.046875 0.0625,0.09375 0.09375,0.09375 0.109375,0 0.703125,-0.5625 0.703125,-1.390625 0,-0.421875 -0.171875,-0.75 -0.5,-0.75 -0.21875,0 -0.390625,0.171875 -0.390625,0.390625 C 0.78125,-0.1875 0.9375,0 1.1875,0 1.359375,0 1.46875,-0.109375 1.46875,-0.109375 z m 0,0"
                 style="stroke:none" />
            </symbol>
            <symbol
               style="overflow:visible"
               id="textext-f3e53785-3"
               overflow="visible">
              <path
                 inkscape:connector-curvature="0"
                 id="path6777"
                 d="m 1.71875,-2.75 0.703125,0 c 0.140625,0 0.21875,0 0.21875,-0.15625 C 2.640625,-3 2.5625,-3 2.4375,-3 l -0.65625,0 0.25,-1.03125 C 2.046875,-4.0625 2.0625,-4.109375 2.0625,-4.125 c 0,-0.140625 -0.109375,-0.234375 -0.25,-0.234375 -0.171875,0 -0.265625,0.125 -0.328125,0.296875 C 1.4375,-3.875 1.53125,-4.21875 1.21875,-3 l -0.703125,0 c -0.125,0 -0.21875,0 -0.21875,0.15625 C 0.296875,-2.75 0.375,-2.75 0.5,-2.75 l 0.65625,0 L 0.75,-1.109375 C 0.703125,-0.9375 0.640625,-0.6875 0.640625,-0.59375 c 0,0.40625 0.359375,0.65625 0.75,0.65625 0.78125,0 1.21875,-0.96875 1.21875,-1.0625 0,-0.09375 -0.09375,-0.09375 -0.109375,-0.09375 -0.09375,0 -0.09375,0.015625 -0.15625,0.140625 -0.1875,0.4375 -0.546875,0.828125 -0.921875,0.828125 -0.15625,0 -0.25,-0.09375 -0.25,-0.34375 0,-0.0625 0.03125,-0.21875 0.046875,-0.28125 z m 0,0"
                 style="stroke:none" />
            </symbol>
          </g>
        </defs>
        <g
           id="textext-f3e53785-4">
          <g
             id="g6780"
             style="fill:#000000;fill-opacity:1">
            <use
               height="1052.3622"
               width="744.09448"
               id="use6782"
               y="134.765"
               x="223.43201"
               xlink:href="#textext-f3e53785-0" />
          </g>
          <g
             id="g6784"
             style="fill:#000000;fill-opacity:1">
            <use
               height="1052.3622"
               width="744.09448"
               id="use6786"
               y="136.259"
               x="229.479"
               xlink:href="#textext-f3e53785-1" />
          </g>
          <g
             id="g6788"
             style="fill:#000000;fill-opacity:1">
            <use
               height="1052.3622"
               width="744.09448"
               id="use6790"
               y="136.259"
               x="233.45"
               xlink:href="#textext-f3e53785-2" />
            <use
               height="1052.3622"
               width="744.09448"
               id="use6792"
               y="136.259"
               x="235.81621"
               xlink:href="#textext-f3e53785-3" />
          </g>
        </g>
      </g>
      <path
         transform="matrix(0.99341083,0.1146076,-0.1146076,0.99341083,-113.19907,24.81903)"
         inkscape:connector-curvature="0"
         id="path3782-8-9-7-8"
         d="m 239.52902,472.62 83.90212,-34.57938 78.84535,-34.06837"
         style="fill:none;stroke:#000000;stroke-width:2;stroke-linecap:butt;stroke-linejoin:miter;stroke-miterlimit:4;stroke-opacity:1;stroke-dasharray:4, 4;stroke-dashoffset:0;marker-start:none;marker-mid:url(#marker3138-4-6);marker-end:none"
         clip-path="url(#clipPath6076-4-2-2)"
         sodipodi:nodetypes="ccc" />
    </g>
    <g
       transform="translate(0,-20)"
       id="g3227">
      <path
         sodipodi:nodetypes="ccc"
         inkscape:connector-curvature="0"
         id="path3782"
         d="M 70,312.36218 154.97772,392.34121 240,472.36218"
         style="fill:none;stroke:#000000;stroke-width:2;stroke-linecap:butt;stroke-linejoin:miter;stroke-miterlimit:2.29999995;stroke-opacity:1;stroke-dasharray:none;marker-start:none;marker-mid:url(#marker3138);marker-end:none"
         clip-path="url(#clipPath6092)" />
      <path
         transform="translate(0,4e-6)"
         inkscape:connector-curvature="0"
         id="path3782-8-9"
         d="M 239.52902,472.62 323.43114,438.04062 410,402.36218"
         style="fill:none;stroke:#000000;stroke-width:2;stroke-linecap:butt;stroke-linejoin:miter;stroke-miterlimit:4;stroke-opacity:1;stroke-dasharray:4, 4;stroke-dashoffset:0;marker-start:none;marker-mid:url(#marker3138-4-6);marker-end:none"
         clip-path="url(#clipPath6076-4)"
         sodipodi:nodetypes="ccc" />
      <g
         ns0:text="$\\mathbf{k}_{0,i}$"
         ns0:preamble="/home/andrerei/.config/inkscape/extensions/preamble.inc"
         transform="matrix(1.8992193,0,0,1.8992193,-272.20145,118.72501)"
         id="g4910">
        <defs
           id="defs4912">
          <g
             id="g4914">
            <symbol
               style="overflow:visible"
               overflow="visible"
               id="textext-72cd9328-0">
              <path
                 inkscape:connector-curvature="0"
                 style="stroke:none"
                 d="m 2.140625,-2.359375 0,-4.5625 -1.765625,0.078125 0,0.46875 c 0.609375,0 0.6875,0 0.6875,0.390625 l 0,5.515625 -0.6875,0 0,0.46875 c 0.359375,-0.015625 0.828125,-0.03125 1.1875,-0.03125 0.375,0 0.84375,0.015625 1.203125,0.03125 l 0,-0.46875 -0.6875,0 0,-1.265625 C 2.375,-1.96875 2.453125,-2.03125 2.65625,-2.15625 l 1,1.25 c 0.09375,0.125 0.25,0.3125 0.25,0.34375 0,0.09375 -0.171875,0.09375 -0.3125,0.09375 l 0,0.46875 c 0.296875,-0.015625 1.171875,-0.03125 1.21875,-0.03125 0.359375,0 0.703125,0.015625 1.046875,0.03125 l 0,-0.46875 -0.171875,0 c -0.4375,0 -0.46875,-0.046875 -0.59375,-0.203125 L 3.40625,-2.765625 4.703125,-3.78125 C 4.84375,-3.890625 4.9375,-3.953125 5.609375,-3.953125 l 0,-0.46875 c -0.28125,0.03125 -0.53125,0.03125 -0.78125,0.03125 -0.265625,0 -0.921875,-0.03125 -1.15625,-0.03125 l 0,0.46875 c 0.234375,0 0.265625,0.03125 0.34375,0.109375 z m 0,0"
                 id="path4917" />
            </symbol>
            <symbol
               style="overflow:visible"
               overflow="visible"
               id="textext-72cd9328-1">
              <path
                 inkscape:connector-curvature="0"
                 style="stroke:none"
                 d="M 3.59375,-2.21875 C 3.59375,-2.984375 3.5,-3.546875 3.1875,-4.03125 2.96875,-4.34375 2.53125,-4.625 1.984375,-4.625 c -1.625,0 -1.625,1.90625 -1.625,2.40625 0,0.5 0,2.359375 1.625,2.359375 1.609375,0 1.609375,-1.859375 1.609375,-2.359375 z M 1.984375,-0.0625 c -0.328125,0 -0.75,-0.1875 -0.890625,-0.75 C 1,-1.21875 1,-1.796875 1,-2.3125 1,-2.828125 1,-3.359375 1.09375,-3.734375 1.25,-4.28125 1.6875,-4.4375 1.984375,-4.4375 c 0.375,0 0.734375,0.234375 0.859375,0.640625 0.109375,0.375 0.125,0.875 0.125,1.484375 0,0.515625 0,1.03125 -0.09375,1.46875 -0.140625,0.640625 -0.609375,0.78125 -0.890625,0.78125 z m 0,0"
                 id="path4920" />
            </symbol>
            <symbol
               style="overflow:visible"
               overflow="visible"
               id="textext-72cd9328-2">
              <path
                 inkscape:connector-curvature="0"
                 style="stroke:none"
                 d="m 1.46875,-0.109375 c 0,0.375 -0.0625,0.828125 -0.546875,1.265625 C 0.90625,1.1875 0.875,1.21875 0.875,1.25 c 0,0.046875 0.0625,0.09375 0.09375,0.09375 0.109375,0 0.703125,-0.5625 0.703125,-1.390625 0,-0.421875 -0.171875,-0.75 -0.5,-0.75 -0.21875,0 -0.390625,0.171875 -0.390625,0.390625 C 0.78125,-0.1875 0.9375,0 1.1875,0 1.359375,0 1.46875,-0.109375 1.46875,-0.109375 z m 0,0"
                 id="path4923" />
            </symbol>
            <symbol
               style="overflow:visible"
               overflow="visible"
               id="textext-72cd9328-3">
              <path
                 inkscape:connector-curvature="0"
                 style="stroke:none"
                 d="m 2.265625,-4.359375 c 0,-0.109375 -0.09375,-0.265625 -0.28125,-0.265625 -0.1875,0 -0.390625,0.1875 -0.390625,0.390625 0,0.109375 0.078125,0.265625 0.28125,0.265625 0.1875,0 0.390625,-0.203125 0.390625,-0.390625 z M 0.84375,-0.8125 c -0.03125,0.09375 -0.0625,0.171875 -0.0625,0.296875 0,0.328125 0.265625,0.578125 0.65625,0.578125 0.6875,0 1,-0.953125 1,-1.0625 0,-0.09375 -0.09375,-0.09375 -0.109375,-0.09375 -0.09375,0 -0.109375,0.046875 -0.140625,0.125 -0.15625,0.5625 -0.453125,0.84375 -0.734375,0.84375 -0.140625,0 -0.171875,-0.09375 -0.171875,-0.25 0,-0.15625 0.046875,-0.28125 0.109375,-0.4375 C 1.46875,-1 1.546875,-1.1875 1.609375,-1.375 1.671875,-1.546875 1.9375,-2.171875 1.953125,-2.265625 1.984375,-2.328125 2,-2.40625 2,-2.484375 2,-2.8125 1.71875,-3.078125 1.34375,-3.078125 0.640625,-3.078125 0.328125,-2.125 0.328125,-2 c 0,0.078125 0.09375,0.078125 0.125,0.078125 0.09375,0 0.09375,-0.03125 0.125,-0.109375 C 0.75,-2.625 1.0625,-2.875 1.3125,-2.875 c 0.109375,0 0.171875,0.046875 0.171875,0.234375 0,0.171875 -0.03125,0.265625 -0.203125,0.703125 z m 0,0"
                 id="path4926" />
            </symbol>
          </g>
        </defs>
        <g
           id="textext-72cd9328-4">
          <g
             style="fill:#000000;fill-opacity:1"
             id="g4929">
            <use
               height="1052.3622"
               width="744.09448"
               xlink:href="#textext-72cd9328-0"
               x="223.43201"
               y="134.765"
               id="use4931" />
          </g>
          <g
             style="fill:#000000;fill-opacity:1"
             id="g4933">
            <use
               height="1052.3622"
               width="744.09448"
               xlink:href="#textext-72cd9328-1"
               x="229.479"
               y="136.259"
               id="use4935" />
          </g>
          <g
             style="fill:#000000;fill-opacity:1"
             id="g4937">
            <use
               height="1052.3622"
               width="744.09448"
               xlink:href="#textext-72cd9328-2"
               x="233.45"
               y="136.259"
               id="use4939" />
            <use
               height="1052.3622"
               width="744.09448"
               xlink:href="#textext-72cd9328-3"
               x="235.81621"
               y="136.259"
               id="use4941" />
          </g>
        </g>
      </g>
      <g
         id="g5279"
         transform="matrix(1.8992193,0,0,1.8992193,-119.49509,118.5711)"
         ns0:preamble="/home/andrerei/.config/inkscape/extensions/preamble.inc"
         ns0:text="$\\mathbf{k}_{0,r}$">
        <defs
           id="defs5281">
          <g
             id="g5283">
            <symbol
               style="overflow:visible"
               id="textext-da6227a8-0"
               overflow="visible">
              <path
                 inkscape:connector-curvature="0"
                 id="path5286"
                 d="m 2.140625,-2.359375 0,-4.5625 -1.765625,0.078125 0,0.46875 c 0.609375,0 0.6875,0 0.6875,0.390625 l 0,5.515625 -0.6875,0 0,0.46875 c 0.359375,-0.015625 0.828125,-0.03125 1.1875,-0.03125 0.375,0 0.84375,0.015625 1.203125,0.03125 l 0,-0.46875 -0.6875,0 0,-1.265625 C 2.375,-1.96875 2.453125,-2.03125 2.65625,-2.15625 l 1,1.25 c 0.09375,0.125 0.25,0.3125 0.25,0.34375 0,0.09375 -0.171875,0.09375 -0.3125,0.09375 l 0,0.46875 c 0.296875,-0.015625 1.171875,-0.03125 1.21875,-0.03125 0.359375,0 0.703125,0.015625 1.046875,0.03125 l 0,-0.46875 -0.171875,0 c -0.4375,0 -0.46875,-0.046875 -0.59375,-0.203125 L 3.40625,-2.765625 4.703125,-3.78125 C 4.84375,-3.890625 4.9375,-3.953125 5.609375,-3.953125 l 0,-0.46875 c -0.28125,0.03125 -0.53125,0.03125 -0.78125,0.03125 -0.265625,0 -0.921875,-0.03125 -1.15625,-0.03125 l 0,0.46875 c 0.234375,0 0.265625,0.03125 0.34375,0.109375 z m 0,0"
                 style="stroke:none" />
            </symbol>
            <symbol
               style="overflow:visible"
               id="textext-da6227a8-1"
               overflow="visible">
              <path
                 inkscape:connector-curvature="0"
                 id="path5289"
                 d="M 3.59375,-2.21875 C 3.59375,-2.984375 3.5,-3.546875 3.1875,-4.03125 2.96875,-4.34375 2.53125,-4.625 1.984375,-4.625 c -1.625,0 -1.625,1.90625 -1.625,2.40625 0,0.5 0,2.359375 1.625,2.359375 1.609375,0 1.609375,-1.859375 1.609375,-2.359375 z M 1.984375,-0.0625 c -0.328125,0 -0.75,-0.1875 -0.890625,-0.75 C 1,-1.21875 1,-1.796875 1,-2.3125 1,-2.828125 1,-3.359375 1.09375,-3.734375 1.25,-4.28125 1.6875,-4.4375 1.984375,-4.4375 c 0.375,0 0.734375,0.234375 0.859375,0.640625 0.109375,0.375 0.125,0.875 0.125,1.484375 0,0.515625 0,1.03125 -0.09375,1.46875 -0.140625,0.640625 -0.609375,0.78125 -0.890625,0.78125 z m 0,0"
                 style="stroke:none" />
            </symbol>
            <symbol
               style="overflow:visible"
               id="textext-da6227a8-2"
               overflow="visible">
              <path
                 inkscape:connector-curvature="0"
                 id="path5292"
                 d="m 1.46875,-0.109375 c 0,0.375 -0.0625,0.828125 -0.546875,1.265625 C 0.90625,1.1875 0.875,1.21875 0.875,1.25 c 0,0.046875 0.0625,0.09375 0.09375,0.09375 0.109375,0 0.703125,-0.5625 0.703125,-1.390625 0,-0.421875 -0.171875,-0.75 -0.5,-0.75 -0.21875,0 -0.390625,0.171875 -0.390625,0.390625 C 0.78125,-0.1875 0.9375,0 1.1875,0 1.359375,0 1.46875,-0.109375 1.46875,-0.109375 z m 0,0"
                 style="stroke:none" />
            </symbol>
            <symbol
               style="overflow:visible"
               id="textext-da6227a8-3"
               overflow="visible">
              <path
                 inkscape:connector-curvature="0"
                 id="path5295"
                 d="m 1.640625,-1.40625 c 0,-0.046875 0.171875,-0.671875 0.171875,-0.703125 0.015625,-0.0625 0.21875,-0.40625 0.453125,-0.578125 0.0625,-0.046875 0.25,-0.1875 0.5625,-0.1875 0.0625,0 0.234375,0 0.375,0.09375 -0.21875,0.0625 -0.296875,0.265625 -0.296875,0.390625 0,0.140625 0.109375,0.25 0.265625,0.25 0.171875,0 0.390625,-0.125 0.390625,-0.421875 0,-0.359375 -0.375,-0.515625 -0.734375,-0.515625 -0.359375,0 -0.671875,0.15625 -0.984375,0.5 -0.125,-0.421875 -0.546875,-0.5 -0.71875,-0.5 -0.25,0 -0.421875,0.171875 -0.546875,0.359375 -0.15625,0.265625 -0.25,0.671875 -0.25,0.71875 0,0.078125 0.09375,0.078125 0.125,0.078125 0.09375,0 0.09375,-0.015625 0.140625,-0.203125 0.109375,-0.421875 0.25,-0.75 0.515625,-0.75 0.1875,0 0.234375,0.15625 0.234375,0.34375 0,0.125 -0.0625,0.390625 -0.125,0.578125 -0.046875,0.1875 -0.109375,0.46875 -0.140625,0.625 L 0.84375,-0.4375 C 0.828125,-0.34375 0.78125,-0.171875 0.78125,-0.15625 0.78125,0 0.90625,0.0625 1.015625,0.0625 1.125,0.0625 1.265625,0 1.3125,-0.125 1.328125,-0.171875 1.40625,-0.484375 1.453125,-0.65625 z m 0,0"
                 style="stroke:none" />
            </symbol>
          </g>
        </defs>
        <g
           id="textext-da6227a8-4">
          <g
             id="g5298"
             style="fill:#000000;fill-opacity:1">
            <use
               height="1052.3622"
               width="744.09448"
               id="use5300"
               y="134.765"
               x="223.43201"
               xlink:href="#textext-da6227a8-0" />
          </g>
          <g
             id="g5302"
             style="fill:#000000;fill-opacity:1">
            <use
               height="1052.3622"
               width="744.09448"
               id="use5304"
               y="136.259"
               x="229.479"
               xlink:href="#textext-da6227a8-1" />
          </g>
          <g
             id="g5306"
             style="fill:#000000;fill-opacity:1">
            <use
               height="1052.3622"
               width="744.09448"
               id="use5308"
               y="136.259"
               x="233.45"
               xlink:href="#textext-da6227a8-2" />
            <use
               height="1052.3622"
               width="744.09448"
               id="use5310"
               y="136.259"
               x="235.81621"
               xlink:href="#textext-da6227a8-3" />
          </g>
        </g>
      </g>
      <path
         sodipodi:nodetypes="ccc"
         inkscape:connector-curvature="0"
         id="path3782-3"
         d="M 70,312.36218 154.97772,392.34121 240,472.36218"
         style="fill:none;stroke:#000000;stroke-width:2;stroke-linecap:butt;stroke-linejoin:miter;stroke-miterlimit:2.29999995;stroke-opacity:1;stroke-dasharray:none;marker-start:none;marker-mid:url(#marker3138);marker-end:none"
         clip-path="url(#clipPath6092-7)"
         transform="matrix(0.05545082,-0.99846142,0.99846142,0.05545082,-74.94361,524.37148)" />
      <path
         transform="matrix(0.70710678,0.70710678,-0.70710678,0.70710678,235.42399,-101.63392)"
         inkscape:connector-curvature="0"
         id="path3782-8-9-7"
         d="M 239.52902,472.62 323.43114,438.04062 410,402.36218"
         style="fill:none;stroke:#000000;stroke-width:2;stroke-linecap:butt;stroke-linejoin:miter;stroke-miterlimit:4;stroke-opacity:1;stroke-dasharray:4, 4;stroke-dashoffset:0;marker-start:none;marker-mid:url(#marker3138-4-6);marker-end:none"
         clip-path="url(#clipPath6076-4-2)"
         sodipodi:nodetypes="ccc" />
      <g
         id="g3366"
         transform="matrix(1.8992193,0,0,1.8992193,-99.49509,164.5711)"
         ns0:preamble="/home/andrerei/.config/inkscape/extensions/preamble.inc"
         ns0:text="$\\mathbf{k}_{1,i}$">
        <defs
           id="defs3368">
          <g
             id="g3370">
            <symbol
               style="overflow:visible"
               id="symbol3372"
               overflow="visible">
              <path
                 inkscape:connector-curvature="0"
                 id="path3374"
                 d="m 2.140625,-2.359375 0,-4.5625 -1.765625,0.078125 0,0.46875 c 0.609375,0 0.6875,0 0.6875,0.390625 l 0,5.515625 -0.6875,0 0,0.46875 c 0.359375,-0.015625 0.828125,-0.03125 1.1875,-0.03125 0.375,0 0.84375,0.015625 1.203125,0.03125 l 0,-0.46875 -0.6875,0 0,-1.265625 C 2.375,-1.96875 2.453125,-2.03125 2.65625,-2.15625 l 1,1.25 c 0.09375,0.125 0.25,0.3125 0.25,0.34375 0,0.09375 -0.171875,0.09375 -0.3125,0.09375 l 0,0.46875 c 0.296875,-0.015625 1.171875,-0.03125 1.21875,-0.03125 0.359375,0 0.703125,0.015625 1.046875,0.03125 l 0,-0.46875 -0.171875,0 c -0.4375,0 -0.46875,-0.046875 -0.59375,-0.203125 L 3.40625,-2.765625 4.703125,-3.78125 C 4.84375,-3.890625 4.9375,-3.953125 5.609375,-3.953125 l 0,-0.46875 c -0.28125,0.03125 -0.53125,0.03125 -0.78125,0.03125 -0.265625,0 -0.921875,-0.03125 -1.15625,-0.03125 l 0,0.46875 c 0.234375,0 0.265625,0.03125 0.34375,0.109375 z m 0,0"
                 style="stroke:none" />
            </symbol>
            <symbol
               style="overflow:visible"
               id="symbol3376"
               overflow="visible">
              <path
                 inkscape:connector-curvature="0"
                 id="path3378"
                 d="m 2.328125,-4.4375 c 0,-0.1875 0,-0.1875 -0.203125,-0.1875 -0.453125,0.4375 -1.078125,0.4375 -1.359375,0.4375 l 0,0.25 c 0.15625,0 0.625,0 1,-0.1875 l 0,3.546875 c 0,0.234375 0,0.328125 -0.6875,0.328125 l -0.265625,0 0,0.25 c 0.125,0 0.984375,-0.03125 1.234375,-0.03125 0.21875,0 1.09375,0.03125 1.25,0.03125 l 0,-0.25 -0.265625,0 c -0.703125,0 -0.703125,-0.09375 -0.703125,-0.328125 z m 0,0"
                 style="stroke:none" />
            </symbol>
            <symbol
               style="overflow:visible"
               id="symbol3380"
               overflow="visible">
              <path
                 inkscape:connector-curvature="0"
                 id="path3382"
                 d="m 1.46875,-0.109375 c 0,0.375 -0.0625,0.828125 -0.546875,1.265625 C 0.90625,1.1875 0.875,1.21875 0.875,1.25 c 0,0.046875 0.0625,0.09375 0.09375,0.09375 0.109375,0 0.703125,-0.5625 0.703125,-1.390625 0,-0.421875 -0.171875,-0.75 -0.5,-0.75 -0.21875,0 -0.390625,0.171875 -0.390625,0.390625 C 0.78125,-0.1875 0.9375,0 1.1875,0 1.359375,0 1.46875,-0.109375 1.46875,-0.109375 z m 0,0"
                 style="stroke:none" />
            </symbol>
            <symbol
               style="overflow:visible"
               id="symbol3384"
               overflow="visible">
              <path
                 inkscape:connector-curvature="0"
                 id="path3386"
                 d="m 2.265625,-4.359375 c 0,-0.109375 -0.09375,-0.265625 -0.28125,-0.265625 -0.1875,0 -0.390625,0.1875 -0.390625,0.390625 0,0.109375 0.078125,0.265625 0.28125,0.265625 0.1875,0 0.390625,-0.203125 0.390625,-0.390625 z M 0.84375,-0.8125 c -0.03125,0.09375 -0.0625,0.171875 -0.0625,0.296875 0,0.328125 0.265625,0.578125 0.65625,0.578125 0.6875,0 1,-0.953125 1,-1.0625 0,-0.09375 -0.09375,-0.09375 -0.109375,-0.09375 -0.09375,0 -0.109375,0.046875 -0.140625,0.125 -0.15625,0.5625 -0.453125,0.84375 -0.734375,0.84375 -0.140625,0 -0.171875,-0.09375 -0.171875,-0.25 0,-0.15625 0.046875,-0.28125 0.109375,-0.4375 C 1.46875,-1 1.546875,-1.1875 1.609375,-1.375 1.671875,-1.546875 1.9375,-2.171875 1.953125,-2.265625 1.984375,-2.328125 2,-2.40625 2,-2.484375 2,-2.8125 1.71875,-3.078125 1.34375,-3.078125 0.640625,-3.078125 0.328125,-2.125 0.328125,-2 c 0,0.078125 0.09375,0.078125 0.125,0.078125 0.09375,0 0.09375,-0.03125 0.125,-0.109375 C 0.75,-2.625 1.0625,-2.875 1.3125,-2.875 c 0.109375,0 0.171875,0.046875 0.171875,0.234375 0,0.171875 -0.03125,0.265625 -0.203125,0.703125 z m 0,0"
                 style="stroke:none" />
            </symbol>
          </g>
        </defs>
        <g
           id="g3388">
          <g
             id="g3390"
             style="fill:#000000;fill-opacity:1">
            <g
               id="use3392"
               transform="translate(223.43201,134.765)">
              <path
                 style="stroke:none"
                 d="m 2.140625,-2.359375 0,-4.5625 -1.765625,0.078125 0,0.46875 c 0.609375,0 0.6875,0 0.6875,0.390625 l 0,5.515625 -0.6875,0 0,0.46875 c 0.359375,-0.015625 0.828125,-0.03125 1.1875,-0.03125 0.375,0 0.84375,0.015625 1.203125,0.03125 l 0,-0.46875 -0.6875,0 0,-1.265625 C 2.375,-1.96875 2.453125,-2.03125 2.65625,-2.15625 l 1,1.25 c 0.09375,0.125 0.25,0.3125 0.25,0.34375 0,0.09375 -0.171875,0.09375 -0.3125,0.09375 l 0,0.46875 c 0.296875,-0.015625 1.171875,-0.03125 1.21875,-0.03125 0.359375,0 0.703125,0.015625 1.046875,0.03125 l 0,-0.46875 -0.171875,0 c -0.4375,0 -0.46875,-0.046875 -0.59375,-0.203125 L 3.40625,-2.765625 4.703125,-3.78125 C 4.84375,-3.890625 4.9375,-3.953125 5.609375,-3.953125 l 0,-0.46875 c -0.28125,0.03125 -0.53125,0.03125 -0.78125,0.03125 -0.265625,0 -0.921875,-0.03125 -1.15625,-0.03125 l 0,0.46875 c 0.234375,0 0.265625,0.03125 0.34375,0.109375 z m 0,0"
                 id="path4559"
                 inkscape:connector-curvature="0" />
            </g>
          </g>
          <g
             id="g3394"
             style="fill:#000000;fill-opacity:1">
            <g
               id="use3396"
               transform="translate(229.479,136.259)">
              <path
                 style="stroke:none"
                 d="m 2.328125,-4.4375 c 0,-0.1875 0,-0.1875 -0.203125,-0.1875 -0.453125,0.4375 -1.078125,0.4375 -1.359375,0.4375 l 0,0.25 c 0.15625,0 0.625,0 1,-0.1875 l 0,3.546875 c 0,0.234375 0,0.328125 -0.6875,0.328125 l -0.265625,0 0,0.25 c 0.125,0 0.984375,-0.03125 1.234375,-0.03125 0.21875,0 1.09375,0.03125 1.25,0.03125 l 0,-0.25 -0.265625,0 c -0.703125,0 -0.703125,-0.09375 -0.703125,-0.328125 z m 0,0"
                 id="path4567"
                 inkscape:connector-curvature="0" />
            </g>
          </g>
          <g
             id="g3398"
             style="fill:#000000;fill-opacity:1">
            <g
               id="use3400"
               transform="translate(233.45,136.259)">
              <path
                 style="stroke:none"
                 d="m 1.46875,-0.109375 c 0,0.375 -0.0625,0.828125 -0.546875,1.265625 C 0.90625,1.1875 0.875,1.21875 0.875,1.25 c 0,0.046875 0.0625,0.09375 0.09375,0.09375 0.109375,0 0.703125,-0.5625 0.703125,-1.390625 0,-0.421875 -0.171875,-0.75 -0.5,-0.75 -0.21875,0 -0.390625,0.171875 -0.390625,0.390625 C 0.78125,-0.1875 0.9375,0 1.1875,0 1.359375,0 1.46875,-0.109375 1.46875,-0.109375 z m 0,0"
                 id="path4575"
                 inkscape:connector-curvature="0" />
            </g>
            <g
               id="use3402"
               transform="translate(235.81621,136.259)">
              <path
                 style="stroke:none"
                 d="m 2.265625,-4.359375 c 0,-0.109375 -0.09375,-0.265625 -0.28125,-0.265625 -0.1875,0 -0.390625,0.1875 -0.390625,0.390625 0,0.109375 0.078125,0.265625 0.28125,0.265625 0.1875,0 0.390625,-0.203125 0.390625,-0.390625 z M 0.84375,-0.8125 c -0.03125,0.09375 -0.0625,0.171875 -0.0625,0.296875 0,0.328125 0.265625,0.578125 0.65625,0.578125 0.6875,0 1,-0.953125 1,-1.0625 0,-0.09375 -0.09375,-0.09375 -0.109375,-0.09375 -0.09375,0 -0.109375,0.046875 -0.140625,0.125 -0.15625,0.5625 -0.453125,0.84375 -0.734375,0.84375 -0.140625,0 -0.171875,-0.09375 -0.171875,-0.25 0,-0.15625 0.046875,-0.28125 0.109375,-0.4375 C 1.46875,-1 1.546875,-1.1875 1.609375,-1.375 1.671875,-1.546875 1.9375,-2.171875 1.953125,-2.265625 1.984375,-2.328125 2,-2.40625 2,-2.484375 2,-2.8125 1.71875,-3.078125 1.34375,-3.078125 0.640625,-3.078125 0.328125,-2.125 0.328125,-2 c 0,0.078125 0.09375,0.078125 0.125,0.078125 0.09375,0 0.09375,-0.03125 0.125,-0.109375 C 0.75,-2.625 1.0625,-2.875 1.3125,-2.875 c 0.109375,0 0.171875,0.046875 0.171875,0.234375 0,0.171875 -0.03125,0.265625 -0.203125,0.703125 z m 0,0"
                 id="path4583"
                 inkscape:connector-curvature="0" />
            </g>
          </g>
        </g>
      </g>
      <g
         ns0:text="$\\mathbf{k}_{1,r}$"
         ns0:preamble="/home/andrerei/.config/inkscape/extensions/preamble.inc"
         transform="matrix(1.8992193,0,0,1.8992193,-298.63006,164.72501)"
         id="g3791">
        <defs
           id="defs3793">
          <g
             id="g3795">
            <symbol
               overflow="visible"
               id="textext-731008d0-0"
               style="overflow:visible">
              <path
                 style="stroke:none"
                 d="m 2.140625,-2.359375 0,-4.5625 -1.765625,0.078125 0,0.46875 c 0.609375,0 0.6875,0 0.6875,0.390625 l 0,5.515625 -0.6875,0 0,0.46875 c 0.359375,-0.015625 0.828125,-0.03125 1.1875,-0.03125 0.375,0 0.84375,0.015625 1.203125,0.03125 l 0,-0.46875 -0.6875,0 0,-1.265625 C 2.375,-1.96875 2.453125,-2.03125 2.65625,-2.15625 l 1,1.25 c 0.09375,0.125 0.25,0.3125 0.25,0.34375 0,0.09375 -0.171875,0.09375 -0.3125,0.09375 l 0,0.46875 c 0.296875,-0.015625 1.171875,-0.03125 1.21875,-0.03125 0.359375,0 0.703125,0.015625 1.046875,0.03125 l 0,-0.46875 -0.171875,0 c -0.4375,0 -0.46875,-0.046875 -0.59375,-0.203125 L 3.40625,-2.765625 4.703125,-3.78125 C 4.84375,-3.890625 4.9375,-3.953125 5.609375,-3.953125 l 0,-0.46875 c -0.28125,0.03125 -0.53125,0.03125 -0.78125,0.03125 -0.265625,0 -0.921875,-0.03125 -1.15625,-0.03125 l 0,0.46875 c 0.234375,0 0.265625,0.03125 0.34375,0.109375 z m 0,0"
                 id="path3798"
                 inkscape:connector-curvature="0" />
            </symbol>
            <symbol
               overflow="visible"
               id="textext-731008d0-1"
               style="overflow:visible">
              <path
                 style="stroke:none"
                 d="m 2.328125,-4.4375 c 0,-0.1875 0,-0.1875 -0.203125,-0.1875 -0.453125,0.4375 -1.078125,0.4375 -1.359375,0.4375 l 0,0.25 c 0.15625,0 0.625,0 1,-0.1875 l 0,3.546875 c 0,0.234375 0,0.328125 -0.6875,0.328125 l -0.265625,0 0,0.25 c 0.125,0 0.984375,-0.03125 1.234375,-0.03125 0.21875,0 1.09375,0.03125 1.25,0.03125 l 0,-0.25 -0.265625,0 c -0.703125,0 -0.703125,-0.09375 -0.703125,-0.328125 z m 0,0"
                 id="path3801"
                 inkscape:connector-curvature="0" />
            </symbol>
            <symbol
               overflow="visible"
               id="textext-731008d0-2"
               style="overflow:visible">
              <path
                 style="stroke:none"
                 d="m 1.46875,-0.109375 c 0,0.375 -0.0625,0.828125 -0.546875,1.265625 C 0.90625,1.1875 0.875,1.21875 0.875,1.25 c 0,0.046875 0.0625,0.09375 0.09375,0.09375 0.109375,0 0.703125,-0.5625 0.703125,-1.390625 0,-0.421875 -0.171875,-0.75 -0.5,-0.75 -0.21875,0 -0.390625,0.171875 -0.390625,0.390625 C 0.78125,-0.1875 0.9375,0 1.1875,0 1.359375,0 1.46875,-0.109375 1.46875,-0.109375 z m 0,0"
                 id="path3805"
                 inkscape:connector-curvature="0" />
            </symbol>
            <symbol
               overflow="visible"
               id="textext-731008d0-3"
               style="overflow:visible">
              <path
                 style="stroke:none"
                 d="m 1.640625,-1.40625 c 0,-0.046875 0.171875,-0.671875 0.171875,-0.703125 0.015625,-0.0625 0.21875,-0.40625 0.453125,-0.578125 0.0625,-0.046875 0.25,-0.1875 0.5625,-0.1875 0.0625,0 0.234375,0 0.375,0.09375 -0.21875,0.0625 -0.296875,0.265625 -0.296875,0.390625 0,0.140625 0.109375,0.25 0.265625,0.25 0.171875,0 0.390625,-0.125 0.390625,-0.421875 0,-0.359375 -0.375,-0.515625 -0.734375,-0.515625 -0.359375,0 -0.671875,0.15625 -0.984375,0.5 -0.125,-0.421875 -0.546875,-0.5 -0.71875,-0.5 -0.25,0 -0.421875,0.171875 -0.546875,0.359375 -0.15625,0.265625 -0.25,0.671875 -0.25,0.71875 0,0.078125 0.09375,0.078125 0.125,0.078125 0.09375,0 0.09375,-0.015625 0.140625,-0.203125 0.109375,-0.421875 0.25,-0.75 0.515625,-0.75 0.1875,0 0.234375,0.15625 0.234375,0.34375 0,0.125 -0.0625,0.390625 -0.125,0.578125 -0.046875,0.1875 -0.109375,0.46875 -0.140625,0.625 L 0.84375,-0.4375 C 0.828125,-0.34375 0.78125,-0.171875 0.78125,-0.15625 0.78125,0 0.90625,0.0625 1.015625,0.0625 1.125,0.0625 1.265625,0 1.3125,-0.125 1.328125,-0.171875 1.40625,-0.484375 1.453125,-0.65625 z m 0,0"
                 id="path3808"
                 inkscape:connector-curvature="0" />
            </symbol>
          </g>
        </defs>
        <g
           id="textext-731008d0-4">
          <g
             style="fill:#000000;fill-opacity:1"
             id="g3811">
            <use
               xlink:href="#textext-731008d0-0"
               x="223.43201"
               y="134.765"
               id="use3813"
               width="744.09448"
               height="1052.3622" />
          </g>
          <g
             style="fill:#000000;fill-opacity:1"
             id="g3815">
            <use
               xlink:href="#textext-731008d0-1"
               x="229.479"
               y="136.259"
               id="use3817"
               width="744.09448"
               height="1052.3622" />
          </g>
          <g
             style="fill:#000000;fill-opacity:1"
             id="g3819">
            <use
               xlink:href="#textext-731008d0-2"
               x="233.45"
               y="136.259"
               id="use3821"
               width="744.09448"
               height="1052.3622" />
            <use
               xlink:href="#textext-731008d0-3"
               x="235.81621"
               y="136.259"
               id="use3823"
               width="744.09448"
               height="1052.3622" />
          </g>
        </g>
      </g>
    </g>
    <path
       inkscape:connector-curvature="0"
       id="path5694"
       d="m 50,452.36218 10,10 20,10 10,10 30,10 30,-30 20,-10 20,10 10,-10 20,20 20,10 20,0 10,10 10,-30 20,0 10,-10 20,20 30,20 20,-10 30,0 10,-20 10,-10"
       style="fill:none;stroke:#000000;stroke-width:1px;stroke-linecap:butt;stroke-linejoin:miter;stroke-opacity:1" />
    <g
       style="fill:#007aff;fill-opacity:0.27615061;opacity:1"
       id="g5712">
      <path
         style="opacity:0.54651165999999995;fill:#007aff;fill-opacity:0.27615061;stroke:none;stroke-width:1.42857145999999990;stroke-miterlimit:2.29999995000000013;stroke-opacity:1;stroke-dasharray:none;stroke-dashoffset:0"
         d="m 49.932699,454.20059 c 0.2772,5.65494 -0.545652,11.76554 0.401785,17.14286 8.309682,-0.15862 16.742131,0.18487 24.977679,-0.24553 -5.391276,-4.06538 -13.055698,-6.13846 -18.301721,-11.05491 -2.392681,-1.54536 -4.541185,-5.59592 -7.077743,-5.84242 z"
         id="path5698"
         inkscape:connector-curvature="0" />
      <path
         style="opacity:0.54651165999999995;fill:#007aff;fill-opacity:0.27615061;stroke:none"
         d="m 82.566627,474.08899 c 4.239128,5.07837 9.472927,9.11335 16.009911,10.63515 6.860582,2.13791 13.740612,5.08215 20.686522,6.48538 6.67018,-4.94487 12.12495,-11.37994 18.125,-17.12053 -3.17893,-1.68239 -8.47443,-0.18202 -12.43304,-0.69197 -14.03274,0 -28.065476,0 -42.098214,0 l -0.276234,0.65871 -0.01395,0.0333 z"
         id="path5700"
         inkscape:connector-curvature="0" />
      <path
         style="opacity:0.54651165999999995;fill:#007aff;fill-opacity:0.27615061;stroke:none"
         d="m 160.15591,457.7497 c -6.71095,3.0384 -12.81416,7.22164 -17.56696,12.90179 3.17892,1.68238 8.47442,0.18201 12.43303,0.69196 20.69197,0 41.38393,0 62.0759,0 -1.03239,-3.42496 -5.83694,-6.11073 -8.25893,-9.26339 -3.24716,-2.25982 -6.10951,-8.1605 -9.63571,-8.06752 -2.98573,2.97219 -5.97178,5.94407 -8.95804,8.91573 -6.83338,-3.29084 -13.56863,-7.00504 -20.46875,-10.02232 -3.20685,1.61458 -6.41369,3.22917 -9.62054,4.84375 z"
         id="path5702"
         inkscape:connector-curvature="0" />
      <path
         style="opacity:0.54651165999999995;fill:#007aff;fill-opacity:0.27615061;stroke:none"
         d="m 250.11127,473.44167 c -8.47372,0.13028 -17.06977,-0.22781 -25.46875,0.20089 3.64862,2.8341 8.86906,5.06857 13.4375,6.98661 1.59993,0.0761 1.73517,-0.14243 2.70089,0.98214 6.50293,0.96626 13.20497,0.18997 19.77679,0.44643 3.09738,2.4396 5.46683,6.88038 9.30803,7.99107 2.4733,-5.06858 3.80601,-10.77553 5.73661,-16.11607 -5.52644,-1.23859 -12.24883,-0.1594 -18.23658,-0.50397 -2.41816,0.004 -4.83633,0.009 -7.25449,0.0129 z"
         id="path5704"
         inkscape:connector-curvature="0" />
      <path
         style="opacity:0.54651165999999995;fill:#007aff;fill-opacity:0.27615061;stroke:none"
         d="m 305.04431,458.15149 c -2.67256,3.93077 -6.33742,5.44919 -11.00447,4.53125 -4.58176,0.21125 -9.44662,-0.41372 -13.86161,0.29018 -0.11467,2.4697 -2.6447,5.38281 -1.80803,7.63392 11.49525,1.48416 23.30351,0.3813 34.91071,0.73661 4.60566,0 9.21131,0 13.81697,0 -1.03239,-3.42496 -5.83694,-6.11073 -8.25893,-9.26339 -3.24719,-2.25985 -6.10945,-8.16044 -9.63575,-8.06757 -1.3863,1.37967 -2.7726,2.75933 -4.15889,4.139 z"
         id="path5706"
         inkscape:connector-curvature="0" />
      <path
         style="opacity:0.54651165999999995;fill:#007aff;fill-opacity:0.27615061;stroke:none"
         d="m 358.52645,473.44167 c -7.8868,0.14383 -15.93078,-0.10126 -23.72768,0.44642 0.37375,2.49191 5.55882,3.98375 7.58929,6.07143 5.97643,3.71432 11.65947,8.5476 18.03571,11.29465 6.88141,-2.45025 13.18496,-6.74094 19.97768,-9.19643 9.73998,-0.15086 19.65233,0.29932 29.28571,-0.22322 0.59382,-2.82687 7.04026,-9.54509 0.625,-8.4375 -17.26184,0.0236 -34.5241,-0.0508 -51.78571,0.0446 z"
         id="path5708"
         inkscape:connector-curvature="0" />
      <path
         style="opacity:0.54651165999999995;fill:#007aff;fill-opacity:0.27615061;stroke:none"
         d="m 424.97734,458.17381 c -3.63892,3.6096 -6.49713,7.90466 -8.59375,12.58928 3.77072,1.34143 8.93435,0.19015 13.23661,0.58036 0.93562,-5.38221 0.13289,-11.48448 0.40178,-17.14286 -1.76045,-0.63219 -3.49365,3.16677 -5.04464,3.97322 z"
         id="path5710"
         inkscape:connector-curvature="0" />
    </g>
    <g
       id="g4404"
       ns0:preamble="/home/andrerei/.config/inkscape/extensions/preamble.inc"
       ns0:text="$z = 0$"
       transform="matrix(1.7931656,0,0,1.7931656,-42.5532,222.66187)">
      <defs
         id="defs4406">
        <g
           id="g4408">
          <symbol
             id="textext-00af3c60-0"
             overflow="visible"
             style="overflow:visible">
            <path
               id="path4411"
               d="m 1.328125,-0.828125 c 0.53125,-0.578125 0.828125,-0.828125 1.1875,-1.140625 0,0 0.609375,-0.53125 0.96875,-0.890625 C 4.4375,-3.78125 4.65625,-4.265625 4.65625,-4.3125 c 0,-0.09375 -0.09375,-0.09375 -0.109375,-0.09375 -0.078125,0 -0.09375,0.015625 -0.15625,0.109375 -0.296875,0.484375 -0.5,0.640625 -0.734375,0.640625 -0.25,0 -0.359375,-0.15625 -0.515625,-0.328125 -0.1875,-0.21875 -0.359375,-0.421875 -0.6875,-0.421875 -0.75,0 -1.203125,0.921875 -1.203125,1.140625 0,0.046875 0.03125,0.109375 0.109375,0.109375 0.09375,0 0.109375,-0.046875 0.140625,-0.109375 0.1875,-0.46875 0.765625,-0.46875 0.84375,-0.46875 0.203125,0 0.390625,0.0625 0.625,0.140625 0.40625,0.15625 0.515625,0.15625 0.765625,0.15625 -0.359375,0.421875 -1.1875,1.140625 -1.375,1.296875 l -0.90625,0.84375 C 0.78125,-0.625 0.421875,-0.0625 0.421875,0.015625 c 0,0.09375 0.109375,0.09375 0.125,0.09375 0.078125,0 0.09375,-0.015625 0.15625,-0.125 0.234375,-0.359375 0.53125,-0.625 0.859375,-0.625 0.21875,0 0.328125,0.09375 0.578125,0.375 0.15625,0.21875 0.34375,0.375 0.625,0.375 1,0 1.578125,-1.265625 1.578125,-1.53125 0,-0.046875 -0.046875,-0.109375 -0.125,-0.109375 -0.09375,0 -0.109375,0.0625 -0.140625,0.140625 C 3.84375,-0.75 3.203125,-0.5625 2.875,-0.5625 c -0.1875,0 -0.375,-0.0625 -0.578125,-0.125 -0.34375,-0.125 -0.5,-0.171875 -0.703125,-0.171875 -0.015625,0 -0.171875,0 -0.265625,0.03125 z m 0,0"
               style="stroke:none"
               inkscape:connector-curvature="0" />
          </symbol>
          <symbol
             id="textext-00af3c60-1"
             overflow="visible"
             style="overflow:visible">
            <path
               id="path4414"
               d="m 6.84375,-3.265625 c 0.15625,0 0.34375,0 0.34375,-0.1875 C 7.1875,-3.65625 7,-3.65625 6.859375,-3.65625 l -5.96875,0 c -0.140625,0 -0.328125,0 -0.328125,0.203125 0,0.1875 0.1875,0.1875 0.328125,0.1875 z m 0.015625,1.9375 c 0.140625,0 0.328125,0 0.328125,-0.203125 0,-0.1875 -0.1875,-0.1875 -0.34375,-0.1875 l -5.953125,0 c -0.140625,0 -0.328125,0 -0.328125,0.1875 0,0.203125 0.1875,0.203125 0.328125,0.203125 z m 0,0"
               style="stroke:none"
               inkscape:connector-curvature="0" />
          </symbol>
          <symbol
             id="textext-00af3c60-2"
             overflow="visible"
             style="overflow:visible">
            <path
               id="path4417"
               d="m 4.578125,-3.1875 c 0,-0.796875 -0.046875,-1.59375 -0.390625,-2.328125 -0.453125,-0.96875 -1.28125,-1.125 -1.6875,-1.125 -0.609375,0 -1.328125,0.265625 -1.75,1.1875 -0.3125,0.6875 -0.359375,1.46875 -0.359375,2.265625 0,0.75 0.03125,1.640625 0.453125,2.40625 0.421875,0.796875 1.15625,1 1.640625,1 0.53125,0 1.296875,-0.203125 1.734375,-1.15625 0.3125,-0.6875 0.359375,-1.46875 0.359375,-2.25 z M 2.484375,0 C 2.09375,0 1.5,-0.25 1.328125,-1.203125 1.21875,-1.796875 1.21875,-2.71875 1.21875,-3.3125 c 0,-0.640625 0,-1.296875 0.078125,-1.828125 0.1875,-1.1875 0.9375,-1.28125 1.1875,-1.28125 0.328125,0 0.984375,0.1875 1.171875,1.171875 0.109375,0.5625 0.109375,1.3125 0.109375,1.9375 0,0.75 0,1.421875 -0.109375,2.0625 C 3.5,-0.296875 2.9375,0 2.484375,0 z m 0,0"
               style="stroke:none"
               inkscape:connector-curvature="0" />
          </symbol>
        </g>
      </defs>
      <g
         id="textext-00af3c60-3">
        <g
           id="g4420"
           style="fill:#000000;fill-opacity:1">
          <use
             id="use4422"
             y="134.765"
             x="223.43201"
             xlink:href="#textext-00af3c60-0"
             width="744.09448"
             height="1052.3622" />
        </g>
        <g
           id="g4424"
           style="fill:#000000;fill-opacity:1">
          <use
             id="use4426"
             y="134.765"
             x="231.271"
             xlink:href="#textext-00af3c60-1"
             width="744.09448"
             height="1052.3622" />
        </g>
        <g
           id="g4428"
           style="fill:#000000;fill-opacity:1">
          <use
             id="use4430"
             y="134.765"
             x="241.78952"
             xlink:href="#textext-00af3c60-2"
             width="744.09448"
             height="1052.3622" />
        </g>
      </g>
    </g>
    <path
       sodipodi:nodetypes="ccc"
       style="fill:none;stroke:#000000;stroke-width:0.73799998;stroke-linecap:butt;stroke-linejoin:miter;stroke-miterlimit:4;stroke-opacity:1;stroke-dasharray:none;marker-start:url(#Arrow2Mstart);marker-end:none"
       d="m 343.90485,470.76951 c 0,-2.19093 0,-10.53151 0,-10.53151 l 9.39309,0"
       id="path4665"
       inkscape:connector-curvature="0" />
    <path
       sodipodi:nodetypes="ccc"
       inkscape:connector-curvature="0"
       id="path7572"
       d="m 371.68111,509.57139 -5.09617,-0.12182 -6.1484,-15.78505"
       style="fill:none;stroke:#000000;stroke-width:0.69999999;stroke-linecap:butt;stroke-linejoin:miter;stroke-miterlimit:4;stroke-opacity:1;stroke-dasharray:none;marker-end:url(#marker3138-4-6)" />
    <g
       id="g3482"
       transform="matrix(1.7931656,0,0,1.7931656,-27.306819,272.17825)"
       ns0:preamble="/home/andrerei/.config/inkscape/extensions/preamble.inc"
       ns0:text="$z(x,y)$">
      <defs
         id="defs3484">
        <g
           id="g3486">
          <symbol
             id="textext-086c158f-0"
             overflow="visible">
            <path
               id="path3489"
               d="M 1.328125 -0.828125 C 1.859375 -1.40625 2.15625 -1.65625 2.515625 -1.96875 C 2.515625 -1.96875 3.125 -2.5 3.484375 -2.859375 C 4.4375 -3.78125 4.65625 -4.265625 4.65625 -4.3125 C 4.65625 -4.40625 4.5625 -4.40625 4.546875 -4.40625 C 4.46875 -4.40625 4.453125 -4.390625 4.390625 -4.296875 C 4.09375 -3.8125 3.890625 -3.65625 3.65625 -3.65625 C 3.40625 -3.65625 3.296875 -3.8125 3.140625 -3.984375 C 2.953125 -4.203125 2.78125 -4.40625 2.453125 -4.40625 C 1.703125 -4.40625 1.25 -3.484375 1.25 -3.265625 C 1.25 -3.21875 1.28125 -3.15625 1.359375 -3.15625 C 1.453125 -3.15625 1.46875 -3.203125 1.5 -3.265625 C 1.6875 -3.734375 2.265625 -3.734375 2.34375 -3.734375 C 2.546875 -3.734375 2.734375 -3.671875 2.96875 -3.59375 C 3.375 -3.4375 3.484375 -3.4375 3.734375 -3.4375 C 3.375 -3.015625 2.546875 -2.296875 2.359375 -2.140625 L 1.453125 -1.296875 C 0.78125 -0.625 0.421875 -0.0625 0.421875 0.015625 C 0.421875 0.109375 0.53125 0.109375 0.546875 0.109375 C 0.625 0.109375 0.640625 0.09375 0.703125 -0.015625 C 0.9375 -0.375 1.234375 -0.640625 1.5625 -0.640625 C 1.78125 -0.640625 1.890625 -0.546875 2.140625 -0.265625 C 2.296875 -0.046875 2.484375 0.109375 2.765625 0.109375 C 3.765625 0.109375 4.34375 -1.15625 4.34375 -1.421875 C 4.34375 -1.46875 4.296875 -1.53125 4.21875 -1.53125 C 4.125 -1.53125 4.109375 -1.46875 4.078125 -1.390625 C 3.84375 -0.75 3.203125 -0.5625 2.875 -0.5625 C 2.6875 -0.5625 2.5 -0.625 2.296875 -0.6875 C 1.953125 -0.8125 1.796875 -0.859375 1.59375 -0.859375 C 1.578125 -0.859375 1.421875 -0.859375 1.328125 -0.828125 Z M 1.328125 -0.828125 "
               style="stroke:none;" />
          </symbol>
          <symbol
             id="textext-086c158f-1"
             overflow="visible">
            <path
               id="path3492"
               d="M 3.328125 -3.015625 C 3.390625 -3.265625 3.625 -4.1875 4.3125 -4.1875 C 4.359375 -4.1875 4.609375 -4.1875 4.8125 -4.0625 C 4.53125 -4 4.34375 -3.765625 4.34375 -3.515625 C 4.34375 -3.359375 4.453125 -3.171875 4.71875 -3.171875 C 4.9375 -3.171875 5.25 -3.34375 5.25 -3.75 C 5.25 -4.265625 4.671875 -4.40625 4.328125 -4.40625 C 3.75 -4.40625 3.40625 -3.875 3.28125 -3.65625 C 3.03125 -4.3125 2.5 -4.40625 2.203125 -4.40625 C 1.171875 -4.40625 0.59375 -3.125 0.59375 -2.875 C 0.59375 -2.765625 0.703125 -2.765625 0.71875 -2.765625 C 0.796875 -2.765625 0.828125 -2.796875 0.84375 -2.875 C 1.1875 -3.9375 1.84375 -4.1875 2.1875 -4.1875 C 2.375 -4.1875 2.71875 -4.09375 2.71875 -3.515625 C 2.71875 -3.203125 2.546875 -2.546875 2.1875 -1.140625 C 2.03125 -0.53125 1.671875 -0.109375 1.234375 -0.109375 C 1.171875 -0.109375 0.953125 -0.109375 0.734375 -0.234375 C 0.984375 -0.296875 1.203125 -0.5 1.203125 -0.78125 C 1.203125 -1.046875 0.984375 -1.125 0.84375 -1.125 C 0.53125 -1.125 0.296875 -0.875 0.296875 -0.546875 C 0.296875 -0.09375 0.78125 0.109375 1.21875 0.109375 C 1.890625 0.109375 2.25 -0.59375 2.265625 -0.640625 C 2.390625 -0.28125 2.75 0.109375 3.34375 0.109375 C 4.375 0.109375 4.9375 -1.171875 4.9375 -1.421875 C 4.9375 -1.53125 4.859375 -1.53125 4.828125 -1.53125 C 4.734375 -1.53125 4.71875 -1.484375 4.6875 -1.421875 C 4.359375 -0.34375 3.6875 -0.109375 3.375 -0.109375 C 2.984375 -0.109375 2.828125 -0.421875 2.828125 -0.765625 C 2.828125 -0.984375 2.875 -1.203125 2.984375 -1.640625 Z M 3.328125 -3.015625 "
               style="stroke:none;" />
          </symbol>
          <symbol
             id="textext-086c158f-2"
             overflow="visible">
            <path
               id="path3495"
               d="M 2.03125 -0.015625 C 2.03125 -0.671875 1.78125 -1.0625 1.390625 -1.0625 C 1.0625 -1.0625 0.859375 -0.8125 0.859375 -0.53125 C 0.859375 -0.265625 1.0625 0 1.390625 0 C 1.5 0 1.640625 -0.046875 1.734375 -0.125 C 1.765625 -0.15625 1.78125 -0.15625 1.78125 -0.15625 C 1.796875 -0.15625 1.796875 -0.15625 1.796875 -0.015625 C 1.796875 0.734375 1.453125 1.328125 1.125 1.65625 C 1.015625 1.765625 1.015625 1.78125 1.015625 1.8125 C 1.015625 1.890625 1.0625 1.921875 1.109375 1.921875 C 1.21875 1.921875 2.03125 1.15625 2.03125 -0.015625 Z M 2.03125 -0.015625 "
               style="stroke:none;" />
          </symbol>
          <symbol
             id="textext-086c158f-3"
             overflow="visible">
            <path
               id="path3498"
               d="M 4.84375 -3.796875 C 4.890625 -3.9375 4.890625 -3.953125 4.890625 -4.03125 C 4.890625 -4.203125 4.75 -4.296875 4.59375 -4.296875 C 4.5 -4.296875 4.34375 -4.234375 4.25 -4.09375 C 4.234375 -4.03125 4.140625 -3.734375 4.109375 -3.546875 C 4.03125 -3.296875 3.96875 -3.015625 3.90625 -2.75 L 3.453125 -0.953125 C 3.421875 -0.8125 2.984375 -0.109375 2.328125 -0.109375 C 1.828125 -0.109375 1.71875 -0.546875 1.71875 -0.921875 C 1.71875 -1.375 1.890625 -2 2.21875 -2.875 C 2.375 -3.28125 2.421875 -3.390625 2.421875 -3.59375 C 2.421875 -4.03125 2.109375 -4.40625 1.609375 -4.40625 C 0.65625 -4.40625 0.296875 -2.953125 0.296875 -2.875 C 0.296875 -2.765625 0.390625 -2.765625 0.40625 -2.765625 C 0.515625 -2.765625 0.515625 -2.796875 0.5625 -2.953125 C 0.84375 -3.890625 1.234375 -4.1875 1.578125 -4.1875 C 1.65625 -4.1875 1.828125 -4.1875 1.828125 -3.875 C 1.828125 -3.625 1.71875 -3.359375 1.65625 -3.171875 C 1.25 -2.109375 1.078125 -1.546875 1.078125 -1.078125 C 1.078125 -0.1875 1.703125 0.109375 2.296875 0.109375 C 2.6875 0.109375 3.015625 -0.0625 3.296875 -0.34375 C 3.171875 0.171875 3.046875 0.671875 2.65625 1.203125 C 2.390625 1.53125 2.015625 1.828125 1.5625 1.828125 C 1.421875 1.828125 0.96875 1.796875 0.796875 1.40625 C 0.953125 1.40625 1.09375 1.40625 1.21875 1.28125 C 1.328125 1.203125 1.421875 1.0625 1.421875 0.875 C 1.421875 0.5625 1.15625 0.53125 1.0625 0.53125 C 0.828125 0.53125 0.5 0.6875 0.5 1.171875 C 0.5 1.671875 0.9375 2.046875 1.5625 2.046875 C 2.578125 2.046875 3.609375 1.140625 3.890625 0.015625 Z M 4.84375 -3.796875 "
               style="stroke:none;" />
          </symbol>
          <symbol
             id="textext-086c158f-4"
             overflow="visible">
            <path
               id="path3501"
               d="M 3.296875 2.390625 C 3.296875 2.359375 3.296875 2.34375 3.125 2.171875 C 1.890625 0.921875 1.5625 -0.96875 1.5625 -2.5 C 1.5625 -4.234375 1.9375 -5.96875 3.171875 -7.203125 C 3.296875 -7.328125 3.296875 -7.34375 3.296875 -7.375 C 3.296875 -7.453125 3.265625 -7.484375 3.203125 -7.484375 C 3.09375 -7.484375 2.203125 -6.796875 1.609375 -5.53125 C 1.109375 -4.4375 0.984375 -3.328125 0.984375 -2.5 C 0.984375 -1.71875 1.09375 -0.515625 1.640625 0.625 C 2.25 1.84375 3.09375 2.5 3.203125 2.5 C 3.265625 2.5 3.296875 2.46875 3.296875 2.390625 Z M 3.296875 2.390625 "
               style="stroke:none;" />
          </symbol>
          <symbol
             id="textext-086c158f-5"
             overflow="visible">
            <path
               id="path3504"
               d="M 2.875 -2.5 C 2.875 -3.265625 2.765625 -4.46875 2.21875 -5.609375 C 1.625 -6.828125 0.765625 -7.484375 0.671875 -7.484375 C 0.609375 -7.484375 0.5625 -7.4375 0.5625 -7.375 C 0.5625 -7.34375 0.5625 -7.328125 0.75 -7.140625 C 1.734375 -6.15625 2.296875 -4.578125 2.296875 -2.5 C 2.296875 -0.78125 1.9375 0.96875 0.703125 2.21875 C 0.5625 2.34375 0.5625 2.359375 0.5625 2.390625 C 0.5625 2.453125 0.609375 2.5 0.671875 2.5 C 0.765625 2.5 1.671875 1.8125 2.25 0.546875 C 2.765625 -0.546875 2.875 -1.65625 2.875 -2.5 Z M 2.875 -2.5 "
               style="stroke:none;" />
          </symbol>
        </g>
      </defs>
      <g
         id="textext-086c158f-6">
        <g
           id="g3507"
           style="fill:rgb(0%,0%,0%);fill-opacity:1;">
          <use
             id="use3509"
             y="134.765"
             x="223.432"
             xlink:href="#textext-086c158f-0" />
        </g>
        <g
           id="g3511"
           style="fill:rgb(0%,0%,0%);fill-opacity:1;">
          <use
             id="use3513"
             y="134.765"
             x="228.503"
             xlink:href="#textext-086c158f-4" />
        </g>
        <g
           id="g3515"
           style="fill:rgb(0%,0%,0%);fill-opacity:1;">
          <use
             id="use3517"
             y="134.765"
             x="232.378"
             xlink:href="#textext-086c158f-1" />
          <use
             id="use3519"
             y="134.765"
             x="238.071626"
             xlink:href="#textext-086c158f-2" />
        </g>
        <g
           id="g3521"
           style="fill:rgb(0%,0%,0%);fill-opacity:1;">
          <use
             id="use3523"
             y="134.765"
             x="242.50299"
             xlink:href="#textext-086c158f-3" />
        </g>
        <g
           id="g3525"
           style="fill:rgb(0%,0%,0%);fill-opacity:1;">
          <use
             id="use3527"
             y="134.765"
             x="247.741"
             xlink:href="#textext-086c158f-5" />
        </g>
      </g>
    </g>
  </g>
</svg>
